<?xml version="1.0" encoding="utf-8"?>
<!-- Generator: Adobe Illustrator 20.1.0, SVG Export Plug-In . SVG Version: 6.00 Build 0)  -->
<svg version="1.1" id="Layer_1" xmlns="http://www.w3.org/2000/svg" xmlns:xlink="http://www.w3.org/1999/xlink" x="0px" y="0px"
	 viewBox="0 0 177 207.7" style="enable-background:new 0 0 177 207.7;" xml:space="preserve">
<style type="text/css">
	.st0{fill:#B68461;}
	.st1{fill:#92603E;}
	.st2{fill:#257482;}
	.st3{fill:#E87870;}
	.st4{fill:#94332C;}
	.st5{fill:#735542;}
	.st6{clip-path:url(#SVGID_4_);}
	.st7{fill:#553A28;}
	.st8{fill:#010101;}
	.st9{fill:#FFFFFF;}
	.st10{clip-path:url(#SVGID_6_);}
	.st11{fill:#2B211A;}
</style>
<g>
	<defs>
		<path id="SVGID_1_" d="M142.3,45L142.3,45L142.3,45c-7.3-23.5-28.7-41.3-54.1-41.3c-25.3,0-46.8,17.8-54.1,41.2l0,0l0,0
			C33.8,46,4.6,203.1,4.6,203.1c19.6,0,34.5-14.7,34.5-34.3l19.1-7.6c0,0,9.3,0,5.7-18.3c-16.9-9.2-19.4-23.7-19.4-23.7l-1-4.7
			l1.6-43.4h86.4l2.4,43.8l-0.9,4.3c0,0-1.6,14-19.7,23.9c-5.2,16.9,5.4,18.1,5.4,18.1l21.4,8.6c0,19.6,12.3,33.3,31.8,33.3
			C172,203.1,142.7,46.1,142.3,45z"/>
	</defs>
	<clipPath id="SVGID_2_">
		<use xlink:href="#SVGID_1_"  style="overflow:visible;"/>
	</clipPath>
</g>
<g>
	<g>
		<path class="st0" d="M166.1,203.5c-2.8-8.7-5.5-16-8.2-20.8c-0.2-0.4-0.3-0.7-0.5-1.1c-0.4-0.7-1-1.5-1.5-2.2
			c-0.8-1.1-1.6-1.9-2.3-2.5c0,0-0.1,0-0.1-0.1c-12.7-11.5-41-15.3-41-22.3c0-7.9,0-33.6,0-33.6H62.9c0,0,0,25.8,0,33.6
			c0,7-28.1,10.8-40.9,22.2c-0.1,0.1-0.1,0.1-0.2,0.2c-0.9,0.7-1.8,1.7-2.7,3c-0.4,0.5-0.8,1.1-1.1,1.6c-0.1,0.2-0.2,0.5-0.3,0.7
			c-2.8,4.8-5.6,12.2-8.5,21.2H166.1z"/>
		<path class="st1" d="M112.4,145.8c0-10.5,0-24.8,0-24.8H62.9c0,0,0,21.7,0,31.4c1.2-3.6,9.5,0.8,20.4,2.9
			C94.4,157.4,107,153.9,112.4,145.8z"/>
		<path class="st2" d="M157.9,182.7c-0.2-0.4-0.3-0.7-0.5-1.1c-0.4-0.7-1-1.5-1.5-2.2c-0.8-1.1-1.6-1.9-2.3-2.5c0,0-0.1,0-0.1-0.1
			c-9.2-8.3-26.5-12.6-35.4-17c-7.3,8.6-18.2,14-30.3,14c-12.1,0-23-5.4-30.3-14c-8.9,4.4-26.1,8.6-35.3,16.9
			c-0.1,0.1-0.1,0.1-0.2,0.2c-0.9,0.7-1.8,1.7-2.7,3c-0.4,0.5-0.8,1.1-1.1,1.6c-0.1,0.2-0.2,0.5-0.3,0.7c-2.8,4.8-5.6,12.2-8.5,21.2
			h156.9C163.3,194.7,160.6,187.5,157.9,182.7z"/>
	</g>
	<g>
		<g>
			<g>
				<path class="st0" d="M45.9,91.4c0,0-7-8.7-14.1-4.9c-12,6.5-1.7,33.6,13.1,28.5L45.9,91.4z"/>
				<path class="st1" d="M43.2,93.2c0,0-4.9-5.6-9.7-3.1c-8.2,4.1,1.9,23.6,9.2,18.1L43.2,93.2z"/>
			</g>
			<g>
				<path class="st0" d="M129.4,91.4c0,0,7-8.7,14.1-4.9c12,6.5,1.7,33.6-13.1,28.5L129.4,91.4z"/>
				<path class="st1" d="M132.1,93.2c0,0,4.9-5.6,9.7-3.1c8.2,4.1-1.9,23.6-9.2,18.1L132.1,93.2z"/>
			</g>
		</g>
		<path class="st0" d="M88.4,23.1C62,23.4,40.8,38.8,40.8,74.4c0,15.7,0.4,42.2,6.5,52.1c6.1,9.9,14.2,14,20.9,18
			c6.5,3.8,12.3,6.4,20.1,6.6c7.8-0.1,13.6-2.7,20.1-6.6c6.7-3.9,14.9-8.1,20.9-18c6.1-9.8,6.5-36.4,6.5-52.1
			C135.9,38.8,114.7,23.4,88.4,23.1z"/>
		<g>
			<path class="st3" d="M91.5,125c-1.8,0.1-2.1,1.4-3.8,1.4c-1.7,0-2-1.3-3.8-1.4c-3.8-0.3-6.2,0.3-10.6,2.6
				c3.1,4.7,2.6,9.2,14.4,9.7c11.9-0.5,11.4-5,14.4-9.7C97.6,125.3,95.2,124.6,91.5,125z"/>
			<path class="st4" d="M101.2,127.7c0,0.1-0.3,0.3-0.9,0.7c-0.6,0.4-1.6,0.8-2.9,1.1c-0.3,0.1-5.1,1-9.8,1c-4.6,0-9.2-1-9.8-1.1
				c-1.3-0.2-2.3-0.6-2.9-0.9c-0.2-0.1-0.3-0.2-0.4-0.2c-0.1-0.1-0.2-0.2-0.3-0.2c-0.1-0.1-0.2-0.2-0.2-0.2c0,0,0.1,0,0.3,0.1
				c0.1,0,0.2,0.1,0.3,0.1c0.1,0.1,0.3,0.1,0.4,0.2c0.6,0.2,1.6,0.5,2.8,0.6c1.2,0.1,2.7,0.2,4.3,0.2c1.6,0,3.4-0.1,5.3-0.1
				c1,0,1.9,0,2.8,0.1c0.9,0.1,1.8,0.1,2.6,0.2c0.8,0,1.6,0.1,2.3,0c0.7,0,1.4-0.1,2-0.2C99.8,128.4,101.1,127.5,101.2,127.7z"/>
		</g>
		<path class="st5" d="M96.5,115.7c-0.1-0.6-0.4-1.1-0.7-1.4c-0.3-0.3-0.6-0.6-0.8-0.7c-0.2-0.1-0.4-0.2-0.4-0.1
			c-0.1,0.1,0.3,0.5,0.7,1.2c0.2,0.3,0.4,0.7,0.4,1.2c0.1,0.5,0,1-0.2,1.4c-0.2,0.4-0.6,0.6-1,0.6c-0.2,0-0.4-0.1-0.6-0.3
			c-0.2-0.1-0.4-0.3-0.6-0.3c-0.2-0.1-0.3-0.1-0.5-0.1c0.3-0.5,0.3-0.8,0.3-0.9c-0.1-0.1-0.5,0.5-1.3,1.2c-0.4,0.3-0.9,0.7-1.4,1
			c-0.6,0.3-1.3,0.5-2,0.5c-0.7,0-1.4-0.2-2-0.5c-0.6-0.3-1.1-0.6-1.5-1c-0.8-0.7-1.2-1.2-1.3-1.1c-0.1,0,0,0.3,0.2,0.7
			c-0.1,0-0.3,0-0.4,0.1c-0.2,0.1-0.4,0.2-0.6,0.3c-0.2,0.1-0.4,0.2-0.6,0.3c-0.3,0.1-0.7-0.2-1-0.6c-0.2-0.4-0.3-1-0.2-1.4
			c0.1-0.5,0.3-0.9,0.4-1.2c0.4-0.7,0.7-1,0.7-1.2c0,0-0.2,0-0.4,0.1c-0.2,0.1-0.5,0.3-0.8,0.7c-0.3,0.3-0.6,0.8-0.7,1.4
			c-0.1,0.6-0.2,1.3,0.2,2c0.2,0.3,0.5,0.6,0.8,0.8c0.3,0.2,0.8,0.3,1.1,0.1c0.4-0.1,0.6-0.3,0.8-0.5c0.2-0.2,0.4-0.3,0.5-0.4
			c0.2-0.1,0.3-0.2,0.5-0.2c0.1,0.1,0.2,0.3,0.3,0.4c0.4,0.4,0.9,0.9,1.6,1.2c0.7,0.4,1.5,0.6,2.4,0.6c0.9,0,1.7-0.3,2.4-0.7
			c0.7-0.4,1.2-0.9,1.5-1.3c0.1-0.1,0.1-0.2,0.2-0.3c0.2,0,0.3,0.1,0.5,0.2c0.1,0.1,0.3,0.2,0.5,0.4c0.2,0.2,0.4,0.3,0.8,0.5
			c0.4,0.1,0.8,0,1.1-0.1c0.3-0.2,0.6-0.5,0.8-0.8C96.7,117,96.7,116.3,96.5,115.7z"/>
		<g>
			<g>
				<g>
					<defs>
						<path id="SVGID_3_" d="M100,95.8c-0.1-2.9,6.3-6.3,10-6.2c3.2,0,10,1.9,9.6,5.8c-0.2,2.2-1.9,4.3-9.6,4.3S100.1,97.6,100,95.8
							z"/>
					</defs>
					<use xlink:href="#SVGID_3_"  style="overflow:visible;fill:#FFFFFF;"/>
					<clipPath id="SVGID_4_">
						<use xlink:href="#SVGID_3_"  style="overflow:visible;"/>
					</clipPath>
					<g class="st6">
						<circle class="st7" cx="110" cy="94.6" r="5.7"/>
						<circle class="st8" cx="110" cy="94.6" r="3.2"/>
						<circle class="st9" cx="111.9" cy="95.3" r="0.6"/>
					</g>
				</g>
				<path class="st5" d="M100,95.5c-0.3-4.1,6-6.6,10-6.6c3.7,0,10.4,1.9,9.6,6.4C112.5,90.2,104.5,92.5,100,95.5z"/>
			</g>
			<g>
				<g>
					<defs>
						<path id="SVGID_5_" d="M75.3,95.8c0.1-2.9-6.3-6.3-10-6.2c-3.2,0-10,1.9-9.6,5.8c0.2,2.2,1.9,4.3,9.6,4.3S75.2,97.6,75.3,95.8
							z"/>
					</defs>
					<use xlink:href="#SVGID_5_"  style="overflow:visible;fill:#FFFFFF;"/>
					<clipPath id="SVGID_6_">
						<use xlink:href="#SVGID_5_"  style="overflow:visible;"/>
					</clipPath>
					<g class="st10">
						<circle class="st7" cx="65.3" cy="94.6" r="5.7"/>
						<circle class="st8" cx="65.3" cy="94.6" r="3.2"/>
						<circle class="st9" cx="67.2" cy="95.3" r="0.6"/>
					</g>
				</g>
				<path class="st5" d="M75.3,95.5c0.3-4.1-6-6.6-10-6.6c-3.7,0-10.4,1.9-9.6,6.4C62.8,90.2,70.8,92.5,75.3,95.5z"/>
			</g>
		</g>
		<g>
			<path class="st11" d="M124.2,85.8c-0.1,0.1-0.5,0-1.1-0.3c-0.6-0.3-1.3-0.6-2.3-0.9c-1-0.3-2.1-0.5-3.4-0.5c-1.3,0-2.6,0.1-4,0.4
				c-1.4,0.2-2.8,0.6-4.2,0.9c-1.4,0.3-2.7,0.6-3.9,0.8c-2.3,0.5-4,0.8-4.4,0.9c-1.4,0.2-2.8-0.7-3-2.1c-0.2-1.4,0.8-2.7,2.2-2.9
				c0.4-0.1,2.1-0.2,4.4-0.5c1.2-0.1,2.5-0.2,4-0.4c1.4-0.1,3-0.3,4.5-0.3c1.6,0,3.2,0.1,4.7,0.4c1.5,0.3,2.8,0.9,3.8,1.5
				c1,0.6,1.8,1.3,2.2,1.9C124.2,85.3,124.3,85.7,124.2,85.8z"/>
			<path class="st11" d="M52.4,84.2c0.1,0.1,0.5,0,1.1-0.2c0.6-0.2,1.4-0.4,2.4-0.6c1-0.2,2.2-0.2,3.4-0.1c1.3,0.1,2.6,0.4,3.9,0.8
				c1.4,0.4,2.7,0.9,4.1,1.4c1.4,0.5,2.6,0.9,3.8,1.3c2.3,0.8,3.9,1.3,4.2,1.4c1.4,0.4,2.8-0.4,3.2-1.8c0.4-1.4-0.4-2.8-1.8-3.2
				c-0.3-0.1-2-0.5-4.3-1c-1.2-0.3-2.5-0.5-3.9-0.8c-1.4-0.3-2.9-0.6-4.5-0.8c-1.6-0.2-3.2-0.3-4.7-0.2c-1.5,0.1-2.9,0.5-4,1
				c-1.1,0.5-1.9,1.1-2.4,1.6C52.4,83.7,52.3,84.1,52.4,84.2z"/>
		</g>
		<path class="st11" d="M57.2,28c-0.8-4,1.1-8.1,4-11c2.8-2.9,6.5-4.8,10.2-6.5c6.5-3.1,13.1-6,19.8-8.6c-0.4,1.3-0.7,2.7-1.1,4
			c9.4-0.8,18.8-0.7,28.1,0.4c-0.8,0.9-1.7,1.7-2.5,2.6c7,0.3,13.9,0.5,20.9,0.8c-1.3,2.4-2.7,4.8-4,7.2c1.4,0,2.9,0,4.3,0.1
			c0.6,5.1,1.2,10.3,1.7,15.4c0.7-0.5,1.4-1,2.2-1.6c1,17.3,0.5,55,0.5,55c-2.9-0.5-5.6,0.7-5.6,0.7l-0.3,7.8l-1-0.2
			c1.4-29.5-3.1-42.4-12-47.6c-9.1-5.4-9.7,1.4-33.8,1s-28-6.9-39,3.5c-4.2,4-7.7,42.5-7.7,42.5h-0.8L41,87.2
			c-1.5-0.8-2.7-1.4-4.1-1.6c0,0-1.3-23,1.6-29.2c-1,1-1.9,2-2.9,3c0.4-7.5,2.6-15,6.3-21.5c-1.1,0.1-2.1,0.1-3.2,0.2
			C42.3,30.6,50.6,26.2,57.2,28z"/>
	</g>
</g>
</svg>
