<?xml version="1.0" encoding="utf-8"?>
<!-- Generator: Adobe Illustrator 20.1.0, SVG Export Plug-In . SVG Version: 6.00 Build 0)  -->
<svg version="1.1" id="Layer_1" xmlns="http://www.w3.org/2000/svg" xmlns:xlink="http://www.w3.org/1999/xlink" x="0px" y="0px"
	 viewBox="0 0 177 207.7" style="enable-background:new 0 0 177 207.7;" xml:space="preserve">
<style type="text/css">
	.st0{fill:#C18B67;}
	.st1{fill:#8F6244;}
	.st2{fill:#1C2D19;}
	.st3{fill:#2D1B10;}
	.st4{fill:#D69B73;}
	.st5{clip-path:url(#SVGID_4_);}
	.st6{fill:#1A6959;}
	.st7{fill:#010101;}
	.st8{fill:#FFFFFF;}
	.st9{fill:#9E7152;}
	.st10{clip-path:url(#SVGID_6_);}
	.st11{fill:#EA7168;}
	.st12{fill:#D3645F;}
</style>
<g>
	<defs>
		<path id="SVGID_1_" d="M142.3,45L142.3,45L142.3,45c-7.3-23.5-28.7-41.3-54.1-41.3c-25.3,0-46.8,17.8-54.1,41.2l0,0l0,0
			C33.8,46,4.6,203.1,4.6,203.1c19.6,0,34.5-14.7,34.5-34.3l19.1-7.6c0,0,9.3,0,5.7-18.3c-16.9-9.2-19.4-23.7-19.4-23.7l-1-4.7
			l1.6-43.4h86.4l2.4,43.8l-0.9,4.3c0,0-1.6,14-19.7,23.9c-5.2,16.9,5.4,18.1,5.4,18.1l21.4,8.6c0,19.6,12.3,33.3,31.8,33.3
			C172,203.1,142.7,46.1,142.3,45z"/>
	</defs>
	<clipPath id="SVGID_2_">
		<use xlink:href="#SVGID_1_"  style="overflow:visible;"/>
	</clipPath>
</g>
<g>
	<g>
		<path class="st0" d="M167.1,202.7c-2.8-8.7-5.5-16-8.2-20.8c-0.2-0.4-0.3-0.7-0.5-1.1c-0.4-0.7-1-1.5-1.5-2.2
			c-0.8-1.1-1.6-1.9-2.3-2.5c0,0-0.1,0-0.1-0.1c-12.7-11.5-41-15.3-41-22.3c0-7.9,0-33.6,0-33.6H63.9c0,0,0,25.8,0,33.6
			c0,7-28.1,10.8-40.9,22.2c-0.1,0.1-0.1,0.1-0.2,0.2c-0.9,0.7-1.8,1.7-2.7,3c-0.4,0.5-0.8,1.1-1.1,1.6c-0.1,0.2-0.2,0.5-0.3,0.7
			c-2.8,4.8-5.6,12.2-8.5,21.2H167.1z"/>
		<path class="st1" d="M113.4,145c0-10.5,0-24.8,0-24.8H63.9c0,0,0,21.7,0,31.4c1.2-3.6,9.5,0.8,20.4,2.9
			C95.5,156.7,108.1,153.1,113.4,145z"/>
		<path class="st2" d="M158.9,181.9c-0.2-0.4-0.3-0.7-0.5-1.1c-0.4-0.7-1-1.5-1.5-2.2c-0.8-1.1-1.6-1.9-2.3-2.5c0,0-0.1,0-0.1-0.1
			c-9.2-8.3-26.5-12.6-35.4-17c-7.3,8.6-18.2,14-30.3,14c-12.1,0-23-5.4-30.3-14c-8.9,4.4-26.1,8.6-35.3,16.9
			c-0.1,0.1-0.1,0.1-0.2,0.2c-0.9,0.7-1.8,1.7-2.7,3c-0.4,0.5-0.8,1.1-1.1,1.6c-0.1,0.2-0.2,0.5-0.3,0.7c-2.8,4.8-5.6,12.2-8.5,21.2
			h156.9C164.4,194,161.6,186.8,158.9,181.9z"/>
	</g>
	<g>
		<path class="st3" d="M62.3,19.7c-8.3,2.4-15.4,6.2-21.1,15c-4.5,6.9-7.3,14.8-10,22.6c0.7,0.7,0.9,1.7,1.1,2.6
			c1.6,8.3,4.1,17.1,3.9,25.4c-0.1,3.4-0.1,5.6,0.8,9.1c0.8,3,4.2,20.5,8.5,20.5c0.1,0,89.4,0,89.4,0c1.4-0.3,5.4-16.3,5.8-18.7
			c1.2-7.5,2.1-14.9,4.3-22.2c1-3.4,2.3-6.9,2.2-10.4c-0.1-2.4-0.8-4.7-1.5-7c-1.5-4.8-3.1-9.6-4.6-14.4c-3.2-10-7.7-17.1-17.6-21.2
			c-10.1-4.2-21.1-5.7-31.9-3.8C81.8,18.9,72.1,16.9,62.3,19.7z"/>
		<g>
			<g>
				<path class="st0" d="M46.9,90.7c0,0-7-8.7-14.1-4.9c-12,6.5-1.7,33.6,13.1,28.5L46.9,90.7z"/>
				<path class="st1" d="M44.2,92.4c0,0-4.9-5.6-9.7-3.1c-8.2,4.1,1.9,23.6,9.2,18.1L44.2,92.4z"/>
			</g>
			<g>
				<path class="st0" d="M130.4,90.7c0,0,7-8.7,14.1-4.9c12,6.5,1.7,33.6-13.1,28.5L130.4,90.7z"/>
				<path class="st1" d="M133.1,92.4c0,0,4.9-5.6,9.7-3.1c8.2,4.1-1.9,23.6-9.2,18.1L133.1,92.4z"/>
			</g>
		</g>
		<path class="st0" d="M89.4,22.4c-26.3,0.3-47.5,15.7-47.5,51.3c0,15.7,0.4,42.2,6.5,52.1c6.1,9.8,14.2,14,20.9,18
			c6.5,3.8,12.3,6.4,20.1,6.6c7.8-0.1,13.6-2.7,20.1-6.6c6.7-3.9,14.9-8.1,20.9-18c6.1-9.9,6.5-36.4,6.5-52.1
			C136.9,38.1,115.7,22.6,89.4,22.4z"/>
		<path class="st1" d="M97.6,113.9c-0.1-0.6-0.4-1.1-0.7-1.4c-0.3-0.3-0.6-0.6-0.8-0.7c-0.2-0.1-0.4-0.2-0.4-0.1
			c-0.1,0.1,0.3,0.5,0.7,1.2c0.2,0.3,0.4,0.7,0.4,1.2c0.1,0.5,0,1-0.2,1.4c-0.2,0.4-0.6,0.6-1,0.6c-0.2,0-0.4-0.1-0.6-0.3
			c-0.2-0.1-0.4-0.3-0.6-0.3c-0.2-0.1-0.3-0.1-0.5-0.1c0.3-0.5,0.3-0.8,0.3-0.9c-0.1-0.1-0.5,0.5-1.3,1.2c-0.4,0.3-0.9,0.7-1.4,1
			c-0.6,0.3-1.3,0.5-2,0.5c-0.7,0-1.4-0.2-2-0.5c-0.6-0.3-1.1-0.6-1.5-1c-0.8-0.7-1.2-1.2-1.3-1.1c-0.1,0,0,0.3,0.2,0.7
			c-0.1,0-0.3,0-0.4,0.1c-0.2,0.1-0.4,0.2-0.6,0.3c-0.2,0.1-0.4,0.2-0.6,0.3c-0.3,0.1-0.7-0.2-1-0.6c-0.2-0.4-0.3-1-0.2-1.4
			c0.1-0.5,0.3-0.9,0.4-1.2c0.4-0.7,0.7-1,0.7-1.2c0,0-0.2,0-0.4,0.1c-0.2,0.1-0.5,0.3-0.8,0.7c-0.3,0.3-0.6,0.8-0.7,1.4
			c-0.1,0.6-0.2,1.3,0.2,2c0.2,0.3,0.5,0.6,0.8,0.8c0.3,0.2,0.8,0.3,1.1,0.1c0.4-0.1,0.6-0.3,0.8-0.5c0.2-0.2,0.4-0.3,0.5-0.4
			c0.2-0.1,0.3-0.2,0.5-0.2c0.1,0.1,0.2,0.3,0.3,0.4c0.4,0.4,0.9,0.9,1.6,1.2c0.7,0.4,1.5,0.6,2.4,0.6c0.9,0,1.7-0.3,2.4-0.7
			c0.7-0.4,1.2-0.9,1.5-1.3c0.1-0.1,0.1-0.2,0.2-0.3c0.2,0,0.3,0.1,0.5,0.2c0.1,0.1,0.3,0.2,0.5,0.4c0.2,0.2,0.4,0.3,0.8,0.5
			c0.4,0.1,0.8,0,1.1-0.1c0.3-0.2,0.6-0.5,0.8-0.8C97.7,115.2,97.7,114.5,97.6,113.9z"/>
		<g>
			<ellipse class="st4" cx="59" cy="109.8" rx="9.9" ry="5.1"/>
			<ellipse class="st4" cx="119.8" cy="109.8" rx="9.9" ry="5.1"/>
		</g>
		<g>
			<g>
				<g>
					<defs>
						<path id="SVGID_3_" d="M79.7,99.3c-6.3-7.7-15.2-8.7-22,0.5C67.2,105.3,76.1,100.9,79.7,99.3z"/>
					</defs>
					<use xlink:href="#SVGID_3_"  style="overflow:visible;fill:#FFFFFF;"/>
					<clipPath id="SVGID_4_">
						<use xlink:href="#SVGID_3_"  style="overflow:visible;"/>
					</clipPath>
					<g class="st5">
						
							<ellipse transform="matrix(0.999 -4.525502e-02 4.525502e-02 0.999 -4.3723 3.1969)" class="st6" cx="68.4" cy="98.2" rx="5.4" ry="5.4"/>
						
							<ellipse transform="matrix(0.999 -4.527608e-02 4.527608e-02 0.999 -4.3743 3.1984)" class="st7" cx="68.4" cy="98.2" rx="3" ry="3"/>
						
							<ellipse transform="matrix(0.999 -4.532173e-02 4.532173e-02 0.999 -4.3145 3.2657)" class="st8" cx="69.9" cy="96.8" rx="0.6" ry="0.6"/>
					</g>
				</g>
				<path class="st9" d="M79.7,99.3c-2.5-5.6-7.3-7.1-11.6-6.9c-3.9,0.2-8.5,2.3-10.5,7.4C65.2,93.1,73.6,93.5,79.7,99.3z"/>
			</g>
			<g>
				<g>
					<defs>
						<path id="SVGID_5_" d="M99,99.3c6.3-7.8,15.1-8.8,22,0.4C111.6,105.3,102.7,101,99,99.3z"/>
					</defs>
					<use xlink:href="#SVGID_5_"  style="overflow:visible;fill:#FFFFFF;"/>
					<clipPath id="SVGID_6_">
						<use xlink:href="#SVGID_5_"  style="overflow:visible;"/>
					</clipPath>
					<g class="st10">
						
							<ellipse transform="matrix(3.878738e-02 -0.9992 0.9992 3.878738e-02 7.9453 204.5842)" class="st6" cx="110.3" cy="98.2" rx="5.4" ry="5.4"/>
						
							<ellipse transform="matrix(3.880424e-02 -0.9992 0.9992 3.880424e-02 7.9435 204.5825)" class="st7" cx="110.3" cy="98.2" rx="3" ry="3"/>
						
							<ellipse transform="matrix(3.890298e-02 -0.9992 0.9992 3.890298e-02 10.4849 204.9031)" class="st8" cx="111.8" cy="97" rx="0.6" ry="0.6"/>
					</g>
				</g>
				<path class="st9" d="M99,99.3c2.5-5.6,7.3-7.1,11.5-6.9c3.9,0.2,8.5,2.2,10.5,7.3C113.5,93,105.1,93.6,99,99.3z"/>
			</g>
		</g>
		<g>
			<path class="st11" d="M90.1,127.1c1.5-0.6,2.9-1.2,4.3-1.8c3.8,1.1,7.9,2,12.1,2.5c0.1-0.2-4.9,6.7-17,6.9
				c-12.1-0.1-17.4-7-17.3-6.9c4.8-0.4,9.4-1.2,13.8-2.4C87.3,126,88.7,126.6,90.1,127.1z"/>
			<path class="st12" d="M90.1,127.1c1.5-0.6,2.9-1.2,4.3-1.8c3.8,1.1,7.9,2,12.1,2.5c-11.3,2.5-23,2.5-34.3,0
				c4.8-0.4,9.4-1.2,13.8-2.4C87.3,126,88.7,126.6,90.1,127.1z"/>
		</g>
		<g>
			<path class="st3" d="M125,89.3c-0.1,0.1-0.5-0.1-1-0.4c-0.5-0.3-1.3-0.7-2.2-1.1c-0.9-0.4-2.1-0.7-3.3-0.8c-1.3-0.1-2.6-0.1-4,0
				c-1.4,0.1-2.9,0.3-4.3,0.5c-1.4,0.2-2.8,0.3-3.9,0.5c-2.4,0.3-4.1,0.5-4.4,0.5c-1.4,0.1-2.7-1-2.8-2.4c-0.1-1.4,1-2.6,2.5-2.7
				c0.4,0,2.1-0.1,4.5-0.1c1.2,0,2.5,0,4,0c1.4,0,3,0,4.6,0.1c1.6,0.1,3.2,0.4,4.6,0.8c1.5,0.5,2.7,1.1,3.7,1.9c1,0.7,1.6,1.5,2,2.1
				C125.1,88.8,125.2,89.2,125,89.3z"/>
			<path class="st3" d="M53.7,89.3c0.1,0.1,0.5-0.1,1-0.4c0.5-0.3,1.3-0.7,2.2-1.1c0.9-0.4,2.1-0.7,3.3-0.8c1.3-0.1,2.6-0.1,4,0
				c1.4,0.1,2.9,0.3,4.3,0.5c1.4,0.2,2.8,0.3,3.9,0.5c2.4,0.3,4.1,0.5,4.4,0.5c1.4,0.1,2.7-1,2.8-2.4c0.1-1.4-1-2.6-2.5-2.7
				c-0.4,0-2.1-0.1-4.5-0.1c-1.2,0-2.5,0-4,0c-1.4,0-3,0-4.6,0.1c-1.6,0.1-3.2,0.4-4.6,0.8c-1.5,0.5-2.7,1.1-3.7,1.9
				c-1,0.7-1.6,1.5-2,2.1C53.7,88.8,53.6,89.2,53.7,89.3z"/>
		</g>
		<path class="st3" d="M42.3,94.2c2.8-13.5,9.5-25,15.7-37.2c3,7.9,9.9,14.2,18,16.5c7.5,2.2,15.6,1.1,23.4,1.4
			c6.9,0.3,13.8,1.8,20.3,4.4c-0.7-3.6-2.2-7.1-4.2-10.2c0.5,0.7,7.2,2,8.6,2.7c2.3,1.3,5.4,3.4,7,5.6c2.6,3.6,4.5,11.2,4.7,15.7
			l2.1-3.1c0.9-32.2,2.7-69.3-48.7-69.3c-49.8,0-49.3,39.6-48.6,69.3C40.6,90.1,42.3,94.2,42.3,94.2z"/>
	</g>
</g>
</svg>
