<?xml version="1.0" encoding="utf-8"?>
<!-- Generator: Adobe Illustrator 20.1.0, SVG Export Plug-In . SVG Version: 6.00 Build 0)  -->
<svg version="1.1" id="Layer_1" xmlns="http://www.w3.org/2000/svg" xmlns:xlink="http://www.w3.org/1999/xlink" x="0px" y="0px"
	 viewBox="0 0 177 207.7" style="enable-background:new 0 0 177 207.7;" xml:space="preserve">
<style type="text/css">
	.st0{fill:#E0A379;}
	.st1{fill:#B27D59;}
	.st2{fill:#FCC299;}
	.st3{fill:#F9A66E;}
	.st4{fill:#F37A6E;}
	.st5{fill:#FFFFFF;}
	.st6{fill:#EB6934;}
	.st7{display:none;fill:#EB6934;}
	.st8{clip-path:url(#SVGID_4_);}
	.st9{fill:#6B3516;}
	.st10{fill:#010101;}
	.st11{clip-path:url(#SVGID_6_);}
	.st12{fill:#4C1D16;}
	.st13{fill:#EDAF85;}
	.st14{clip-path:url(#SVGID_8_);}
	.st15{fill:#E66265;}
	.st16{fill:#1A1819;}
	.st17{fill:#E1E2E1;}
	.st18{fill:#F5F6F6;}
</style>
<g>
	<defs>
		<path id="SVGID_1_" d="M142.3,45L142.3,45L142.3,45c-7.3-23.5-28.7-41.3-54.1-41.3c-25.3,0-46.8,17.8-54.1,41.2l0,0l0,0
			C33.8,46,4.6,203.1,4.6,203.1c19.6,0,34.5-14.7,34.5-34.3l19.1-7.6c0,0,9.3,0,5.7-18.3c-16.9-9.2-19.4-23.7-19.4-23.7l-1-4.7
			l1.6-43.4h86.4l2.4,43.8l-0.9,4.3c0,0-1.6,14-19.7,23.9c-5.2,16.9,5.4,18.1,5.4,18.1l21.4,8.6c0,19.6,12.3,33.3,31.8,33.3
			C172,203.1,142.7,46.1,142.3,45z"/>
	</defs>
	<clipPath id="SVGID_2_">
		<use xlink:href="#SVGID_1_"  style="overflow:visible;"/>
	</clipPath>
</g>
<g>
	<g>
		<path class="st0" d="M161.3,199.9c-2.6-8.3-5.2-15.1-7.8-19.7c-0.2-0.3-0.3-0.7-0.5-1c-0.4-0.7-0.9-1.4-1.4-2
			c-0.7-1-1.5-1.8-2.2-2.4c0,0-0.1,0-0.1-0.1c-12-10.9-38.8-14.5-38.8-21.1c0-7.5,0-31.9,0-31.9H63.4c0,0,0,24.4,0,31.9
			c0,6.6-26.7,10.2-38.7,21.1c-0.1,0.1-0.1,0.1-0.2,0.2c-0.9,0.6-1.7,1.6-2.6,2.9c-0.4,0.5-0.7,1-1,1.5c-0.1,0.2-0.2,0.4-0.3,0.7
			c-2.6,4.6-5.3,11.6-8,20.1H161.3z"/>
		<path class="st1" d="M110.4,145.2c0-10,0-23.5,0-23.5H63.4c0,0,0,20.6,0,29.7c1.2-3.4,9,0.7,19.3,2.8
			C93.3,156.3,105.3,152.9,110.4,145.2z"/>
	</g>
	<g>
		<g>
			<g>
				<path class="st2" d="M46.9,93.7c0,0-6.6-8.3-13.3-4.7c-11.4,6.2-1.6,31.9,12.4,27L46.9,93.7z"/>
				<path class="st3" d="M44.3,95.4c0,0-4.6-5.3-9.2-3c-7.8,3.9,1.8,22.4,8.7,17.2L44.3,95.4z"/>
			</g>
			<g>
				<path class="st2" d="M126,93.7c0,0,6.6-8.3,13.3-4.7c11.4,6.2,1.6,31.9-12.4,27L126,93.7z"/>
				<path class="st3" d="M128.6,95.4c0,0,4.6-5.3,9.2-3c7.8,3.9-1.8,22.4-8.7,17.2L128.6,95.4z"/>
			</g>
		</g>
		<path class="st0" d="M87.1,28.9c-24.9,0.3-45.1,14.9-45.1,48.6c0,14.9,0.4,40,6.2,49.4s13.5,13.3,19.9,17c6.2,3.6,11.7,6.1,19,6.2
			c7.4-0.1,12.9-2.6,19-6.2c6.4-3.7,14.1-7.7,19.9-17c5.8-9.3,6.2-34.5,6.2-49.4C132.2,43.9,112.1,29.2,87.1,28.9z"/>
		<g>
			<path class="st4" d="M91.2,125.6c-1.9,0.3-2.2,0.5-4,0.5c-1.8,0-2.1-0.2-4-0.5c-4-0.8-6.4,0.2-11.5,0.4
				c2.6,4.8,8.6,10.3,15.5,10.3c6.9,0,12.8-5.5,15.5-10.3C97.6,125.8,95.2,124.8,91.2,125.6z"/>
			<path class="st5" d="M87.2,132.1c-6.6,0-11.8-4.4-11.8-4.4s9.9,0,12.2,0c1.2,0,11.5,0.2,11.5,0.2S93.8,132.1,87.2,132.1z"/>
		</g>
		<path class="st6" d="M135.4,79.2L132,98.5l-0.8,0c0.7-12.3,5.4-61.5-44.8-61.5s-44,48.8-43.3,61.5l-0.8,0l-3-18.5
			c0,0-8.8-57.9,49.4-57.9S135.4,79.2,135.4,79.2z"/>
		<path class="st1" d="M94.9,116.7c-0.1-0.6-0.4-1-0.7-1.3c-0.3-0.3-0.6-0.5-0.8-0.6c-0.2-0.1-0.3-0.1-0.4-0.1
			c-0.1,0.1,0.3,0.5,0.6,1.1c0.2,0.3,0.3,0.7,0.4,1.2c0.1,0.4,0,1-0.2,1.3c-0.2,0.4-0.6,0.6-0.9,0.6c-0.2,0-0.3-0.1-0.5-0.2
			c-0.2-0.1-0.4-0.2-0.6-0.3c-0.2-0.1-0.3-0.1-0.5-0.1c0.3-0.5,0.3-0.8,0.3-0.8c-0.1-0.1-0.5,0.4-1.2,1.1c-0.4,0.3-0.8,0.7-1.4,1
			c-0.6,0.3-1.2,0.5-1.9,0.5c-0.7,0-1.4-0.2-1.9-0.4c-0.6-0.3-1-0.6-1.4-0.9c-0.7-0.6-1.1-1.1-1.3-1c-0.1,0,0,0.3,0.2,0.6
			c-0.1,0-0.3,0-0.4,0.1c-0.2,0.1-0.4,0.2-0.6,0.3c-0.2,0.1-0.4,0.2-0.5,0.2c-0.3,0.1-0.7-0.2-0.9-0.6c-0.2-0.4-0.2-0.9-0.2-1.3
			c0.1-0.4,0.2-0.8,0.4-1.2c0.4-0.6,0.7-1,0.6-1.1c0,0-0.2,0-0.4,0.1c-0.2,0.1-0.5,0.3-0.8,0.6c-0.3,0.3-0.6,0.8-0.7,1.3
			c-0.1,0.6-0.2,1.3,0.2,1.9c0.2,0.3,0.4,0.6,0.8,0.8c0.3,0.2,0.7,0.2,1.1,0.1c0.4-0.1,0.6-0.3,0.8-0.4c0.2-0.2,0.3-0.3,0.5-0.4
			c0.2-0.1,0.3-0.2,0.4-0.2c0.1,0.1,0.2,0.2,0.3,0.4c0.4,0.4,0.8,0.8,1.5,1.2c0.6,0.3,1.4,0.6,2.3,0.6c0.9,0,1.7-0.3,2.3-0.7
			c0.6-0.4,1.1-0.8,1.4-1.2c0.1-0.1,0.1-0.2,0.2-0.3c0.1,0,0.3,0.1,0.5,0.2c0.1,0.1,0.3,0.2,0.5,0.4c0.2,0.1,0.4,0.3,0.8,0.4
			c0.4,0.1,0.8,0,1.1-0.1c0.3-0.2,0.6-0.5,0.8-0.8C95.1,118,95,117.3,94.9,116.7z"/>
		<path class="st7" d="M128.9,60.6c-3.4,4.5-1.4,12.1,3.8,14.3c-3,1.2-4.4,5.3-2.7,8c1.6,2.8,5.9,3.5,8.4,1.5s2.6-6.3,0.2-8.5
			c1.8,1.4,4.7,0.7,6.1-1.1c1.4-1.8,1.6-4.4,0.9-6.6c-0.6-2.2-2-4.1-3.3-6c4.5-1.8,7.4-6.8,6.6-11.6c-0.7-4.7-5-8.7-9.8-9
			c1.1-2.3,0.4-5.4-1.6-7c-2-1.6-5.1-1.8-7.2-0.2c2-5.5,0.3-12.2-4.2-16c-4.5-3.8-11.4-4.4-16.5-1.4c-1.2-3.8-4.7-6.7-8.6-7.1
			c-3.9-0.4-8,1.7-9.9,5.2c-4.6-4.1-11-6-17.1-5.2c-6.1,0.9-11.7,4.5-15,9.7c-3.4-4.3-10.8-4.6-14.6-0.6c-2.6,2.8-3.4,7.1-6.5,9.4
			c-2.4,1.8-6,1.9-8.5,0.2c-2.5-1.7-3.8-5-3-8c-6,5.4-6.4,16-0.7,21.8c-1.9-0.1-3.7-0.3-5.6-0.4c1.3,7.7,6,14.8,12.6,18.9
			c-2.2,0.2-4.4,0.5-6.6,0.7c-0.8,5.3,3,10.9,8.3,12c-2.1,2.7,0,7.4,3.4,7.7c3.4,0.3,6.2-4.1,4.6-7.1c5.5,1.1,11.2-1.7,15-5.7
			c3.9-4,6.3-9.2,8.6-14.3c2.7,2.7,7,3.8,10.6,2.7c3.7-1.1,6.7-4.3,7.5-8c3,2.9,8.7,2.2,10.9-1.4c2.2,5.4,7.9,9.1,13.6,9
			c5.2-0.1,8.7-3.1,11.9-6.7C121.4,54.9,124.1,59.3,128.9,60.6z"/>
		<g>
			<g>
				<g>
					<defs>
						<path id="SVGID_3_" d="M97.6,98.2c0,0,2.8-3.7,11.2-3.7c8.4,0,10.8,3.3,10.8,3.3s-2.2,4.8-10.8,4.8S97.6,98.2,97.6,98.2z"/>
					</defs>
					<use xlink:href="#SVGID_3_"  style="overflow:visible;fill:#FFFFFF;"/>
					<clipPath id="SVGID_4_">
						<use xlink:href="#SVGID_3_"  style="overflow:visible;"/>
					</clipPath>
					<g class="st8">
						<circle class="st9" cx="108.8" cy="97.5" r="5.7"/>
						<circle class="st10" cx="108.8" cy="97.5" r="3.2"/>
						<circle class="st5" cx="110.2" cy="96.1" r="0.6"/>
					</g>
				</g>
				<path class="st1" d="M97.6,98.2c0,0,1.2-5.7,11.2-5.7c9.9,0,10.8,5.2,10.8,5.2C112.8,93.2,103.7,93.8,97.6,98.2z"/>
			</g>
			<g>
				<g>
					<defs>
						<path id="SVGID_5_" d="M76.7,98.2c0,0-2.8-3.7-11.2-3.7c-8.4,0-10.8,3.3-10.8,3.3s2.2,4.8,10.8,4.8
							C74.2,102.5,76.7,98.2,76.7,98.2z"/>
					</defs>
					<use xlink:href="#SVGID_5_"  style="overflow:visible;fill:#FFFFFF;"/>
					<clipPath id="SVGID_6_">
						<use xlink:href="#SVGID_5_"  style="overflow:visible;"/>
					</clipPath>
					<g class="st11">
						<circle class="st9" cx="65.5" cy="97.5" r="5.7"/>
						<circle class="st10" cx="65.5" cy="97.5" r="3.2"/>
						<circle class="st5" cx="66.9" cy="96.1" r="0.6"/>
					</g>
				</g>
				<path class="st1" d="M76.7,98.2c0,0-1.2-5.7-11.2-5.7c-9.9,0-10.8,5.2-10.8,5.2C61.5,93.2,70.6,93.8,76.7,98.2z"/>
			</g>
		</g>
		<g>
			<path class="st12" d="M121,88.1c-0.1,0.1-0.4-0.1-0.8-0.3c-0.4-0.3-1.1-0.6-1.8-0.9c-0.8-0.3-1.7-0.5-2.8-0.6
				c-1-0.1-2.2-0.1-3.3,0c-1.2,0.1-2.4,0.3-3.5,0.4c-1.2,0.1-2.3,0.3-3.3,0.4c-2,0.2-3.4,0.4-3.7,0.4c-1.2,0.1-2.2-0.8-2.3-1.9
				c-0.1-1.1,0.8-2.1,2-2.2c0.3,0,1.7,0,3.7-0.1c1,0,2.1,0,3.3,0c1.2,0,2.5,0,3.8,0.1c1.3,0.1,2.6,0.3,3.8,0.7
				c1.2,0.4,2.3,0.9,3.1,1.5c0.8,0.6,1.4,1.2,1.7,1.7C121,87.7,121.1,88,121,88.1z"/>
			<path class="st12" d="M53.3,88.1c0.1,0.1,0.4-0.1,0.8-0.3c0.4-0.3,1.1-0.6,1.8-0.9c0.8-0.3,1.7-0.5,2.8-0.6c1-0.1,2.2-0.1,3.3,0
				c1.2,0.1,2.4,0.3,3.5,0.4c1.2,0.1,2.3,0.3,3.3,0.4c2,0.2,3.4,0.4,3.7,0.4c1.2,0.1,2.2-0.8,2.3-1.9c0.1-1.1-0.8-2.1-2-2.2
				c-0.3,0-1.7,0-3.7-0.1c-1,0-2.1,0-3.3,0c-1.2,0-2.5,0-3.8,0.1c-1.3,0.1-2.6,0.3-3.8,0.7c-1.2,0.4-2.3,0.9-3.1,1.5
				c-0.8,0.6-1.4,1.2-1.7,1.7C53.2,87.7,53.2,88,53.3,88.1z"/>
		</g>
		<g>
			<ellipse class="st13" cx="58.3" cy="111.8" rx="9.4" ry="4.9"/>
			<ellipse class="st13" cx="116" cy="111.8" rx="9.4" ry="4.9"/>
		</g>
	</g>
	<g>
		<g>
			<defs>
				<path id="SVGID_7_" d="M138,48.4L138,48.4L138,48.4c-6.9-22.2-27.2-39.1-51.3-39.1c-24,0-44.4,16.9-51.2,39.1l0,0l0,0
					C35.2,49.4,7.4,198.3,7.4,198.3c18.5,0,32.7-13.9,32.7-32.5l18.1-7.2c0,0,8.8,0,5.4-17.3c-16-8.7-18.4-22.5-18.4-22.5l-0.9-4.4
					l1.5-41.2h81.9l2.3,41.6l-0.8,4.1c0,0-1.5,13.3-18.6,22.6c-4.9,16.1,5.1,17.1,5.1,17.1l20.3,8.2c0,18.5,11.6,31.5,30.2,31.5
					C166.1,198.3,138.3,49.5,138,48.4z"/>
			</defs>
			<use xlink:href="#SVGID_7_"  style="overflow:visible;fill:#E6E7E7;"/>
			<clipPath id="SVGID_8_">
				<use xlink:href="#SVGID_7_"  style="overflow:visible;"/>
			</clipPath>
			<g class="st14">
				<g>
					<g>
						<g>
							<rect x="161.8" y="-88.6" class="st15" width="3.4" height="251.9"/>
							<rect x="171.9" y="-88.6" class="st15" width="3.4" height="251.9"/>
							<rect x="182" y="-88.6" class="st15" width="3.4" height="251.9"/>
							<rect x="192.1" y="-88.6" class="st15" width="3.4" height="251.9"/>
							<rect x="202.1" y="-88.6" class="st15" width="3.4" height="251.9"/>
							<rect x="212.2" y="-88.6" class="st15" width="3.4" height="251.9"/>
							<rect x="222.3" y="-88.6" class="st15" width="3.4" height="251.9"/>
							<rect x="232.4" y="-88.6" class="st15" width="3.4" height="251.9"/>
							<rect x="242.4" y="-88.6" class="st15" width="3.4" height="251.9"/>
							<rect x="252.5" y="-88.6" class="st15" width="3.4" height="251.9"/>
							<rect x="262.6" y="-88.6" class="st15" width="3.4" height="251.9"/>
							<rect x="272.7" y="-88.6" class="st15" width="3.4" height="251.9"/>
							<rect x="282.7" y="-88.6" class="st15" width="3.4" height="251.9"/>
							<rect x="292.8" y="-88.6" class="st15" width="3.4" height="251.9"/>
							<rect x="302.9" y="-88.6" class="st15" width="3.4" height="251.9"/>
							<rect x="313" y="-88.6" class="st15" width="3.4" height="251.9"/>
							<rect x="323" y="-88.6" class="st15" width="3.4" height="251.9"/>
							<rect x="333.1" y="-88.6" class="st15" width="3.4" height="251.9"/>
							<rect x="343.2" y="-88.6" class="st15" width="3.4" height="251.9"/>
							<rect x="353.3" y="-88.6" class="st15" width="3.4" height="251.9"/>
						</g>
						<g>
							<rect x="133.3" y="161.6" class="st15" width="251.9" height="3.4"/>
							<rect x="133.3" y="151.5" class="st15" width="251.9" height="3.4"/>
							<rect x="133.3" y="141.4" class="st15" width="251.9" height="3.4"/>
							<rect x="133.3" y="131.3" class="st15" width="251.9" height="3.4"/>
							<rect x="133.3" y="121.3" class="st15" width="251.9" height="3.4"/>
							<rect x="133.3" y="111.2" class="st15" width="251.9" height="3.4"/>
							<rect x="133.3" y="101.1" class="st15" width="251.9" height="3.4"/>
							<rect x="133.3" y="91" class="st15" width="251.9" height="3.4"/>
							<rect x="133.3" y="81" class="st15" width="251.9" height="3.4"/>
							<rect x="133.3" y="70.9" class="st15" width="251.9" height="3.4"/>
							<rect x="133.3" y="60.8" class="st15" width="251.9" height="3.4"/>
							<rect x="133.3" y="50.7" class="st15" width="251.9" height="3.4"/>
							<rect x="133.3" y="40.7" class="st15" width="251.9" height="3.4"/>
							<rect x="133.3" y="30.6" class="st15" width="251.9" height="3.4"/>
							<rect x="133.3" y="20.5" class="st15" width="251.9" height="3.4"/>
							<rect x="133.3" y="10.4" class="st15" width="251.9" height="3.4"/>
							<rect x="133.3" y="0.4" class="st15" width="251.9" height="3.4"/>
							<rect x="133.3" y="-9.7" class="st15" width="251.9" height="3.4"/>
							<rect x="133.3" y="-19.8" class="st15" width="251.9" height="3.4"/>
							<rect x="133.3" y="-29.9" class="st15" width="251.9" height="3.4"/>
							<rect x="133.3" y="-39.9" class="st15" width="251.9" height="3.4"/>
							<rect x="133.3" y="-50" class="st15" width="251.9" height="3.4"/>
							<rect x="133.3" y="-60.1" class="st15" width="251.9" height="3.4"/>
							<rect x="133.3" y="-70.2" class="st15" width="251.9" height="3.4"/>
							<rect x="133.3" y="-80.2" class="st15" width="251.9" height="3.4"/>
							<rect x="133.3" y="-90.3" class="st15" width="251.9" height="3.4"/>
						</g>
					</g>
				</g>
				<g>
					<g>
						<g>
							<rect x="161.8" y="112.9" class="st15" width="3.4" height="251.9"/>
							<rect x="171.9" y="112.9" class="st15" width="3.4" height="251.9"/>
							<rect x="182" y="112.9" class="st15" width="3.4" height="251.9"/>
							<rect x="192.1" y="112.9" class="st15" width="3.4" height="251.9"/>
							<rect x="202.1" y="112.9" class="st15" width="3.4" height="251.9"/>
							<rect x="212.2" y="112.9" class="st15" width="3.4" height="251.9"/>
							<rect x="222.3" y="112.9" class="st15" width="3.4" height="251.9"/>
							<rect x="232.4" y="112.9" class="st15" width="3.4" height="251.9"/>
							<rect x="242.4" y="112.9" class="st15" width="3.4" height="251.9"/>
							<rect x="252.5" y="112.9" class="st15" width="3.4" height="251.9"/>
							<rect x="262.6" y="112.9" class="st15" width="3.4" height="251.9"/>
							<rect x="272.7" y="112.9" class="st15" width="3.4" height="251.9"/>
							<rect x="282.7" y="112.9" class="st15" width="3.4" height="251.9"/>
							<rect x="292.8" y="112.9" class="st15" width="3.4" height="251.9"/>
							<rect x="302.9" y="112.9" class="st15" width="3.4" height="251.9"/>
							<rect x="313" y="112.9" class="st15" width="3.4" height="251.9"/>
							<rect x="323" y="112.9" class="st15" width="3.4" height="251.9"/>
							<rect x="333.1" y="112.9" class="st15" width="3.4" height="251.9"/>
							<rect x="343.2" y="112.9" class="st15" width="3.4" height="251.9"/>
							<rect x="353.3" y="112.9" class="st15" width="3.4" height="251.9"/>
						</g>
						<g>
							<rect x="133.3" y="363.1" class="st15" width="251.9" height="3.4"/>
							<rect x="133.3" y="353" class="st15" width="251.9" height="3.4"/>
							<rect x="133.3" y="342.9" class="st15" width="251.9" height="3.4"/>
							<rect x="133.3" y="332.8" class="st15" width="251.9" height="3.4"/>
							<rect x="133.3" y="322.8" class="st15" width="251.9" height="3.4"/>
							<rect x="133.3" y="312.7" class="st15" width="251.9" height="3.4"/>
							<rect x="133.3" y="302.6" class="st15" width="251.9" height="3.4"/>
							<rect x="133.3" y="292.5" class="st15" width="251.9" height="3.4"/>
							<rect x="133.3" y="282.5" class="st15" width="251.9" height="3.4"/>
							<rect x="133.3" y="272.4" class="st15" width="251.9" height="3.4"/>
							<rect x="133.3" y="262.3" class="st15" width="251.9" height="3.4"/>
							<rect x="133.3" y="252.2" class="st15" width="251.9" height="3.4"/>
							<rect x="133.3" y="242.2" class="st15" width="251.9" height="3.4"/>
							<rect x="133.3" y="232.1" class="st15" width="251.9" height="3.4"/>
							<rect x="133.3" y="222" class="st15" width="251.9" height="3.4"/>
							<rect x="133.3" y="211.9" class="st15" width="251.9" height="3.4"/>
							<rect x="133.3" y="201.9" class="st15" width="251.9" height="3.4"/>
							<rect x="133.3" y="191.8" class="st15" width="251.9" height="3.4"/>
							<rect x="133.3" y="181.7" class="st15" width="251.9" height="3.4"/>
							<rect x="133.3" y="171.6" class="st15" width="251.9" height="3.4"/>
							<rect x="133.3" y="161.6" class="st15" width="251.9" height="3.4"/>
							<rect x="133.3" y="151.5" class="st15" width="251.9" height="3.4"/>
							<rect x="133.3" y="141.4" class="st15" width="251.9" height="3.4"/>
							<rect x="133.3" y="131.3" class="st15" width="251.9" height="3.4"/>
							<rect x="133.3" y="121.3" class="st15" width="251.9" height="3.4"/>
							<rect x="133.3" y="111.2" class="st15" width="251.9" height="3.4"/>
						</g>
					</g>
				</g>
				<g>
					<g>
						<g>
							<rect x="-39.7" y="-88.6" class="st15" width="3.4" height="251.9"/>
							<rect x="-29.6" y="-88.6" class="st15" width="3.4" height="251.9"/>
							<rect x="-19.5" y="-88.6" class="st15" width="3.4" height="251.9"/>
							<rect x="-9.4" y="-88.6" class="st15" width="3.4" height="251.9"/>
							<rect x="0.6" y="-88.6" class="st15" width="3.4" height="251.9"/>
							<rect x="10.7" y="-88.6" class="st15" width="3.4" height="251.9"/>
							<rect x="20.8" y="-88.6" class="st15" width="3.4" height="251.9"/>
							<rect x="30.9" y="-88.6" class="st15" width="3.4" height="251.9"/>
							<rect x="40.9" y="-88.6" class="st15" width="3.4" height="251.9"/>
							<rect x="51" y="-88.6" class="st15" width="3.4" height="251.9"/>
							<rect x="61.1" y="-88.6" class="st15" width="3.4" height="251.9"/>
							<rect x="71.2" y="-88.6" class="st15" width="3.4" height="251.9"/>
							<rect x="81.2" y="-88.6" class="st15" width="3.4" height="251.9"/>
							<rect x="91.3" y="-88.6" class="st15" width="3.4" height="251.9"/>
							<rect x="101.4" y="-88.6" class="st15" width="3.4" height="251.9"/>
							<rect x="111.5" y="-88.6" class="st15" width="3.4" height="251.9"/>
							<rect x="121.5" y="-88.6" class="st15" width="3.4" height="251.9"/>
							<rect x="131.6" y="-88.6" class="st15" width="3.4" height="251.9"/>
							<rect x="141.7" y="-88.6" class="st15" width="3.4" height="251.9"/>
							<rect x="151.8" y="-88.6" class="st15" width="3.4" height="251.9"/>
						</g>
						<g>
							<rect x="-68.2" y="161.6" class="st15" width="251.9" height="3.4"/>
							<rect x="-68.2" y="151.5" class="st15" width="251.9" height="3.4"/>
							<rect x="-68.2" y="141.4" class="st15" width="251.9" height="3.4"/>
							<rect x="-68.2" y="131.3" class="st15" width="251.9" height="3.4"/>
							<rect x="-68.2" y="121.3" class="st15" width="251.9" height="3.4"/>
							<rect x="-68.2" y="111.2" class="st15" width="251.9" height="3.4"/>
							<rect x="-68.2" y="101.1" class="st15" width="251.9" height="3.4"/>
							<rect x="-68.2" y="91" class="st15" width="251.9" height="3.4"/>
							<rect x="-68.2" y="81" class="st15" width="251.9" height="3.4"/>
							<rect x="-68.2" y="70.9" class="st15" width="251.9" height="3.4"/>
							<rect x="-68.2" y="60.8" class="st15" width="251.9" height="3.4"/>
							<rect x="-68.2" y="50.7" class="st15" width="251.9" height="3.4"/>
							<rect x="-68.2" y="40.7" class="st15" width="251.9" height="3.4"/>
							<rect x="-68.2" y="30.6" class="st15" width="251.9" height="3.4"/>
							<rect x="-68.2" y="20.5" class="st15" width="251.9" height="3.4"/>
							<rect x="-68.2" y="10.4" class="st15" width="251.9" height="3.4"/>
							<rect x="-68.2" y="0.4" class="st15" width="251.9" height="3.4"/>
							<rect x="-68.2" y="-9.7" class="st15" width="251.9" height="3.4"/>
							<rect x="-68.2" y="-19.8" class="st15" width="251.9" height="3.4"/>
							<rect x="-68.2" y="-29.9" class="st15" width="251.9" height="3.4"/>
							<rect x="-68.2" y="-39.9" class="st15" width="251.9" height="3.4"/>
							<rect x="-68.2" y="-50" class="st15" width="251.9" height="3.4"/>
							<rect x="-68.2" y="-60.1" class="st15" width="251.9" height="3.4"/>
							<rect x="-68.2" y="-70.2" class="st15" width="251.9" height="3.4"/>
							<rect x="-68.2" y="-80.2" class="st15" width="251.9" height="3.4"/>
							<rect x="-68.2" y="-90.3" class="st15" width="251.9" height="3.4"/>
						</g>
					</g>
				</g>
				<g>
					<g>
						<g>
							<rect x="-39.7" y="112.9" class="st15" width="3.4" height="251.9"/>
							<rect x="-29.6" y="112.9" class="st15" width="3.4" height="251.9"/>
							<rect x="-19.5" y="112.9" class="st15" width="3.4" height="251.9"/>
							<rect x="-9.4" y="112.9" class="st15" width="3.4" height="251.9"/>
							<rect x="0.6" y="112.9" class="st15" width="3.4" height="251.9"/>
							<rect x="10.7" y="112.9" class="st15" width="3.4" height="251.9"/>
							<rect x="20.8" y="112.9" class="st15" width="3.4" height="251.9"/>
							<rect x="30.9" y="112.9" class="st15" width="3.4" height="251.9"/>
							<rect x="40.9" y="112.9" class="st15" width="3.4" height="251.9"/>
							<rect x="51" y="112.9" class="st15" width="3.4" height="251.9"/>
							<rect x="61.1" y="112.9" class="st15" width="3.4" height="251.9"/>
							<rect x="71.2" y="112.9" class="st15" width="3.4" height="251.9"/>
							<rect x="81.2" y="112.9" class="st15" width="3.4" height="251.9"/>
							<rect x="91.3" y="112.9" class="st15" width="3.4" height="251.9"/>
							<rect x="101.4" y="112.9" class="st15" width="3.4" height="251.9"/>
							<rect x="111.5" y="112.9" class="st15" width="3.4" height="251.9"/>
							<rect x="121.5" y="112.9" class="st15" width="3.4" height="251.9"/>
							<rect x="131.6" y="112.9" class="st15" width="3.4" height="251.9"/>
							<rect x="141.7" y="112.9" class="st15" width="3.4" height="251.9"/>
							<rect x="151.8" y="112.9" class="st15" width="3.4" height="251.9"/>
						</g>
						<g>
							<rect x="-68.2" y="363.1" class="st15" width="251.9" height="3.4"/>
							<rect x="-68.2" y="353" class="st15" width="251.9" height="3.4"/>
							<rect x="-68.2" y="342.9" class="st15" width="251.9" height="3.4"/>
							<rect x="-68.2" y="332.8" class="st15" width="251.9" height="3.4"/>
							<rect x="-68.2" y="322.8" class="st15" width="251.9" height="3.4"/>
							<rect x="-68.2" y="312.7" class="st15" width="251.9" height="3.4"/>
							<rect x="-68.2" y="302.6" class="st15" width="251.9" height="3.4"/>
							<rect x="-68.2" y="292.5" class="st15" width="251.9" height="3.4"/>
							<rect x="-68.2" y="282.5" class="st15" width="251.9" height="3.4"/>
							<rect x="-68.2" y="272.4" class="st15" width="251.9" height="3.4"/>
							<rect x="-68.2" y="262.3" class="st15" width="251.9" height="3.4"/>
							<rect x="-68.2" y="252.2" class="st15" width="251.9" height="3.4"/>
							<rect x="-68.2" y="242.2" class="st15" width="251.9" height="3.4"/>
							<rect x="-68.2" y="232.1" class="st15" width="251.9" height="3.4"/>
							<rect x="-68.2" y="222" class="st15" width="251.9" height="3.4"/>
							<rect x="-68.2" y="211.9" class="st15" width="251.9" height="3.4"/>
							<rect x="-68.2" y="201.9" class="st15" width="251.9" height="3.4"/>
							<rect x="-68.2" y="191.8" class="st15" width="251.9" height="3.4"/>
							<rect x="-68.2" y="181.7" class="st15" width="251.9" height="3.4"/>
							<rect x="-68.2" y="171.6" class="st15" width="251.9" height="3.4"/>
							<rect x="-68.2" y="161.6" class="st15" width="251.9" height="3.4"/>
							<rect x="-68.2" y="151.5" class="st15" width="251.9" height="3.4"/>
							<rect x="-68.2" y="141.4" class="st15" width="251.9" height="3.4"/>
							<rect x="-68.2" y="131.3" class="st15" width="251.9" height="3.4"/>
							<rect x="-68.2" y="121.3" class="st15" width="251.9" height="3.4"/>
							<rect x="-68.2" y="111.2" class="st15" width="251.9" height="3.4"/>
						</g>
					</g>
				</g>
			</g>
		</g>
		<g>
			<path class="st16" d="M139.7,56.6H33.8c-2.8,0-5-2.3-5-5c0-2.8,2.2-5,5-5h105.9c2.8,0,5,2.3,5,5
				C144.7,54.4,142.4,56.6,139.7,56.6z"/>
			<path class="st16" d="M142.2,65h-111c-2.7,0-5-2.3-5-5s2.2-5,5-5h111c2.7,0,5,2.3,5,5S145,65,142.2,65z"/>
		</g>
	</g>
	<path class="st17" d="M153.4,180.2c-0.2-0.3-0.3-0.7-0.5-1c-0.4-0.7-0.9-1.4-1.4-2c-0.7-1-1.5-1.8-2.2-2.4c0,0-0.1,0-0.1-0.1
		c-8.7-7.9-25.2-12-33.6-16.1c-6.9,8.1-17.2,13.3-28.7,13.3c-11.5,0-21.8-5.2-28.7-13.3c-8.4,4.1-24.8,8.2-33.5,16
		c-0.1,0.1-0.1,0.1-0.2,0.2c-0.9,0.6-1.7,1.6-2.6,2.9c-0.4,0.5-0.7,1-1,1.5c-0.1,0.2-0.2,0.4-0.3,0.7c-2.6,4.6-5.3,11.6-8,20.1
		h148.7C158.6,191.7,156,184.8,153.4,180.2z"/>
	<g>
		<g>
			<path class="st18" d="M116,163.4c0,0-8.5,11-28.8,11c-20.3,0-29.4-11.2-29.4-11.2l0.3-6.6c0.1-3,3.4-4.6,5.7-2.8
				c5.6,4.5,13.1,8.7,23.2,8.7c10.1,0,17.7-4.2,23.3-8.8c2.3-1.8,5.6-0.2,5.7,2.8L116,163.4z"/>
			<rect x="81.5" y="173" class="st18" width="11" height="26.9"/>
		</g>
	</g>
</g>
</svg>
