<?xml version="1.0" encoding="utf-8"?>
<!-- Generator: Adobe Illustrator 20.1.0, SVG Export Plug-In . SVG Version: 6.00 Build 0)  -->
<svg version="1.1" id="Layer_1" xmlns="http://www.w3.org/2000/svg" xmlns:xlink="http://www.w3.org/1999/xlink" x="0px" y="0px"
	 viewBox="0 0 177 207.7" style="enable-background:new 0 0 177 207.7;" xml:space="preserve">
<style type="text/css">
	.st0{fill:#EAA97D;}
	.st1{fill:#B27A54;}
	.st2{fill:#05AEB7;}
	.st3{fill:#C25E4D;}
	.st4{fill:#FFFFFF;}
	.st5{fill:#281B0F;}
	.st6{fill:#8C5D3C;}
	.st7{clip-path:url(#SVGID_2_);}
	.st8{fill:#563A18;}
	.st9{fill:#010101;}
	.st10{fill:#C58960;}
	.st11{clip-path:url(#SVGID_4_);}
	.st12{fill:#F1B287;}
</style>
<g>
	<g>
		<path class="st0" d="M167.2,204.1c-2.8-8.7-5.5-16-8.2-20.8c-0.2-0.4-0.3-0.7-0.5-1.1c-0.4-0.7-1-1.5-1.5-2.2
			c-0.8-1.1-1.6-1.9-2.3-2.5c0,0-0.1,0-0.1-0.1c-12.7-11.5-41-15.3-41-22.3c0-7.9,0-33.6,0-33.6H64c0,0,0,25.8,0,33.6
			c0,7-28.1,10.8-40.9,22.2c-0.1,0.1-0.1,0.1-0.2,0.2c-0.9,0.7-1.8,1.7-2.7,3c-0.4,0.5-0.8,1.1-1.1,1.6c-0.1,0.2-0.2,0.5-0.3,0.7
			c-2.8,4.8-5.6,12.2-8.5,21.2H167.2z"/>
		<path class="st1" d="M113.5,146.4c0-10.5,0-24.8,0-24.8H64c0,0,0,21.7,0,31.4c1.2-3.6,9.5,0.8,20.4,2.9
			C95.5,158,108.1,154.5,113.5,146.4z"/>
		<path class="st2" d="M159,183.3c-0.2-0.4-0.3-0.7-0.5-1.1c-0.4-0.7-1-1.5-1.5-2.2c-0.8-1.1-1.6-1.9-2.3-2.5c0,0-0.1,0-0.1-0.1
			c-9.2-8.3-26.5-12.6-35.4-17c-7.3,8.6-18.2,14-30.3,14c-12.1,0-23-5.4-30.3-14c-8.9,4.4-26.1,8.6-35.3,16.9
			c-0.1,0.1-0.1,0.1-0.2,0.2c-0.9,0.7-1.8,1.7-2.7,3c-0.4,0.5-0.8,1.1-1.1,1.6c-0.1,0.2-0.2,0.5-0.3,0.7c-2.8,4.8-5.6,12.2-8.5,21.2
			h156.9C164.4,195.3,161.7,188.1,159,183.3z"/>
	</g>
	<g>
		<g>
			<g>
				<path class="st0" d="M46.6,92c0,0-7-8.7-14.1-4.9c-12,6.5-1.7,33.6,13.1,28.5L46.6,92z"/>
				<path class="st1" d="M43.9,93.8c0,0-4.9-5.6-9.7-3.1c-8.2,4.1,1.9,23.6,9.2,18.1L43.9,93.8z"/>
			</g>
			<g>
				<path class="st0" d="M130,92c0,0,7-8.7,14.1-4.9c12,6.5,1.7,33.6-13.1,28.5L130,92z"/>
				<path class="st1" d="M132.7,93.8c0,0,4.9-5.6,9.7-3.1c8.2,4.1-1.9,23.6-9.2,18.1L132.7,93.8z"/>
			</g>
		</g>
		<path class="st0" d="M89,23.7C62.7,24,41.5,39.4,41.5,75c0,15.7,0.4,42.2,6.5,52.1s14.2,14,20.9,18c6.5,3.8,12.3,6.4,20.1,6.6
			c7.8-0.1,13.6-2.7,20.1-6.6c6.7-3.9,14.9-8.1,20.9-18c6.1-9.8,6.5-36.4,6.5-52.1C136.5,39.4,115.3,24,89,23.7z"/>
		<g>
			<path class="st3" d="M93.3,125.6c-2,0.3-2.3,0.5-4.2,0.5c-1.9,0-2.3-0.2-4.2-0.5c-4.2-0.9-6.8,0.2-12.1,0.4
				c2.8,5.1,9.1,10.9,16.3,10.9c7.3,0,13.6-5.8,16.3-10.9C100.1,125.9,97.5,124.8,93.3,125.6z"/>
			<path class="st4" d="M89,132.5c-7,0-12.5-4.7-12.5-4.7s10.4,0,12.9,0c1.2,0,12.1,0.2,12.1,0.2S96,132.5,89,132.5z"/>
		</g>
		<path class="st5" d="M139.9,76.7l-3.6,20.4l-0.9,0c0.7-12.9,5.7-64.9-47.2-64.9S41.8,83.6,42.6,97.1l-0.9,0l-3.2-19.5
			c0,0-9.3-61,52.1-61S139.9,76.7,139.9,76.7z"/>
		<path class="st6" d="M97.2,116.3c-0.1-0.6-0.4-1.1-0.7-1.4c-0.3-0.3-0.6-0.6-0.8-0.7c-0.2-0.1-0.4-0.2-0.4-0.1
			c-0.1,0.1,0.3,0.5,0.7,1.2c0.2,0.3,0.4,0.7,0.4,1.2c0.1,0.5,0,1-0.2,1.4c-0.2,0.4-0.6,0.6-1,0.6c-0.2,0-0.4-0.1-0.6-0.3
			c-0.2-0.1-0.4-0.3-0.6-0.3c-0.2-0.1-0.3-0.1-0.5-0.1c0.3-0.5,0.3-0.8,0.3-0.9c-0.1-0.1-0.5,0.5-1.3,1.2c-0.4,0.3-0.9,0.7-1.4,1
			c-0.6,0.3-1.3,0.5-2,0.5c-0.7,0-1.4-0.2-2-0.5c-0.6-0.3-1.1-0.6-1.5-1c-0.8-0.7-1.2-1.2-1.3-1.1c-0.1,0,0,0.3,0.2,0.7
			c-0.1,0-0.3,0-0.4,0.1c-0.2,0.1-0.4,0.2-0.6,0.3c-0.2,0.1-0.4,0.2-0.6,0.3c-0.3,0.1-0.7-0.2-1-0.6c-0.2-0.4-0.3-1-0.2-1.4
			c0.1-0.5,0.3-0.9,0.4-1.2c0.4-0.7,0.7-1,0.7-1.2c0,0-0.2,0-0.4,0.1c-0.2,0.1-0.5,0.3-0.8,0.7c-0.3,0.3-0.6,0.8-0.7,1.4
			c-0.1,0.6-0.2,1.3,0.2,2c0.2,0.3,0.5,0.6,0.8,0.8c0.3,0.2,0.8,0.3,1.1,0.1c0.4-0.1,0.6-0.3,0.8-0.5c0.2-0.2,0.4-0.3,0.5-0.4
			c0.2-0.1,0.3-0.2,0.5-0.2c0.1,0.1,0.2,0.3,0.3,0.4c0.4,0.4,0.9,0.9,1.6,1.2c0.7,0.4,1.5,0.6,2.4,0.6c0.9,0,1.7-0.3,2.4-0.7
			c0.7-0.4,1.2-0.9,1.5-1.3c0.1-0.1,0.1-0.2,0.2-0.3c0.2,0,0.3,0.1,0.5,0.2c0.1,0.1,0.3,0.2,0.5,0.4c0.2,0.2,0.4,0.3,0.8,0.5
			c0.4,0.1,0.8,0,1.1-0.1c0.3-0.2,0.6-0.5,0.8-0.8C97.4,117.6,97.3,116.9,97.2,116.3z"/>
		<path class="st5" d="M133.1,57.2c-3.6,4.8-1.5,12.7,4,15.1c-3.1,1.3-4.6,5.6-2.9,8.5c1.7,2.9,6.2,3.7,8.8,1.6
			c2.6-2.1,2.8-6.7,0.2-9c1.9,1.5,5,0.8,6.5-1.2c1.5-1.9,1.7-4.6,1-6.9c-0.7-2.3-2.1-4.4-3.5-6.3c4.7-1.9,7.8-7.2,7-12.2
			c-0.8-5-5.3-9.1-10.4-9.5c1.1-2.5,0.4-5.7-1.7-7.4c-2.1-1.7-5.4-1.8-7.6-0.3c2.2-5.8,0.3-12.9-4.5-16.8c-4.7-4-12-4.6-17.4-1.5
			c-1.2-4-5-7-9.1-7.4c-4.1-0.4-8.4,1.8-10.4,5.4c-4.8-4.3-11.6-6.4-18-5.5c-6.4,0.9-12.3,4.8-15.8,10.2C55.9,9.5,48,9.2,44.1,13.5
			c-2.7,3-3.6,7.5-6.9,9.9c-2.6,1.9-6.3,2-9,0.3c-2.7-1.8-4-5.3-3.2-8.4c-6.4,5.7-6.7,16.9-0.7,23c-2-0.2-3.9-0.3-5.9-0.5
			c1.3,8.1,6.3,15.6,13.3,20c-2.3,0.2-4.7,0.5-7,0.7c-0.9,5.6,3.2,11.5,8.7,12.7c-2.2,2.9,0,7.8,3.6,8.1c3.6,0.3,6.6-4.3,4.8-7.5
			c5.8,1.1,11.8-1.8,15.8-6.1c4.1-4.3,6.6-9.7,9.1-15.1c2.9,2.8,7.3,4,11.2,2.8c3.9-1.1,7-4.5,7.9-8.4c3.2,3.1,9.2,2.4,11.5-1.4
			c2.3,5.7,8.3,9.6,14.4,9.4c5.4-0.1,9.2-3.2,12.6-7C125.2,51.1,128,55.8,133.1,57.2z"/>
		<g>
			<g>
				<g>
					<defs>
						<path id="SVGID_1_" d="M100,96.7c0,0,2.9-3.9,11.8-3.9c8.9,0,11.4,3.4,11.4,3.4s-2.3,5.1-11.4,5.1S100,96.7,100,96.7z"/>
					</defs>
					<use xlink:href="#SVGID_1_"  style="overflow:visible;fill:#FFFFFF;"/>
					<clipPath id="SVGID_2_">
						<use xlink:href="#SVGID_1_"  style="overflow:visible;"/>
					</clipPath>
					<g class="st7">
						<circle class="st8" cx="111.8" cy="96.1" r="6"/>
						<circle class="st9" cx="111.8" cy="96.1" r="3.4"/>
						<circle class="st4" cx="113.3" cy="94.6" r="0.7"/>
					</g>
				</g>
				<path class="st10" d="M100,96.7c0,0,1.3-6,11.8-6c10.5,0,11.4,5.5,11.4,5.5C116.1,91.5,106.5,92.1,100,96.7z"/>
			</g>
			<g>
				<g>
					<defs>
						<path id="SVGID_3_" d="M78,96.7c0,0-2.9-3.9-11.8-3.9c-8.9,0-11.4,3.4-11.4,3.4s2.3,5.1,11.4,5.1C75.4,101.3,78,96.7,78,96.7z
							"/>
					</defs>
					<use xlink:href="#SVGID_3_"  style="overflow:visible;fill:#FFFFFF;"/>
					<clipPath id="SVGID_4_">
						<use xlink:href="#SVGID_3_"  style="overflow:visible;"/>
					</clipPath>
					<g class="st11">
						<circle class="st8" cx="66.2" cy="96.1" r="6"/>
						<circle class="st9" cx="66.2" cy="96.1" r="3.4"/>
						<circle class="st4" cx="67.7" cy="94.6" r="0.7"/>
					</g>
				</g>
				<path class="st10" d="M78,96.7c0,0-1.3-6-11.8-6c-10.5,0-11.4,5.5-11.4,5.5C61.9,91.5,71.5,92.1,78,96.7z"/>
			</g>
		</g>
		<g>
			<path class="st5" d="M124.7,86.1c-0.1,0.1-0.4-0.1-0.9-0.3c-0.5-0.3-1.1-0.6-2-0.9c-0.8-0.3-1.8-0.6-2.9-0.7
				c-1.1-0.1-2.3-0.1-3.5,0c-1.2,0.1-2.5,0.3-3.7,0.4c-1.2,0.1-2.4,0.3-3.4,0.4c-2.1,0.2-3.6,0.4-3.9,0.4c-1.3,0.1-2.3-0.8-2.4-2.1
				c-0.1-1.2,0.9-2.3,2.1-2.3c0.3,0,1.8,0,3.9-0.1c1,0,2.2,0,3.5,0c1.2,0,2.6,0,4,0.1c1.4,0.1,2.8,0.3,4,0.7c1.3,0.4,2.4,1,3.2,1.6
				c0.8,0.6,1.4,1.3,1.7,1.8C124.8,85.7,124.8,86,124.7,86.1z"/>
			<path class="st5" d="M53.3,86.1c0.1,0.1,0.4-0.1,0.9-0.3c0.5-0.3,1.1-0.6,2-0.9c0.8-0.3,1.8-0.6,2.9-0.7c1.1-0.1,2.3-0.1,3.5,0
				c1.2,0.1,2.5,0.3,3.7,0.4c1.2,0.1,2.4,0.3,3.4,0.4c2.1,0.2,3.6,0.4,3.9,0.4c1.3,0.1,2.3-0.8,2.4-2.1c0.1-1.2-0.9-2.3-2.1-2.3
				c-0.3,0-1.8,0-3.9-0.1c-1,0-2.2,0-3.5,0c-1.2,0-2.6,0-4,0.1c-1.4,0.1-2.8,0.3-4,0.7c-1.3,0.4-2.4,1-3.2,1.6
				c-0.8,0.6-1.4,1.3-1.7,1.8C53.3,85.7,53.2,86,53.3,86.1z"/>
		</g>
		<g>
			<ellipse class="st12" cx="58.6" cy="111.1" rx="9.9" ry="5.1"/>
			<ellipse class="st12" cx="119.4" cy="111.1" rx="9.9" ry="5.1"/>
		</g>
	</g>
</g>
</svg>
