<?xml version="1.0" encoding="utf-8"?>
<!-- Generator: Adobe Illustrator 20.1.0, SVG Export Plug-In . SVG Version: 6.00 Build 0)  -->
<svg version="1.1" id="Layer_1" xmlns="http://www.w3.org/2000/svg" xmlns:xlink="http://www.w3.org/1999/xlink" x="0px" y="0px"
	 viewBox="0 0 177 207.7" style="enable-background:new 0 0 177 207.7;" xml:space="preserve">
<style type="text/css">
	.st0{fill:#B77E58;}
	.st1{fill:#8A6955;}
	.st2{fill:#EDB33B;}
	.st3{fill:#734F37;}
	.st4{fill:#614334;}
	.st5{fill:#C48A63;}
	.st6{fill:#3E2D23;}
	.st7{clip-path:url(#SVGID_4_);}
	.st8{fill:#512D15;}
	.st9{fill:#010101;}
	.st10{fill:#FFFFFF;}
	.st11{fill:#825739;}
	.st12{clip-path:url(#SVGID_6_);}
	.st13{fill:#C6613E;}
</style>
<g>
	<defs>
		<path id="SVGID_1_" d="M142.3,45L142.3,45L142.3,45c-7.3-23.5-28.7-41.3-54.1-41.3c-25.3,0-46.8,17.8-54.1,41.2l0,0l0,0
			C33.8,46,4.6,203.1,4.6,203.1c19.6,0,34.5-14.7,34.5-34.3l19.1-7.6c0,0,9.3,0,5.7-18.3c-16.9-9.2-19.4-23.7-19.4-23.7l-1-4.7
			l1.6-43.4h86.4l2.4,43.8l-0.9,4.3c0,0-1.6,14-19.7,23.9c-5.2,16.9,5.4,18.1,5.4,18.1l21.4,8.6c0,19.6,12.3,33.3,31.8,33.3
			C172,203.1,142.7,46.1,142.3,45z"/>
	</defs>
	<clipPath id="SVGID_2_">
		<use xlink:href="#SVGID_1_"  style="overflow:visible;"/>
	</clipPath>
</g>
<g>
	<g>
		<path class="st0" d="M165.4,202.2c-2.8-8.7-5.5-16-8.2-20.8c-0.2-0.4-0.3-0.7-0.5-1.1c-0.4-0.7-1-1.5-1.5-2.2
			c-0.8-1.1-1.6-1.9-2.3-2.5c0,0-0.1,0-0.1-0.1c-12.7-11.5-41-15.3-41-22.3c0-7.9,0-33.6,0-33.6H62.2c0,0,0,25.8,0,33.6
			c0,7-28.1,10.8-40.9,22.2c-0.1,0.1-0.1,0.1-0.2,0.2c-0.9,0.7-1.8,1.7-2.7,3c-0.4,0.5-0.8,1.1-1.1,1.6c-0.1,0.2-0.2,0.5-0.3,0.7
			c-2.8,4.8-5.6,12.2-8.5,21.2H165.4z"/>
		<path class="st1" d="M111.7,144.5c0-10.5,0-24.8,0-24.8H62.2c0,0,0,21.7,0,31.4c1.2-3.6,9.5,0.8,20.4,2.9
			C93.7,156.1,106.3,152.6,111.7,144.5z"/>
		<path class="st2" d="M157.1,181.4c-0.2-0.4-0.3-0.7-0.5-1.1c-0.4-0.7-1-1.5-1.5-2.2c-0.8-1.1-1.6-1.9-2.3-2.5c0,0-0.1,0-0.1-0.1
			c-9.2-8.3-26.5-12.6-35.4-17c-7.3,8.6-18.2,14-30.3,14c-12.1,0-23-5.4-30.3-14c-8.9,4.4-26.1,8.6-35.3,16.9
			c-0.1,0.1-0.1,0.1-0.2,0.2c-0.9,0.7-1.8,1.7-2.7,3c-0.4,0.5-0.8,1.1-1.1,1.6c-0.1,0.2-0.2,0.5-0.3,0.7c-2.8,4.8-5.6,12.2-8.5,21.2
			h156.9C162.6,193.4,159.9,186.2,157.1,181.4z"/>
	</g>
	<g>
		<g>
			<g>
				<path class="st0" d="M43.6,90.1c0,0-7-8.7-14.1-4.9c-12,6.5-1.7,33.6,13.1,28.5L43.6,90.1z"/>
				<path class="st3" d="M40.9,91.9c0,0-4.9-5.6-9.7-3.1c-8.2,4.1,1.9,23.6,9.2,18.1L40.9,91.9z"/>
			</g>
			<g>
				<path class="st0" d="M127.1,90.1c0,0,7-8.7,14.1-4.9c12,6.5,1.7,33.6-13.1,28.5L127.1,90.1z"/>
				<path class="st3" d="M129.7,91.9c0,0,4.9-5.6,9.7-3.1c8.2,4.1-1.9,23.6-9.2,18.1L129.7,91.9z"/>
			</g>
		</g>
		<path class="st0" d="M86,21.8c-26.3,0.3-47.5,15.7-47.5,51.3c0,15.7,0.4,42.2,6.5,52.1c6.1,9.8,14.2,14,20.9,18
			c6.5,3.8,12.3,6.4,20.1,6.6c7.8-0.1,13.6-2.7,20.1-6.6c6.7-3.9,14.9-8.1,20.9-18c6.1-9.8,6.5-36.4,6.5-52.1
			C133.6,37.5,112.3,22.1,86,21.8z"/>
		<path class="st4" d="M94.2,113.3c-0.1-0.6-0.4-1.1-0.7-1.4c-0.3-0.3-0.6-0.6-0.8-0.7c-0.2-0.1-0.4-0.2-0.4-0.1
			c-0.1,0.1,0.3,0.5,0.7,1.2c0.2,0.3,0.4,0.7,0.4,1.2c0.1,0.5,0,1-0.2,1.4c-0.2,0.4-0.6,0.6-1,0.6c-0.2,0-0.4-0.1-0.6-0.3
			c-0.2-0.1-0.4-0.3-0.6-0.3c-0.2-0.1-0.3-0.1-0.5-0.1c0.3-0.5,0.3-0.8,0.3-0.9c-0.1-0.1-0.5,0.5-1.3,1.2c-0.4,0.3-0.9,0.7-1.4,1
			c-0.6,0.3-1.3,0.5-2,0.5c-0.7,0-1.4-0.2-2-0.5c-0.6-0.3-1.1-0.6-1.5-1c-0.8-0.7-1.2-1.2-1.3-1.1c-0.1,0,0,0.3,0.2,0.7
			c-0.1,0-0.3,0-0.4,0.1c-0.2,0.1-0.4,0.2-0.6,0.3c-0.2,0.1-0.4,0.2-0.6,0.3c-0.3,0.1-0.7-0.2-1-0.6c-0.2-0.4-0.3-1-0.2-1.4
			c0.1-0.5,0.3-0.9,0.4-1.2c0.4-0.7,0.7-1,0.7-1.2c0,0-0.2,0-0.4,0.1c-0.2,0.1-0.5,0.3-0.8,0.7c-0.3,0.3-0.6,0.8-0.7,1.4
			c-0.1,0.6-0.2,1.3,0.2,2c0.2,0.3,0.5,0.6,0.8,0.8c0.3,0.2,0.8,0.3,1.1,0.1c0.4-0.1,0.6-0.3,0.8-0.5c0.2-0.2,0.4-0.3,0.5-0.4
			c0.2-0.1,0.3-0.2,0.5-0.2c0.1,0.1,0.2,0.3,0.3,0.4c0.4,0.4,0.9,0.9,1.6,1.2c0.7,0.4,1.5,0.6,2.4,0.6c0.9,0,1.7-0.3,2.4-0.7
			c0.7-0.4,1.2-0.9,1.5-1.3c0.1-0.1,0.1-0.2,0.2-0.3c0.2,0,0.3,0.1,0.5,0.2c0.1,0.1,0.3,0.2,0.5,0.4c0.2,0.2,0.4,0.3,0.8,0.5
			c0.4,0.1,0.8,0,1.1-0.1c0.3-0.2,0.6-0.5,0.8-0.8C94.4,114.7,94.4,113.9,94.2,113.3z"/>
		<g>
			<ellipse class="st5" cx="55.6" cy="109.2" rx="9.9" ry="5.1"/>
			<ellipse class="st5" cx="116.4" cy="109.2" rx="9.9" ry="5.1"/>
		</g>
		<path class="st6" d="M29.6,67.5c0-2.6,0.1-5,0.2-6.5c0.5-16.2,6.3-34.2,19.7-44.4c6.9-5.2,15.6-8.1,24.2-7.7
			c9,0.5,19.2-1.1,28,0.1c7.5,1,14,5.5,19.3,10.7c10.7,10.5,19.7,27.5,19.2,42.9c-0.2,7.3-0.5,15-2.4,22c-9.7-2.2-4.4-11.6-7.3-17.7
			c-3.1-6.5-17.3-5.3-18.6-8c0.8,1.8,1.7,3.7,2.5,5.5c-7.4-0.2-14.8-1.4-21.9-3.4c0.3,1.7,0.9,3.4,1.7,5c-4.7,0.7-9-2.3-13.2-4.6
			c-13.2-7.1-35.7-11-40.6,7.4c-1.4,5.2-1.5,11.4-1.8,16.8C30.8,86.5,29.6,75.6,29.6,67.5z"/>
		<g>
			<g>
				<g>
					<defs>
						<path id="SVGID_3_" d="M98.2,97.4c0,0,2.7-3.6,10.9-3.6s10.5,3.2,10.5,3.2s-2.2,4.7-10.6,4.7S98.2,97.4,98.2,97.4z"/>
					</defs>
					<use xlink:href="#SVGID_3_"  style="overflow:visible;fill:#FFFFFF;"/>
					<clipPath id="SVGID_4_">
						<use xlink:href="#SVGID_3_"  style="overflow:visible;"/>
					</clipPath>
					<g class="st7">
						<circle class="st8" cx="109.1" cy="97" r="5.6"/>
						<circle class="st9" cx="109.1" cy="97" r="3.1"/>
						<circle class="st10" cx="110.5" cy="95.6" r="0.6"/>
					</g>
				</g>
				<path class="st11" d="M98.2,97.4c0,0,1.2-5.6,10.9-5.6s10.5,5.1,10.5,5.1C113.1,92.5,104.2,93.1,98.2,97.4z"/>
			</g>
			<g>
				<g>
					<defs>
						<path id="SVGID_5_" d="M73.9,97.4c0,0-2.7-3.6-10.9-3.6s-10.5,3.2-10.5,3.2s2.2,4.7,10.6,4.7S73.9,97.4,73.9,97.4z"/>
					</defs>
					<use xlink:href="#SVGID_5_"  style="overflow:visible;fill:#FFFFFF;"/>
					<clipPath id="SVGID_6_">
						<use xlink:href="#SVGID_5_"  style="overflow:visible;"/>
					</clipPath>
					<g class="st12">
						<circle class="st8" cx="62.9" cy="97" r="5.6"/>
						<circle class="st9" cx="62.9" cy="97" r="3.1"/>
						<circle class="st10" cx="64.3" cy="95.6" r="0.6"/>
					</g>
				</g>
				<path class="st11" d="M73.9,97.4c0,0-1.2-5.6-10.9-5.6s-10.5,5.1-10.5,5.1C59,92.5,67.9,93.1,73.9,97.4z"/>
			</g>
		</g>
		<g>
			<path class="st6" d="M121.9,90.7c-0.1,0.1-0.4-0.1-0.9-0.3c-0.5-0.3-1.1-0.6-1.9-0.9c-0.8-0.3-1.8-0.5-2.9-0.7
				c-1.1-0.1-2.3-0.1-3.5,0c-1.2,0.1-2.5,0.3-3.7,0.4c-1.2,0.1-2.4,0.3-3.4,0.4c-2,0.2-3.5,0.4-3.8,0.4c-1.2,0.1-2.3-0.8-2.4-2
				c-0.1-1.2,0.9-2.2,2.1-2.2c0.3,0,1.8,0,3.8-0.1c1,0,2.2,0,3.4,0c1.2,0,2.6,0,3.9,0.1c1.4,0.1,2.7,0.3,4,0.7
				c1.2,0.4,2.3,0.9,3.2,1.5c0.8,0.6,1.4,1.2,1.7,1.7C121.9,90.3,122,90.6,121.9,90.7z"/>
			<path class="st6" d="M50.2,90.7c0.1,0.1,0.4-0.1,0.9-0.3c0.5-0.3,1.1-0.6,1.9-0.9c0.8-0.3,1.8-0.5,2.9-0.7c1.1-0.1,2.3-0.1,3.5,0
				c1.2,0.1,2.5,0.3,3.7,0.4c1.2,0.1,2.4,0.3,3.4,0.4c2,0.2,3.5,0.4,3.8,0.4c1.2,0.1,2.3-0.8,2.4-2c0.1-1.2-0.9-2.2-2.1-2.2
				c-0.3,0-1.8,0-3.8-0.1c-1,0-2.2,0-3.4,0c-1.2,0-2.6,0-3.9,0.1c-1.4,0.1-2.7,0.3-4,0.7c-1.2,0.4-2.3,0.9-3.2,1.5
				c-0.8,0.6-1.4,1.2-1.7,1.7C50.2,90.3,50.1,90.6,50.2,90.7z"/>
		</g>
		<g>
			<path class="st13" d="M94,121.3c-2.3,0.2-6.3,0.9-8,1.1c-1.7-0.3-5.7-1-8-1.1c-5.2-0.3-9.8-0.6-14.8-2.3
				c2.4,2.4,10.4,15.9,22.2,16c0.2,0,0.9,0,1.1,0c11.8-0.1,19.8-13.6,22.2-16C103.8,120.7,99.2,121,94,121.3z"/>
			<path class="st10" d="M86,124.9c-10.3,0-18.2-3.5-18.2-3.5c1.9,1.1,8.3,7,17.7,7.1c0.1,0,0.7,0,0.9,0c9.4-0.1,15.8-6,17.7-7.1
				C104.2,121.3,96.3,124.9,86,124.9z"/>
		</g>
	</g>
</g>
</svg>
