<?xml version="1.0" encoding="utf-8"?>
<!-- Generator: Adobe Illustrator 20.1.0, SVG Export Plug-In . SVG Version: 6.00 Build 0)  -->
<svg version="1.1" id="Layer_1" xmlns="http://www.w3.org/2000/svg" xmlns:xlink="http://www.w3.org/1999/xlink" x="0px" y="0px"
	 viewBox="0 0 177 207.7" style="enable-background:new 0 0 177 207.7;" xml:space="preserve">
<style type="text/css">
	.st0{fill:#FCC299;}
	.st1{fill:#F9A66E;}
	.st2{fill:#E1243B;}
	.st3{fill:#DC7B45;}
	.st4{fill:#2B211A;}
	.st5{clip-path:url(#SVGID_4_);}
	.st6{fill:#83553E;}
	.st7{fill:#010101;}
	.st8{fill:#FFFFFF;}
	.st9{fill:#B18C79;}
	.st10{clip-path:url(#SVGID_6_);}
	.st11{fill:#F37A6E;}
	.st12{fill:#94332C;}
	.st13{fill:#E63336;}
	.st14{fill:#F8A793;}
</style>
<g>
	<defs>
		<path id="SVGID_1_" d="M142.3,45L142.3,45L142.3,45c-7.3-23.5-28.7-41.3-54.1-41.3c-25.3,0-46.8,17.8-54.1,41.2l0,0l0,0
			C33.8,46,4.6,203.1,4.6,203.1c19.6,0,34.5-14.7,34.5-34.3l19.1-7.6c0,0,9.3,0,5.7-18.3c-16.9-9.2-19.4-23.7-19.4-23.7l-1-4.7
			l1.6-43.4h86.4l2.4,43.8l-0.9,4.3c0,0-1.6,14-19.7,23.9c-5.2,16.9,5.4,18.1,5.4,18.1l21.4,8.6c0,19.6,12.3,33.3,31.8,33.3
			C172,203.1,142.7,46.1,142.3,45z"/>
	</defs>
	<clipPath id="SVGID_2_">
		<use xlink:href="#SVGID_1_"  style="overflow:visible;"/>
	</clipPath>
</g>
<g>
	<g>
		<path class="st0" d="M167.2,202.7c-2.8-8.7-5.5-16-8.2-20.8c-0.2-0.4-0.3-0.7-0.5-1.1c-0.4-0.7-1-1.5-1.5-2.2
			c-0.8-1.1-1.6-1.9-2.3-2.5c0,0-0.1,0-0.1-0.1c-12.7-11.5-41-15.3-41-22.3c0-7.9,0-33.6,0-33.6H64c0,0,0,25.8,0,33.6
			c0,7-28.1,10.8-40.9,22.2c-0.1,0.1-0.1,0.1-0.2,0.2c-0.9,0.7-1.8,1.7-2.7,3c-0.4,0.5-0.8,1.1-1.1,1.6c-0.1,0.2-0.2,0.5-0.3,0.7
			c-2.8,4.8-5.6,12.2-8.5,21.2H167.2z"/>
		<path class="st1" d="M113.5,145c0-10.5,0-24.8,0-24.8H64c0,0,0,21.7,0,31.4c1.2-3.6,9.5,0.8,20.4,2.9
			C95.5,156.6,108.1,153.1,113.5,145z"/>
		<path class="st2" d="M158.9,181.9c-0.2-0.4-0.3-0.7-0.5-1.1c-0.4-0.7-1-1.5-1.5-2.2c-0.8-1.1-1.6-1.9-2.3-2.5c0,0-0.1,0-0.1-0.1
			c-9.2-8.3-26.5-12.6-35.4-17c-7.3,8.6-18.2,14-30.3,14c-12.1,0-23-5.4-30.3-14c-8.9,4.4-26.1,8.6-35.3,16.9
			c-0.1,0.1-0.1,0.1-0.2,0.2c-0.9,0.7-1.8,1.7-2.7,3c-0.4,0.5-0.8,1.1-1.1,1.6c-0.1,0.2-0.2,0.5-0.3,0.7c-2.8,4.8-5.6,12.2-8.5,21.2
			h156.9C164.4,194,161.6,186.7,158.9,181.9z"/>
	</g>
	<g>
		<g>
			<g>
				<path class="st0" d="M47,90.6c0,0-7-8.7-14.1-4.9c-12,6.5-1.7,33.6,13.1,28.5L47,90.6z"/>
				<path class="st1" d="M44.3,92.4c0,0-4.9-5.6-9.7-3.1c-8.2,4.1,1.9,23.6,9.2,18.1L44.3,92.4z"/>
			</g>
			<g>
				<path class="st0" d="M130.5,90.6c0,0,7-8.7,14.1-4.9c12,6.5,1.7,33.6-13.1,28.5L130.5,90.6z"/>
				<path class="st1" d="M133.1,92.4c0,0,4.9-5.6,9.7-3.1c8.2,4.1-1.9,23.6-9.2,18.1L133.1,92.4z"/>
			</g>
		</g>
		<path class="st0" d="M89.4,22.3c-26.3,0.3-47.5,15.7-47.5,51.3c0,15.7,0.4,42.2,6.5,52.1c6.1,9.9,14.2,14,20.9,18
			c6.5,3.8,12.3,6.4,20.1,6.6c7.8-0.1,13.6-2.7,20.1-6.6c6.7-3.9,14.9-8.1,20.9-18c6.1-9.8,6.5-36.4,6.5-52.1
			C137,38.1,115.7,22.6,89.4,22.3z"/>
		<path class="st3" d="M97.6,110.7c-0.1-0.6-0.4-1.1-0.7-1.4c-0.3-0.3-0.6-0.6-0.8-0.7c-0.2-0.1-0.4-0.2-0.4-0.1
			c-0.1,0.1,0.3,0.5,0.7,1.2c0.2,0.3,0.4,0.7,0.4,1.2c0.1,0.5,0,1-0.2,1.4c-0.2,0.4-0.6,0.6-1,0.6c-0.2,0-0.4-0.1-0.6-0.3
			c-0.2-0.1-0.4-0.3-0.6-0.3c-0.2-0.1-0.3-0.1-0.5-0.1c0.3-0.5,0.3-0.8,0.3-0.9c-0.1-0.1-0.5,0.5-1.3,1.2c-0.4,0.3-0.9,0.7-1.4,1
			c-0.6,0.3-1.3,0.5-2,0.5c-0.7,0-1.4-0.2-2-0.5c-0.6-0.3-1.1-0.6-1.5-1c-0.8-0.7-1.2-1.2-1.3-1.1c-0.1,0,0,0.3,0.2,0.7
			c-0.1,0-0.3,0-0.4,0.1c-0.2,0.1-0.4,0.2-0.6,0.3c-0.2,0.1-0.4,0.2-0.6,0.3c-0.3,0.1-0.7-0.2-1-0.6c-0.2-0.4-0.3-1-0.2-1.4
			c0.1-0.5,0.3-0.9,0.4-1.2c0.4-0.7,0.7-1,0.7-1.2c0,0-0.2,0-0.4,0.1c-0.2,0.1-0.5,0.3-0.8,0.7c-0.3,0.3-0.6,0.8-0.7,1.4
			c-0.1,0.6-0.2,1.3,0.2,2c0.2,0.3,0.5,0.6,0.8,0.8c0.3,0.2,0.8,0.3,1.1,0.1c0.4-0.1,0.6-0.3,0.8-0.5c0.2-0.2,0.4-0.3,0.5-0.4
			c0.2-0.1,0.3-0.2,0.5-0.2c0.1,0.1,0.2,0.3,0.3,0.4c0.4,0.4,0.9,0.9,1.6,1.2c0.7,0.4,1.5,0.6,2.4,0.6c0.9,0,1.7-0.3,2.4-0.7
			c0.7-0.4,1.2-0.9,1.5-1.3c0.1-0.1,0.1-0.2,0.2-0.3c0.2,0,0.3,0.1,0.5,0.2c0.1,0.1,0.3,0.2,0.5,0.4c0.2,0.2,0.4,0.3,0.8,0.5
			c0.4,0.1,0.8,0,1.1-0.1c0.3-0.2,0.6-0.5,0.8-0.8C97.8,112,97.7,111.2,97.6,110.7z"/>
		<g>
			<path class="st4" d="M125.1,84.7c-0.1,0.1-0.4-0.1-0.9-0.3c-0.5-0.3-1.1-0.6-2-0.9c-0.8-0.3-1.8-0.6-2.9-0.7
				c-1.1-0.1-2.3-0.1-3.5,0c-1.2,0.1-2.5,0.3-3.7,0.4c-1.2,0.1-2.4,0.3-3.4,0.4c-2.1,0.2-3.6,0.4-3.9,0.4c-1.3,0.1-2.3-0.8-2.4-2.1
				c-0.1-1.2,0.9-2.3,2.1-2.3c0.3,0,1.8,0,3.9-0.1c1,0,2.2,0,3.5,0c1.2,0,2.6,0,4,0.1c1.4,0.1,2.8,0.3,4,0.7c1.3,0.4,2.4,1,3.2,1.6
				c0.8,0.6,1.4,1.3,1.7,1.8C125.2,84.3,125.2,84.6,125.1,84.7z"/>
			<path class="st4" d="M53.7,84.7c0.1,0.1,0.4-0.1,0.9-0.3c0.5-0.3,1.1-0.6,2-0.9c0.8-0.3,1.8-0.6,2.9-0.7c1.1-0.1,2.3-0.1,3.5,0
				c1.2,0.1,2.5,0.3,3.7,0.4c1.2,0.1,2.4,0.3,3.4,0.4c2.1,0.2,3.6,0.4,3.9,0.4c1.3,0.1,2.3-0.8,2.4-2.1c0.1-1.2-0.9-2.3-2.1-2.3
				c-0.3,0-1.8,0-3.9-0.1c-1,0-2.2,0-3.5,0c-1.2,0-2.6,0-4,0.1c-1.4,0.1-2.8,0.3-4,0.7c-1.3,0.4-2.4,1-3.2,1.6
				c-0.8,0.6-1.4,1.3-1.7,1.8C53.7,84.3,53.6,84.6,53.7,84.7z"/>
		</g>
		<g>
			<g>
				<g>
					<defs>
						<path id="SVGID_3_" d="M101.2,95.5c0,0,2.5-4.1,11.1-4.9c8.6-0.8,11.4,2.3,11.4,2.3s-1.8,5.2-10.7,6
							C104.2,99.8,101.2,95.5,101.2,95.5z"/>
					</defs>
					<use xlink:href="#SVGID_3_"  style="overflow:visible;fill:#FFFFFF;"/>
					<clipPath id="SVGID_4_">
						<use xlink:href="#SVGID_3_"  style="overflow:visible;"/>
					</clipPath>
					<g class="st5">
						
							<ellipse transform="matrix(0.9958 -9.116222e-02 9.116222e-02 0.9958 -8.0505 10.6628)" class="st6" cx="112.7" cy="93.5" rx="5.9" ry="5.9"/>
						
							<ellipse transform="matrix(0.9958 -9.113171e-02 9.113171e-02 0.9958 -8.048 10.6591)" class="st7" cx="112.7" cy="93.5" rx="3.3" ry="3.3"/>
						
							<ellipse transform="matrix(0.9958 -9.127413e-02 9.127413e-02 0.9958 -7.9107 10.7881)" class="st8" cx="114" cy="91.9" rx="0.7" ry="0.7"/>
					</g>
				</g>
				<path class="st9" d="M101.2,95.5c0,0,0.7-6,11-6.9c10.2-0.9,11.6,4.3,11.6,4.3C116.4,89,107.1,90.5,101.2,95.5z"/>
			</g>
			<g>
				<g>
					<defs>
						<path id="SVGID_5_" d="M77.6,95.5c0,0-2.5-4.1-11.1-4.9C57.8,89.8,55.1,93,55.1,93s1.8,5.2,10.7,6
							C74.6,99.8,77.6,95.5,77.6,95.5z"/>
					</defs>
					<use xlink:href="#SVGID_5_"  style="overflow:visible;fill:#FFFFFF;"/>
					<clipPath id="SVGID_6_">
						<use xlink:href="#SVGID_5_"  style="overflow:visible;"/>
					</clipPath>
					<g class="st10">
						
							<ellipse transform="matrix(9.116223e-02 -0.9958 0.9958 9.116223e-02 -32.9528 150.8073)" class="st6" cx="66.1" cy="93.5" rx="5.9" ry="5.9"/>
						
							<ellipse transform="matrix(9.113171e-02 -0.9958 0.9958 9.113171e-02 -32.951 150.8103)" class="st7" cx="66.1" cy="93.5" rx="3.3" ry="3.3"/>
						
							<ellipse transform="matrix(9.113115e-02 -0.9958 0.9958 9.113115e-02 -30.0315 151.6268)" class="st8" cx="68.1" cy="92.3" rx="0.7" ry="0.7"/>
					</g>
				</g>
				<path class="st9" d="M77.6,95.5c0,0-0.7-6-11-6.9C56.4,87.7,55.1,93,55.1,93C62.4,89,71.7,90.5,77.6,95.5z"/>
			</g>
		</g>
		<path class="st4" d="M89.4,12.1c16.7,0,24.4,7,35.9,20.2c27.6,0.5,11.5,53.4,11.5,53.4s0.7-35.5-12.5-42.8
			C101.9,60.9,60.8,57,51.2,45.3c-7.2,9.5-9.5,24-9.2,41.1c0,0-9.2-34.2,2.3-49.7c-5.3-6-1-17.6,6.7-19.9
			c-2.4,10.6,2.5,8.6,11.7,2.8C71.4,14.1,78.2,12.1,89.4,12.1z"/>
		<g>
			<path class="st11" d="M110.7,117c-6.4,1.6-7.4,1.2-12.8,1.4c-2.6,0.1-8,2.1-8,2.1s-5.1-1.8-7.8-1.7c-4.8,0.1-9.1,0.5-13.9,0
				c0,0,5.7,17.7,20.8,17.7C104.2,136.4,110.7,117,110.7,117z"/>
			<path class="st8" d="M69.8,119.9c0,0,5.6,11.1,19.1,11.1c13.5,0,20.8-12.8,20.8-12.8C95,123.3,82.6,122.4,69.8,119.9z"/>
			<path class="st12" d="M69.8,119.9c0,0,5.6,11.1,19.1,11.1c13.5,0,20.8-12.8,20.8-12.8C95,123.3,82.6,122.4,69.8,119.9z"/>
			<path class="st8" d="M69.8,119.9c0,0,0,0,0.1,0.1c3.8,2.9,10.2,4.8,19.1,4.8c9.5,0,16.2-3,20.6-6.5c0.1-0.1,0.1-0.2,0.1-0.2
				C95,123.3,82.6,122.4,69.8,119.9z"/>
			<path class="st13" d="M88.8,130.9c4.4,0,8.1-1.3,11.1-3.2c-1.4-0.8-3.1-1.5-5.2-1.4c-1.7,0-4.3,0.4-5.1,1.4
				c-0.2,0.3-0.3,0.6-0.6,0.8s-0.8,0.4-1.1,0.2c-0.5-0.2-0.4-0.7,0-1c0.4-0.3,0.9-0.3,1.5-0.4c-1.9-1.9-9.6-1-10.7,1
				C81.4,129.9,84.7,130.9,88.8,130.9z"/>
		</g>
		<g>
			<ellipse class="st14" cx="59" cy="109.7" rx="9.9" ry="5.1"/>
			<ellipse class="st14" cx="119.8" cy="109.7" rx="9.9" ry="5.1"/>
		</g>
	</g>
</g>
</svg>
