<?xml version="1.0" encoding="utf-8"?>
<!-- Generator: Adobe Illustrator 20.1.0, SVG Export Plug-In . SVG Version: 6.00 Build 0)  -->
<svg version="1.1" id="Layer_1" xmlns="http://www.w3.org/2000/svg" xmlns:xlink="http://www.w3.org/1999/xlink" x="0px" y="0px"
	 viewBox="0 0 177 207.7" style="enable-background:new 0 0 177 207.7;" xml:space="preserve">
<style type="text/css">
	.st0{fill:#F1AE75;}
	.st1{fill:#DA9560;}
	.st2{fill:#F9A66E;}
	.st3{fill:#DC7B45;}
	.st4{fill:#F8A793;}
	.st5{clip-path:url(#SVGID_4_);}
	.st6{fill:#556885;}
	.st7{fill:#010101;}
	.st8{fill:#FFFFFF;}
	.st9{fill:#B18C79;}
	.st10{clip-path:url(#SVGID_6_);}
	.st11{fill:#3E2D23;}
	.st12{fill:#F37A6E;}
	.st13{fill:#F4F4F4;}
	.st14{fill:#1A1819;}
	.st15{fill:#F0EFEF;}
	.st16{fill:#F5F6F6;}
</style>
<g>
	<defs>
		<path id="SVGID_1_" d="M142.3,45L142.3,45L142.3,45c-7.3-23.5-28.7-41.3-54.1-41.3c-25.3,0-46.8,17.8-54.1,41.2l0,0l0,0
			C33.8,46,4.6,203.1,4.6,203.1c19.6,0,34.5-14.7,34.5-34.3l19.1-7.6c0,0,9.3,0,5.7-18.3c-16.9-9.2-19.4-23.7-19.4-23.7l-1-4.7
			l1.6-43.4h86.4l2.4,43.8l-0.9,4.3c0,0-1.6,14-19.7,23.9c-5.2,16.9,5.4,18.1,5.4,18.1l21.4,8.6c0,19.6,12.3,33.3,31.8,33.3
			C172,203.1,142.7,46.1,142.3,45z"/>
	</defs>
	<clipPath id="SVGID_2_">
		<use xlink:href="#SVGID_1_"  style="overflow:visible;"/>
	</clipPath>
</g>
<path class="st0" d="M168.4,203.9c-2.8-8.7-5.5-16-8.2-20.8c-0.2-0.4-0.3-0.7-0.5-1.1c-0.4-0.7-1-1.5-1.5-2.2
	c-0.8-1.1-1.6-1.9-2.3-2.5c0,0-0.1,0-0.1-0.1c-12.7-11.5-41-15.3-41-22.3c0-7.9,0-33.6,0-33.6H65.2c0,0,0,25.8,0,33.6
	c0,7-28.1,10.8-40.9,22.2c-0.1,0.1-0.1,0.1-0.2,0.2c-0.9,0.7-1.8,1.7-2.7,3c-0.4,0.5-0.8,1.1-1.1,1.6c-0.1,0.2-0.2,0.5-0.3,0.7
	c-2.8,4.8-5.6,12.2-8.5,21.2H168.4z"/>
<path class="st1" d="M114.7,146.2c0-10.5,0-24.8,0-24.8H65.2c0,0,0,21.7,0,31.4c1.2-3.6,9.5,0.8,20.4,2.9
	C96.7,157.8,109.3,154.3,114.7,146.2z"/>
<g>
	<g>
		<path class="st0" d="M46.6,91.8c0,0-7-8.7-14.1-4.9c-12,6.5-1.7,33.6,13.1,28.5L46.6,91.8z"/>
		<path class="st2" d="M43.9,93.6c0,0-4.9-5.6-9.7-3.1c-8.2,4.1,1.9,23.6,9.2,18.1L43.9,93.6z"/>
	</g>
	<g>
		<path class="st0" d="M130.1,91.8c0,0,7-8.7,14.1-4.9c12,6.5,1.7,33.6-13.1,28.5L130.1,91.8z"/>
		<path class="st2" d="M132.7,93.6c0,0,4.9-5.6,9.7-3.1c8.2,4.1-1.9,23.6-9.2,18.1L132.7,93.6z"/>
	</g>
</g>
<path class="st0" d="M89,23.5c-26.3,0.3-47.5,15.7-47.5,51.3c0,15.7,0.4,42.2,6.5,52.1c6.1,9.8,14.2,14,20.9,18
	c6.5,3.8,12.3,6.4,20.1,6.6c7.8-0.1,13.6-2.7,20.1-6.6c6.7-3.9,14.9-8.1,20.9-18c6.1-9.8,6.5-36.4,6.5-52.1
	C136.6,39.3,115.3,23.8,89,23.5z"/>
<path class="st3" d="M97.2,115.1c-0.1-0.6-0.4-1.1-0.7-1.4c-0.3-0.3-0.6-0.6-0.8-0.7c-0.2-0.1-0.4-0.2-0.4-0.1
	c-0.1,0.1,0.3,0.5,0.7,1.2c0.2,0.3,0.4,0.7,0.4,1.2c0.1,0.5,0,1-0.2,1.4c-0.2,0.4-0.6,0.6-1,0.6c-0.2,0-0.4-0.1-0.6-0.3
	c-0.2-0.1-0.4-0.3-0.6-0.3c-0.2-0.1-0.3-0.1-0.5-0.1c0.3-0.5,0.3-0.8,0.3-0.9c-0.1-0.1-0.5,0.5-1.3,1.2c-0.4,0.3-0.9,0.7-1.4,1
	c-0.6,0.3-1.3,0.5-2,0.5c-0.7,0-1.4-0.2-2-0.5c-0.6-0.3-1.1-0.6-1.5-1c-0.8-0.7-1.2-1.2-1.3-1.1c-0.1,0,0,0.3,0.2,0.7
	c-0.1,0-0.3,0-0.4,0.1c-0.2,0.1-0.4,0.2-0.6,0.3c-0.2,0.1-0.4,0.2-0.6,0.3c-0.3,0.1-0.7-0.2-1-0.6c-0.2-0.4-0.3-1-0.2-1.4
	c0.1-0.5,0.3-0.9,0.4-1.2c0.4-0.7,0.7-1,0.7-1.2c0,0-0.2,0-0.4,0.1c-0.2,0.1-0.5,0.3-0.8,0.7c-0.3,0.3-0.6,0.8-0.7,1.4
	c-0.1,0.6-0.2,1.3,0.2,2c0.2,0.3,0.5,0.6,0.8,0.8c0.3,0.2,0.8,0.3,1.1,0.1c0.4-0.1,0.6-0.3,0.8-0.5c0.2-0.2,0.4-0.3,0.5-0.4
	c0.2-0.1,0.3-0.2,0.5-0.2c0.1,0.1,0.2,0.3,0.3,0.4c0.4,0.4,0.9,0.9,1.6,1.2c0.7,0.4,1.5,0.6,2.4,0.6c0.9,0,1.7-0.3,2.4-0.7
	c0.7-0.4,1.2-0.9,1.5-1.3c0.1-0.1,0.1-0.2,0.2-0.3c0.2,0,0.3,0.1,0.5,0.2c0.1,0.1,0.3,0.2,0.5,0.4c0.2,0.2,0.4,0.3,0.8,0.5
	c0.4,0.1,0.8,0,1.1-0.1c0.3-0.2,0.6-0.5,0.8-0.8C97.4,116.4,97.3,115.7,97.2,115.1z"/>
<g>
	<ellipse class="st4" cx="58.6" cy="110.9" rx="9.9" ry="5.1"/>
	<ellipse class="st4" cx="119.4" cy="110.9" rx="9.9" ry="5.1"/>
</g>
<g>
	<g>
		<g>
			<defs>
				<path id="SVGID_3_" d="M101.2,99.1c0,0,2.7-3.6,10.9-3.6s10.5,3.2,10.5,3.2s-2.2,4.7-10.6,4.7S101.2,99.1,101.2,99.1z"/>
			</defs>
			<use xlink:href="#SVGID_3_"  style="overflow:visible;fill:#FFFFFF;"/>
			<clipPath id="SVGID_4_">
				<use xlink:href="#SVGID_3_"  style="overflow:visible;"/>
			</clipPath>
			<g class="st5">
				<circle class="st6" cx="112.1" cy="98.8" r="5.6"/>
				<circle class="st7" cx="112.1" cy="98.8" r="3.1"/>
				<circle class="st8" cx="113.5" cy="97.4" r="0.6"/>
			</g>
		</g>
		<path class="st9" d="M101.2,99.1c0,0,1.2-5.6,10.9-5.6s10.5,5.1,10.5,5.1C116.1,94.3,107.2,94.8,101.2,99.1z"/>
	</g>
	<g>
		<g>
			<defs>
				<path id="SVGID_5_" d="M76.9,99.1c0,0-2.7-3.6-10.9-3.6s-10.5,3.2-10.5,3.2s2.2,4.7,10.6,4.7S76.9,99.1,76.9,99.1z"/>
			</defs>
			<use xlink:href="#SVGID_5_"  style="overflow:visible;fill:#FFFFFF;"/>
			<clipPath id="SVGID_6_">
				<use xlink:href="#SVGID_5_"  style="overflow:visible;"/>
			</clipPath>
			<g class="st10">
				<circle class="st6" cx="65.9" cy="98.8" r="5.6"/>
				<circle class="st7" cx="65.9" cy="98.8" r="3.1"/>
				<circle class="st8" cx="67.3" cy="97.4" r="0.6"/>
			</g>
		</g>
		<path class="st9" d="M76.9,99.1c0,0-1.2-5.6-10.9-5.6s-10.5,5.1-10.5,5.1C62,94.3,70.9,94.8,76.9,99.1z"/>
	</g>
</g>
<g>
	<path class="st11" d="M124.9,92.4c-0.1,0.1-0.4-0.1-0.9-0.3c-0.5-0.3-1.1-0.6-1.9-0.9c-0.8-0.3-1.8-0.5-2.9-0.7
		c-1.1-0.1-2.3-0.1-3.5,0c-1.2,0.1-2.5,0.3-3.7,0.4c-1.2,0.1-2.4,0.3-3.4,0.4c-2,0.2-3.5,0.4-3.8,0.4c-1.2,0.1-2.3-0.8-2.4-2
		c-0.1-1.2,0.9-2.2,2.1-2.2c0.3,0,1.8,0,3.8-0.1c1,0,2.2,0,3.4,0c1.2,0,2.6,0,3.9,0.1c1.4,0.1,2.7,0.3,4,0.7
		c1.2,0.4,2.3,0.9,3.2,1.5c0.8,0.6,1.4,1.2,1.7,1.7C124.9,92,125,92.3,124.9,92.4z"/>
	<path class="st11" d="M53.2,92.4c0.1,0.1,0.4-0.1,0.9-0.3c0.5-0.3,1.1-0.6,1.9-0.9c0.8-0.3,1.8-0.5,2.9-0.7c1.1-0.1,2.3-0.1,3.5,0
		c1.2,0.1,2.5,0.3,3.7,0.4c1.2,0.1,2.4,0.3,3.4,0.4c2,0.2,3.5,0.4,3.8,0.4c1.2,0.1,2.3-0.8,2.4-2c0.1-1.2-0.9-2.2-2.1-2.2
		c-0.3,0-1.8,0-3.8-0.1c-1,0-2.2,0-3.4,0c-1.2,0-2.6,0-3.9,0.1c-1.4,0.1-2.7,0.3-4,0.7c-1.2,0.4-2.3,0.9-3.2,1.5
		c-0.8,0.6-1.4,1.2-1.7,1.7C53.2,92,53.1,92.3,53.2,92.4z"/>
</g>
<g>
	<path class="st12" d="M97,123c-2.3,0.2-6.3,0.9-8,1.1c-1.7-0.3-5.7-1-8-1.1c-5.2-0.3-9.8-0.6-14.8-2.3c2.4,2.4,10.4,15.9,22.2,16
		c0.2,0,0.9,0,1.1,0c11.8-0.1,19.8-13.6,22.2-16C106.7,122.4,102.2,122.7,97,123z"/>
	<path class="st8" d="M89,126.6c-10.3,0-18.2-3.5-18.2-3.5c1.9,1.1,8.3,7,17.7,7.1c0.1,0,0.7,0,0.9,0c9.4-0.1,15.8-6,17.7-7.1
		C107.2,123.1,99.3,126.6,89,126.6z"/>
</g>
<path class="st13" d="M142.6,44.1L142.6,44.1L142.6,44.1c-7.3-23.5-28.7-41.3-54.1-41.3C63.1,2.8,41.7,20.6,34.4,44l0,0l0,0
	C34.1,45.2,4.8,202.2,4.8,202.2c19.6,0,34.5-14.7,34.5-34.3l19.1-7.6c0,0,9.3,0,5.7-18.3c-16.9-9.2-19.4-23.7-19.4-23.7l-1-4.7
	l1.6-43.4h86.4l2.4,43.8l-0.9,4.3c0,0-1.6,14-19.7,23.9c-5.2,16.9,5.4,18.1,5.4,18.1l21.4,8.6c0,19.6,12.3,33.3,31.8,33.3
	C172.2,202.2,142.9,45.2,142.6,44.1z"/>
<g>
	<path class="st14" d="M144.3,52.7H32.7c-2.9,0-5.3-2.4-5.3-5.3c0-2.9,2.4-5.3,5.3-5.3h111.6c2.9,0,5.3,2.4,5.3,5.3
		C149.6,50.4,147.2,52.7,144.3,52.7z"/>
	<path class="st14" d="M147,61.6H30c-2.9,0-5.2-2.4-5.2-5.3S27.1,51,30,51h117c2.9,0,5.2,2.4,5.2,5.3S149.9,61.6,147,61.6z"/>
</g>
<path class="st15" d="M160.1,183.1c-0.2-0.4-0.3-0.7-0.5-1.1c-0.4-0.7-1-1.5-1.5-2.2c-0.8-1.1-1.6-1.9-2.4-2.5c0,0-0.1,0-0.1-0.1
	c-9.2-8.3-26.8-12.6-35.7-17c-7.4,8.6-18.3,14-30.5,14c-12.2,0-23.2-5.4-30.5-14c-8.9,4.4-26.3,8.6-35.6,16.9
	c-0.1,0.1-0.1,0.1-0.2,0.2c-0.9,0.7-1.8,1.7-2.8,3c-0.4,0.5-0.8,1.1-1.1,1.6c-0.1,0.2-0.2,0.5-0.4,0.7c-2.8,4.8-5.7,12.2-8.5,21.2
	h158.2C165.6,195.2,162.8,187.9,160.1,183.1z"/>
<g>
	<g>
		<path class="st16" d="M119.3,165.3c0,0-9,11.6-30.3,11.6c-21.4,0-31.1-11.8-31.1-11.8l0.3-7c0.1-3.1,3.6-4.9,6-2.9
			c5.9,4.8,13.8,9.2,24.5,9.2c10.7,0,18.6-4.4,24.5-9.3c2.4-1.9,5.9-0.2,6,2.9L119.3,165.3z"/>
		<rect x="82.9" y="175.5" class="st16" width="11.6" height="28.4"/>
	</g>
</g>
</svg>
