<?xml version="1.0" encoding="utf-8"?>
<!-- Generator: Adobe Illustrator 20.1.0, SVG Export Plug-In . SVG Version: 6.00 Build 0)  -->
<svg version="1.1" id="Layer_1" xmlns="http://www.w3.org/2000/svg" xmlns:xlink="http://www.w3.org/1999/xlink" x="0px" y="0px"
	 viewBox="0 0 177 207.7" style="enable-background:new 0 0 177 207.7;" xml:space="preserve">
<style type="text/css">
	.st0{fill:#FCC299;}
	.st1{fill:#F9A66E;}
	.st2{fill:#010101;}
	.st3{fill:#F37A6E;}
	.st4{fill:#FFFFFF;}
	.st5{fill:#DC7B45;}
	.st6{clip-path:url(#SVGID_4_);}
	.st7{fill:#4F899B;}
	.st8{fill:#B18C79;}
	.st9{clip-path:url(#SVGID_6_);}
	.st10{fill:#2D1A0F;}
	.st11{fill:#F8A793;}
</style>
<g>
	<defs>
		<path id="SVGID_1_" d="M142.3,45L142.3,45L142.3,45c-7.3-23.5-28.7-41.3-54.1-41.3c-25.3,0-46.8,17.8-54.1,41.2l0,0l0,0
			C33.8,46,4.6,203.1,4.6,203.1c19.6,0,34.5-14.7,34.5-34.3l19.1-7.6c0,0,9.3,0,5.7-18.3c-16.9-9.2-19.4-23.7-19.4-23.7l-1-4.7
			l1.6-43.4h86.4l2.4,43.8l-0.9,4.3c0,0-1.6,14-19.7,23.9c-5.2,16.9,5.4,18.1,5.4,18.1l21.4,8.6c0,19.6,12.3,33.3,31.8,33.3
			C172,203.1,142.7,46.1,142.3,45z"/>
	</defs>
	<clipPath id="SVGID_2_">
		<use xlink:href="#SVGID_1_"  style="overflow:visible;"/>
	</clipPath>
</g>
<g>
	<g>
		<path class="st0" d="M167.8,205.8c-2.8-8.7-5.5-16-8.2-20.8c-0.2-0.4-0.3-0.7-0.5-1.1c-0.4-0.7-1-1.5-1.5-2.2
			c-0.8-1.1-1.6-1.9-2.3-2.5c0,0-0.1,0-0.1-0.1c-12.7-11.5-41-15.3-41-22.3c0-7.9,0-33.6,0-33.6H64.6c0,0,0,25.8,0,33.6
			c0,7-28.1,10.8-40.9,22.2c-0.1,0.1-0.1,0.1-0.2,0.2c-0.9,0.7-1.8,1.7-2.7,3c-0.4,0.5-0.8,1.1-1.1,1.6c-0.1,0.2-0.2,0.5-0.3,0.7
			c-2.8,4.8-5.6,12.2-8.5,21.2H167.8z"/>
		<path class="st1" d="M114.1,148.1c0-10.5,0-24.8,0-24.8H64.6c0,0,0,21.7,0,31.4c1.2-3.6,9.5,0.8,20.4,2.9
			C96.2,159.7,108.8,156.2,114.1,148.1z"/>
		<path class="st2" d="M159.6,185c-0.2-0.4-0.3-0.7-0.5-1.1c-0.4-0.7-1-1.5-1.5-2.2c-0.8-1.1-1.6-1.9-2.3-2.5c0,0-0.1,0-0.1-0.1
			c-9.2-8.3-26.5-12.6-35.4-17c-7.3,8.6-18.2,14-30.3,14c-12.1,0-23-5.4-30.3-14c-8.9,4.4-26.1,8.6-35.3,16.9
			c-0.1,0.1-0.1,0.1-0.2,0.2c-0.9,0.7-1.8,1.7-2.7,3c-0.4,0.5-0.8,1.1-1.1,1.6c-0.1,0.2-0.2,0.5-0.3,0.7c-2.8,4.8-5.6,12.2-8.5,21.2
			h156.9C165.1,197,162.3,189.8,159.6,185z"/>
	</g>
	<g>
		<g>
			<g>
				<path class="st0" d="M46.7,90.7c0,0-7-8.7-14.1-4.9c-12,6.5-1.7,33.6,13.1,28.5L46.7,90.7z"/>
				<path class="st1" d="M44,92.5c0,0-4.9-5.6-9.7-3.1c-8.2,4.1,1.9,23.6,9.2,18.1L44,92.5z"/>
			</g>
			<g>
				<path class="st0" d="M130.2,90.7c0,0,7-8.7,14.1-4.9c12,6.5,1.7,33.6-13.1,28.5L130.2,90.7z"/>
				<path class="st1" d="M132.9,92.5c0,0,4.9-5.6,9.7-3.1c8.2,4.1-1.9,23.6-9.2,18.1L132.9,92.5z"/>
			</g>
		</g>
		<path class="st0" d="M89.2,22.4c-26.3,0.3-47.5,15.7-47.5,51.3c0,15.7,0.4,42.2,6.5,52.1c6.1,9.8,14.2,15.3,20.9,19.3
			c6.5,3.8,12.3,8.1,20.1,8.2c7.8-0.1,13.6-4.4,20.1-8.2c6.7-3.9,14.9-9.4,20.9-19.3c6.1-9.8,6.5-36.4,6.5-52.1
			C136.7,38.2,115.5,22.7,89.2,22.4z"/>
		<g>
			<path class="st3" d="M94.8,123.6c-2.6,0.3-3.1,0.6-5.6,0.6c-2.5,0-3-0.3-5.6-0.6c-5.5-1-8.9,0.2-15.9,0.4
				c3.7,5.8,11.9,12.4,21.5,12.4s17.8-6.6,21.5-12.4C103.7,123.9,100.3,122.6,94.8,123.6z"/>
			<path class="st4" d="M89.2,131.4c-9.2,0-16.4-5.3-16.4-5.3s13.7,0,16.9,0c1.6,0,15.9,0.2,15.9,0.2S98.3,131.4,89.2,131.4z"/>
		</g>
		<path class="st5" d="M97.3,115c-0.1-0.6-0.4-1.1-0.7-1.4c-0.3-0.3-0.6-0.6-0.8-0.7c-0.2-0.1-0.4-0.2-0.4-0.1
			c-0.1,0.1,0.3,0.5,0.7,1.2c0.2,0.3,0.4,0.7,0.4,1.2c0.1,0.5,0,1-0.2,1.4c-0.2,0.4-0.6,0.6-1,0.6c-0.2,0-0.4-0.1-0.6-0.3
			c-0.2-0.1-0.4-0.3-0.6-0.3c-0.2-0.1-0.3-0.1-0.5-0.1c0.3-0.5,0.3-0.8,0.3-0.9c-0.1-0.1-0.5,0.5-1.3,1.2c-0.4,0.3-0.9,0.7-1.4,1
			c-0.6,0.3-1.3,0.5-2,0.5c-0.7,0-1.4-0.2-2-0.5c-0.6-0.3-1.1-0.6-1.5-1c-0.8-0.7-1.2-1.2-1.3-1.1c-0.1,0,0,0.3,0.2,0.7
			c-0.1,0-0.3,0-0.4,0.1c-0.2,0.1-0.4,0.2-0.6,0.3c-0.2,0.1-0.4,0.2-0.6,0.3c-0.3,0.1-0.7-0.2-1-0.6c-0.2-0.4-0.3-1-0.2-1.4
			c0.1-0.5,0.3-0.9,0.4-1.2c0.4-0.7,0.7-1,0.7-1.2c0,0-0.2,0-0.4,0.1c-0.2,0.1-0.5,0.3-0.8,0.7c-0.3,0.3-0.6,0.8-0.7,1.4
			c-0.1,0.6-0.2,1.3,0.2,2c0.2,0.3,0.5,0.6,0.8,0.8c0.3,0.2,0.8,0.3,1.1,0.1c0.4-0.1,0.6-0.3,0.8-0.5c0.2-0.2,0.4-0.3,0.5-0.4
			c0.2-0.1,0.3-0.2,0.5-0.2c0.1,0.1,0.2,0.3,0.3,0.4c0.4,0.4,0.9,0.9,1.6,1.2c0.7,0.4,1.5,0.6,2.4,0.6c0.9,0,1.7-0.3,2.4-0.7
			c0.7-0.4,1.2-0.9,1.5-1.3c0.1-0.1,0.1-0.2,0.2-0.3c0.2,0,0.3,0.1,0.5,0.2c0.1,0.1,0.3,0.2,0.5,0.4c0.2,0.2,0.4,0.3,0.8,0.5
			c0.4,0.1,0.8,0,1.1-0.1c0.3-0.2,0.6-0.5,0.8-0.8C97.5,116.4,97.5,115.6,97.3,115z"/>
		<g>
			<g>
				<g>
					<defs>
						<path id="SVGID_3_" d="M100.2,95.4c0,0,2.9-3.9,11.8-3.9c8.9,0,11.4,3.4,11.4,3.4s-2.3,5.1-11.4,5.1S100.2,95.4,100.2,95.4z"
							/>
					</defs>
					<use xlink:href="#SVGID_3_"  style="overflow:visible;fill:#FFFFFF;"/>
					<clipPath id="SVGID_4_">
						<use xlink:href="#SVGID_3_"  style="overflow:visible;"/>
					</clipPath>
					<g class="st6">
						<circle class="st7" cx="112" cy="94.8" r="6"/>
						<circle class="st2" cx="112" cy="94.8" r="3.4"/>
						<circle class="st4" cx="113.4" cy="93.3" r="0.7"/>
					</g>
				</g>
				<path class="st8" d="M100.2,95.4c0,0,1.3-6,11.8-6c10.5,0,11.4,5.5,11.4,5.5C116.3,90.2,106.6,90.8,100.2,95.4z"/>
			</g>
			<g>
				<g>
					<defs>
						<path id="SVGID_5_" d="M78.1,95.4c0,0-2.9-3.9-11.8-3.9S55,94.9,55,94.9s2.3,5.1,11.4,5.1C75.5,100,78.1,95.4,78.1,95.4z"/>
					</defs>
					<use xlink:href="#SVGID_5_"  style="overflow:visible;fill:#FFFFFF;"/>
					<clipPath id="SVGID_6_">
						<use xlink:href="#SVGID_5_"  style="overflow:visible;"/>
					</clipPath>
					<g class="st9">
						<circle class="st7" cx="66.3" cy="94.8" r="6"/>
						<circle class="st2" cx="66.3" cy="94.8" r="3.4"/>
						<circle class="st4" cx="67.8" cy="93.3" r="0.7"/>
					</g>
				</g>
				<path class="st8" d="M78.1,95.4c0,0-1.3-6-11.8-6c-10.5,0-11.4,5.5-11.4,5.5C62.1,90.2,71.7,90.8,78.1,95.4z"/>
			</g>
		</g>
		<g>
			<path class="st10" d="M124.8,86.3c-0.1,0.1-0.5-0.1-1-0.4c-0.5-0.3-1.3-0.7-2.2-1.1c-0.9-0.4-2.1-0.7-3.3-0.8
				c-1.3-0.1-2.6-0.1-4,0c-1.4,0.1-2.9,0.3-4.3,0.5c-1.4,0.2-2.8,0.3-3.9,0.5c-2.4,0.3-4.1,0.5-4.4,0.5c-1.4,0.1-2.7-1-2.8-2.4
				c-0.1-1.4,1-2.6,2.5-2.7c0.4,0,2.1-0.1,4.5-0.1c1.2,0,2.5,0,4,0c1.4,0,3,0,4.6,0.1c1.6,0.1,3.2,0.4,4.6,0.8
				c1.5,0.5,2.7,1.1,3.7,1.9c1,0.7,1.6,1.5,2,2.1C124.9,85.8,124.9,86.2,124.8,86.3z"/>
			<path class="st10" d="M53.5,86.3c0.1,0.1,0.5-0.1,1-0.4c0.5-0.3,1.3-0.7,2.2-1.1c0.9-0.4,2.1-0.7,3.3-0.8c1.3-0.1,2.6-0.1,4,0
				c1.4,0.1,2.9,0.3,4.3,0.5c1.4,0.2,2.8,0.3,3.9,0.5c2.4,0.3,4.1,0.5,4.4,0.5c1.4,0.1,2.7-1,2.8-2.4c0.1-1.4-1-2.6-2.5-2.7
				c-0.4,0-2.1-0.1-4.5-0.1c-1.2,0-2.5,0-4,0c-1.4,0-3,0-4.6,0.1c-1.6,0.1-3.2,0.4-4.6,0.8c-1.5,0.5-2.7,1.1-3.7,1.9
				c-1,0.7-1.6,1.5-2,2.1C53.5,85.8,53.4,86.2,53.5,86.3z"/>
		</g>
		<g>
			<ellipse class="st11" cx="58.8" cy="109.8" rx="9.9" ry="5.1"/>
			<ellipse class="st11" cx="119.6" cy="109.8" rx="9.9" ry="5.1"/>
		</g>
		<path class="st10" d="M58,27.3c-0.8-4,1.1-8.1,4-11c2.8-2.9,6.5-4.8,10.2-6.5c6.5-3.1,13.1-6,19.8-8.6c-0.4,1.3-0.7,2.7-1.1,4
			c9.4-0.8,18.8-0.7,28.2,0.4c-0.8,0.9-1.7,1.7-2.5,2.6c7,0.3,13.9,0.5,20.9,0.8c-1.3,2.4-2.7,4.8-4,7.2c1.4,0,2.9,0,4.3,0.1
			c0.6,5.1,1.2,10.3,1.7,15.4c0.7-0.5,1.4-1,2.2-1.6c1,17.3,0.5,55,0.5,55c-2.9-0.5-5.6,0.7-5.6,0.7l-0.3,7.8l-1-0.2
			c1.4-29.5-3.1-42.4-12-47.6c-9.1-5.4-9.7,1.4-33.8,1c-24.1-0.4-28-6.9-39,3.5c-4.2,4-7.7,42.5-7.7,42.5H42l-0.2-6.4
			c-1.5-0.8-2.7-1.4-4.1-1.6c0,0-1.3-23,1.6-29.2c-1,1-1.9,2-2.9,3c0.4-7.5,2.6-15,6.3-21.5c-1.1,0.1-2.1,0.1-3.2,0.2
			C43.1,30,51.4,25.5,58,27.3z"/>
	</g>
</g>
</svg>
