<?xml version="1.0" encoding="utf-8"?>
<!-- Generator: Adobe Illustrator 20.1.0, SVG Export Plug-In . SVG Version: 6.00 Build 0)  -->
<svg version="1.1" id="Layer_1" xmlns="http://www.w3.org/2000/svg" xmlns:xlink="http://www.w3.org/1999/xlink" x="0px" y="0px"
	 viewBox="0 0 177 207.7" style="enable-background:new 0 0 177 207.7;" xml:space="preserve">
<style type="text/css">
	.st0{fill:#FCC299;}
	.st1{fill:#F9A66E;}
	.st2{fill:#77B142;}
	.st3{fill:#DC7B45;}
	.st4{fill:#F8A793;}
	.st5{fill:#3E2D23;}
	.st6{clip-path:url(#SVGID_2_);}
	.st7{fill:#556885;}
	.st8{fill:#010101;}
	.st9{fill:#FFFFFF;}
	.st10{fill:#B18C79;}
	.st11{clip-path:url(#SVGID_4_);}
	.st12{fill:#F37A6E;}
</style>
<g>
	<g>
		<path class="st0" d="M166.8,204.1c-2.8-8.7-5.5-16-8.2-20.8c-0.2-0.4-0.3-0.7-0.5-1.1c-0.4-0.7-1-1.5-1.5-2.2
			c-0.8-1.1-1.6-1.9-2.3-2.5c0,0-0.1,0-0.1-0.1c-12.7-11.5-41-15.3-41-22.3c0-7.9,0-33.6,0-33.6H63.6c0,0,0,25.8,0,33.6
			c0,7-28.1,10.8-40.9,22.2c-0.1,0.1-0.1,0.1-0.2,0.2c-0.9,0.7-1.8,1.7-2.7,3c-0.4,0.5-0.8,1.1-1.1,1.6c-0.1,0.2-0.2,0.5-0.3,0.7
			c-2.8,4.8-5.6,12.2-8.5,21.2H166.8z"/>
		<path class="st1" d="M113.1,146.4c0-10.5,0-24.8,0-24.8H63.6c0,0,0,21.7,0,31.4c1.2-3.6,9.5,0.8,20.4,2.9
			C95.1,158.1,107.7,154.5,113.1,146.4z"/>
		<path class="st2" d="M158.5,183.3c-0.2-0.4-0.3-0.7-0.5-1.1c-0.4-0.7-1-1.5-1.5-2.2c-0.8-1.1-1.6-1.9-2.3-2.5c0,0-0.1,0-0.1-0.1
			c-9.2-8.3-26.5-12.6-35.4-17c-7.3,8.6-18.2,14-30.3,14c-12.1,0-23-5.4-30.3-14c-8.9,4.4-26.1,8.6-35.3,16.9
			c-0.1,0.1-0.1,0.1-0.2,0.2c-0.9,0.7-1.8,1.7-2.7,3c-0.4,0.5-0.8,1.1-1.1,1.6c-0.1,0.2-0.2,0.5-0.3,0.7c-2.8,4.8-5.6,12.2-8.5,21.2
			h156.9C164,195.4,161.2,188.2,158.5,183.3z"/>
	</g>
	<g>
		<g>
			<g>
				<path class="st0" d="M44.9,92.1c0,0-7-8.7-14.1-4.9c-12,6.5-1.7,33.6,13.1,28.5L44.9,92.1z"/>
				<path class="st1" d="M42.3,93.8c0,0-4.9-5.6-9.7-3.1c-8.2,4.1,1.9,23.6,9.2,18.1L42.3,93.8z"/>
			</g>
			<g>
				<path class="st0" d="M128.4,92.1c0,0,7-8.7,14.1-4.9c12,6.5,1.7,33.6-13.1,28.5L128.4,92.1z"/>
				<path class="st1" d="M131.1,93.8c0,0,4.9-5.6,9.7-3.1c8.2,4.1-1.9,23.6-9.2,18.1L131.1,93.8z"/>
			</g>
		</g>
		<path class="st0" d="M87.4,23.8C61.1,24,39.9,39.5,39.9,75c0,15.7,0.4,42.2,6.5,52.1c6.1,9.8,14.2,14,20.9,18
			c6.5,3.8,12.3,6.4,20.1,6.6c7.8-0.1,13.6-2.7,20.1-6.6c6.7-3.9,14.9-8.1,20.9-18c6.1-9.8,6.5-36.4,6.5-52.1
			C134.9,39.5,113.7,24,87.4,23.8z"/>
		<path class="st3" d="M95.6,115.3c-0.1-0.6-0.4-1.1-0.7-1.4c-0.3-0.3-0.6-0.6-0.8-0.7c-0.2-0.1-0.4-0.2-0.4-0.1
			c-0.1,0.1,0.3,0.5,0.7,1.2c0.2,0.3,0.4,0.7,0.4,1.2c0.1,0.5,0,1-0.2,1.4c-0.2,0.4-0.6,0.6-1,0.6c-0.2,0-0.4-0.1-0.6-0.3
			c-0.2-0.1-0.4-0.3-0.6-0.3c-0.2-0.1-0.3-0.1-0.5-0.1c0.3-0.5,0.3-0.8,0.3-0.9c-0.1-0.1-0.5,0.5-1.3,1.2c-0.4,0.3-0.9,0.7-1.4,1
			c-0.6,0.3-1.3,0.5-2,0.5c-0.7,0-1.4-0.2-2-0.5c-0.6-0.3-1.1-0.6-1.5-1c-0.8-0.7-1.2-1.2-1.3-1.1c-0.1,0,0,0.3,0.2,0.7
			c-0.1,0-0.3,0-0.4,0.1c-0.2,0.1-0.4,0.2-0.6,0.3c-0.2,0.1-0.4,0.2-0.6,0.3c-0.3,0.1-0.7-0.2-1-0.6c-0.2-0.4-0.3-1-0.2-1.4
			c0.1-0.5,0.3-0.9,0.4-1.2c0.4-0.7,0.7-1,0.7-1.2c0,0-0.2,0-0.4,0.1c-0.2,0.1-0.5,0.3-0.8,0.7c-0.3,0.3-0.6,0.8-0.7,1.4
			c-0.1,0.6-0.2,1.3,0.2,2c0.2,0.3,0.5,0.6,0.8,0.8c0.3,0.2,0.8,0.3,1.1,0.1c0.4-0.1,0.6-0.3,0.8-0.5c0.2-0.2,0.4-0.3,0.5-0.4
			c0.2-0.1,0.3-0.2,0.5-0.2c0.1,0.1,0.2,0.3,0.3,0.4c0.4,0.4,0.9,0.9,1.6,1.2c0.7,0.4,1.5,0.6,2.4,0.6c0.9,0,1.7-0.3,2.4-0.7
			c0.7-0.4,1.2-0.9,1.5-1.3c0.1-0.1,0.1-0.2,0.2-0.3c0.2,0,0.3,0.1,0.5,0.2c0.1,0.1,0.3,0.2,0.5,0.4c0.2,0.2,0.4,0.3,0.8,0.5
			c0.4,0.1,0.8,0,1.1-0.1c0.3-0.2,0.6-0.5,0.8-0.8C95.8,116.6,95.7,115.9,95.6,115.3z"/>
		<g>
			<ellipse class="st4" cx="57" cy="111.2" rx="9.9" ry="5.1"/>
			<ellipse class="st4" cx="117.8" cy="111.2" rx="9.9" ry="5.1"/>
		</g>
		<path class="st5" d="M31.7,68.4c-1.3,0-2.7,0-4,0c1-1.8,2-3.5,3-5.3c-0.9-0.4-1.8-0.7-2.7-1.1c3.3-4,4.7-9.1,5.9-14.1
			s2.4-10.2,5.6-14.3c3.1-4.1,8.7-7,13.8-5.4C62.3,14,82.2,7.5,99,10.9s30.8,15.9,37.9,31c1.6,3.3,2.8,6.7,5,9.7
			c2.1,3,5.4,5.4,9.1,5.7c-0.5,3.1-3.4,5.7-6.6,6c1,0.6,2,1.2,3,1.8c-2,1.3-4.1,2.6-6.1,3.9c1.4,0.3,2.7,0.5,4.1,0.8
			c-4.4,4.1-5.3,16.6-5.3,16.6c-2.8-0.4-5.2,0.8-5.2,0.8s-2.9-4.9-4-11c-0.3-1.8-0.7-3.7-1.3-5.5c-3.1,0.7-6.3,0.9-9.5,0.4
			c1.1,0.8,2.2,1.6,3.3,2.5c-9.3,2.6-19.4,2.5-28.6-0.3c1.5,1.3,2.9,2.6,4.4,3.9c-7.3,0.9-15.1,0-23-12.4
			c-2.2-3.4-5.7-25.5-14.7-15.9c-4.3-1.6-9.3,1.3-11.7,5.2C39.7,70.2,40,87.8,40,87.8s-1.5-1.2-5-1.7c-0.9-3.2-0.9-5.2-1.8-8.4
			c-1.4,0.1-2.8,0.1-4.2,0.2C31.2,75.3,32.2,71.8,31.7,68.4z"/>
		<g>
			<g>
				<g>
					<defs>
						<path id="SVGID_1_" d="M99.6,99.3c0,0,2.7-3.6,10.9-3.6s10.5,3.2,10.5,3.2s-2.2,4.7-10.6,4.7S99.6,99.3,99.6,99.3z"/>
					</defs>
					<use xlink:href="#SVGID_1_"  style="overflow:visible;fill:#FFFFFF;"/>
					<clipPath id="SVGID_2_">
						<use xlink:href="#SVGID_1_"  style="overflow:visible;"/>
					</clipPath>
					<g class="st6">
						<circle class="st7" cx="110.5" cy="99" r="5.6"/>
						<circle class="st8" cx="110.5" cy="99" r="3.1"/>
						<circle class="st9" cx="111.9" cy="97.6" r="0.6"/>
					</g>
				</g>
				<path class="st10" d="M99.6,99.3c0,0,1.2-5.6,10.9-5.6s10.5,5.1,10.5,5.1C114.5,94.5,105.5,95.1,99.6,99.3z"/>
			</g>
			<g>
				<g>
					<defs>
						<path id="SVGID_3_" d="M75.2,99.3c0,0-2.7-3.6-10.9-3.6s-10.5,3.2-10.5,3.2s2.2,4.7,10.6,4.7S75.2,99.3,75.2,99.3z"/>
					</defs>
					<use xlink:href="#SVGID_3_"  style="overflow:visible;fill:#FFFFFF;"/>
					<clipPath id="SVGID_4_">
						<use xlink:href="#SVGID_3_"  style="overflow:visible;"/>
					</clipPath>
					<g class="st11">
						<circle class="st7" cx="64.3" cy="99" r="5.6"/>
						<circle class="st8" cx="64.3" cy="99" r="3.1"/>
						<circle class="st9" cx="65.7" cy="97.6" r="0.6"/>
					</g>
				</g>
				<path class="st10" d="M75.2,99.3c0,0-1.2-5.6-10.9-5.6s-10.5,5.1-10.5,5.1C60.3,94.5,69.3,95.1,75.2,99.3z"/>
			</g>
		</g>
		<g>
			<path class="st5" d="M123.2,92.6c-0.1,0.1-0.4-0.1-0.9-0.3c-0.5-0.3-1.1-0.6-1.9-0.9c-0.8-0.3-1.8-0.5-2.9-0.7
				c-1.1-0.1-2.3-0.1-3.5,0c-1.2,0.1-2.5,0.3-3.7,0.4c-1.2,0.1-2.4,0.3-3.4,0.4c-2,0.2-3.5,0.4-3.8,0.4c-1.2,0.1-2.3-0.8-2.4-2
				c-0.1-1.2,0.9-2.2,2.1-2.2c0.3,0,1.8,0,3.8-0.1c1,0,2.2,0,3.4,0c1.2,0,2.6,0,3.9,0.1c1.4,0.1,2.7,0.3,4,0.7
				c1.2,0.4,2.3,0.9,3.2,1.5c0.8,0.6,1.4,1.2,1.7,1.7C123.3,92.2,123.3,92.6,123.2,92.6z"/>
			<path class="st5" d="M51.6,92.6c0.1,0.1,0.4-0.1,0.9-0.3c0.5-0.3,1.1-0.6,1.9-0.9c0.8-0.3,1.8-0.5,2.9-0.7c1.1-0.1,2.3-0.1,3.5,0
				c1.2,0.1,2.5,0.3,3.7,0.4c1.2,0.1,2.4,0.3,3.4,0.4c2,0.2,3.5,0.4,3.8,0.4c1.2,0.1,2.3-0.8,2.4-2c0.1-1.2-0.9-2.2-2.1-2.2
				c-0.3,0-1.8,0-3.8-0.1c-1,0-2.2,0-3.4,0c-1.2,0-2.6,0-3.9,0.1c-1.4,0.1-2.7,0.3-4,0.7c-1.2,0.4-2.3,0.9-3.2,1.5
				c-0.8,0.6-1.4,1.2-1.7,1.7C51.5,92.2,51.5,92.6,51.6,92.6z"/>
		</g>
		<g>
			<path class="st12" d="M95.4,123.2c-2.3,0.2-6.3,0.9-8,1.1c-1.7-0.3-5.7-1-8-1.1c-5.2-0.3-9.8-0.6-14.8-2.3
				c2.4,2.4,10.4,15.9,22.2,16c0.2,0,0.9,0,1.1,0c11.8-0.1,19.8-13.6,22.2-16C105.1,122.6,100.5,122.9,95.4,123.2z"/>
			<path class="st9" d="M87.4,126.8c-10.3,0-18.2-3.5-18.2-3.5c1.9,1.1,8.3,7,17.7,7.1c0.1,0,0.7,0,0.9,0c9.4-0.1,15.8-6,17.7-7.1
				C105.6,123.3,97.7,126.8,87.4,126.8z"/>
		</g>
	</g>
</g>
</svg>
