<?xml version="1.0" encoding="utf-8"?>
<!-- Generator: Adobe Illustrator 20.1.0, SVG Export Plug-In . SVG Version: 6.00 Build 0)  -->
<svg version="1.1" id="Layer_1" xmlns="http://www.w3.org/2000/svg" xmlns:xlink="http://www.w3.org/1999/xlink" x="0px" y="0px"
	 viewBox="0 0 177 207.7" style="enable-background:new 0 0 177 207.7;" xml:space="preserve">
<style type="text/css">
	.st0{fill:#FCC299;}
	.st1{fill:#F9A66E;}
	.st2{fill:#492C17;}
	.st3{fill:#855636;}
	.st4{fill:#DC7B45;}
	.st5{fill:#F8A793;}
	.st6{clip-path:url(#SVGID_4_);}
	.st7{fill:#1A6959;}
	.st8{fill:#010101;}
	.st9{fill:#FFFFFF;}
	.st10{fill:#B18C79;}
	.st11{clip-path:url(#SVGID_6_);}
	.st12{fill:#F37A6E;}
	.st13{fill:#F1584B;}
</style>
<g>
	<defs>
		<path id="SVGID_1_" d="M142.3,45L142.3,45L142.3,45c-7.3-23.5-28.7-41.3-54.1-41.3c-25.3,0-46.8,17.8-54.1,41.2l0,0l0,0
			C33.8,46,4.6,203.1,4.6,203.1c19.6,0,34.5-14.7,34.5-34.3l19.1-7.6c0,0,9.3,0,5.7-18.3c-16.9-9.2-19.4-23.7-19.4-23.7l-1-4.7
			l1.6-43.4h86.4l2.4,43.8l-0.9,4.3c0,0-1.6,14-19.7,23.9c-5.2,16.9,5.4,18.1,5.4,18.1l21.4,8.6c0,19.6,12.3,33.3,31.8,33.3
			C172,203.1,142.7,46.1,142.3,45z"/>
	</defs>
	<clipPath id="SVGID_2_">
		<use xlink:href="#SVGID_1_"  style="overflow:visible;"/>
	</clipPath>
</g>
<g>
	<g>
		<path class="st0" d="M168.2,201.8c-2.8-8.7-5.5-16-8.2-20.8c-0.2-0.4-0.3-0.7-0.5-1.1c-0.4-0.7-1-1.5-1.5-2.2
			c-0.8-1.1-1.6-1.9-2.3-2.5c0,0-0.1,0-0.1-0.1c-12.7-11.5-41-15.3-41-22.3c0-7.9,0-33.6,0-33.6H65c0,0,0,25.8,0,33.6
			c0,7-28.1,10.8-40.9,22.2c-0.1,0.1-0.1,0.1-0.2,0.2c-0.9,0.7-1.8,1.7-2.7,3c-0.4,0.5-0.8,1.1-1.1,1.6c-0.1,0.2-0.2,0.5-0.3,0.7
			c-2.8,4.8-5.6,12.2-8.5,21.2H168.2z"/>
		<path class="st1" d="M114.5,144.1c0-10.5,0-24.8,0-24.8H65c0,0,0,21.7,0,31.4c1.2-3.6,9.5,0.8,20.4,2.9
			C96.5,155.7,109.1,152.2,114.5,144.1z"/>
		<path class="st2" d="M160,181c-0.2-0.4-0.3-0.7-0.5-1.1c-0.4-0.7-1-1.5-1.5-2.2c-0.8-1.1-1.6-1.9-2.3-2.5c0,0-0.1,0-0.1-0.1
			c-9.2-8.3-26.5-12.6-35.4-17c-7.3,8.6-18.2,14-30.3,14c-12.1,0-23-5.4-30.3-14c-8.9,4.4-26.1,8.6-35.3,16.9
			c-0.1,0.1-0.1,0.1-0.2,0.2c-0.9,0.7-1.8,1.7-2.7,3c-0.4,0.5-0.8,1.1-1.1,1.6c-0.1,0.2-0.2,0.5-0.3,0.7c-2.8,4.8-5.6,12.2-8.5,21.2
			h156.9C165.4,193.1,162.7,185.8,160,181z"/>
	</g>
	<g>
		<path class="st3" d="M63.6,19.4c2.8,0.3,5.5,0.5,8.3,0.8C60.7,22,50.3,27.9,43.6,36.4c1.3,0,2.6,0,3.9-0.1
			C38,43.6,32.6,55,33.2,66.4c0.6-0.5,1.1-1.1,1.7-1.6C31.8,88.1,46.4,114,46.4,114h89.4c20.2-58.4,4.7-91-9.5-87.5
			C107.2,9.3,73.3,13.2,63.6,19.4z"/>
		<g>
			<g>
				<path class="st0" d="M48,89.7c0,0-7-8.7-14.1-4.9c-12,6.5-1.7,33.6,13.1,28.5L48,89.7z"/>
				<path class="st1" d="M45.3,91.5c0,0-4.9-5.6-9.7-3.1c-8.2,4.1,1.9,23.6,9.2,18.1L45.3,91.5z"/>
			</g>
			<g>
				<path class="st0" d="M131.5,89.7c0,0,7-8.7,14.1-4.9c12,6.5,1.7,33.6-13.1,28.5L131.5,89.7z"/>
				<path class="st1" d="M134.2,91.5c0,0,4.9-5.6,9.7-3.1c8.2,4.1-1.9,23.6-9.2,18.1L134.2,91.5z"/>
			</g>
		</g>
		<path class="st0" d="M90.5,21.4c-26.3,0.3-47.5,15.7-47.5,51.3c0,15.7,0.4,42.2,6.5,52.1c6.1,9.8,14.2,14,20.9,18
			c6.5,3.8,12.3,6.4,20.1,6.6c7.8-0.1,13.6-2.7,20.1-6.6c6.7-3.9,14.9-8.1,20.9-18c6.1-9.9,6.5-36.4,6.5-52.1
			C138,37.2,116.8,21.7,90.5,21.4z"/>
		<path class="st4" d="M98.6,113c-0.1-0.6-0.4-1.1-0.7-1.4c-0.3-0.3-0.6-0.6-0.8-0.7c-0.2-0.1-0.4-0.2-0.4-0.1
			c-0.1,0.1,0.3,0.5,0.7,1.2c0.2,0.3,0.4,0.7,0.4,1.2c0.1,0.5,0,1-0.2,1.4c-0.2,0.4-0.6,0.6-1,0.6c-0.2,0-0.4-0.1-0.6-0.3
			c-0.2-0.1-0.4-0.3-0.6-0.3c-0.2-0.1-0.3-0.1-0.5-0.1c0.3-0.5,0.3-0.8,0.3-0.9c-0.1-0.1-0.5,0.5-1.3,1.2c-0.4,0.3-0.9,0.7-1.4,1
			c-0.6,0.3-1.3,0.5-2,0.5c-0.7,0-1.4-0.2-2-0.5c-0.6-0.3-1.1-0.6-1.5-1c-0.8-0.7-1.2-1.2-1.3-1.1c-0.1,0,0,0.3,0.2,0.7
			c-0.1,0-0.3,0-0.4,0.1c-0.2,0.1-0.4,0.2-0.6,0.3c-0.2,0.1-0.4,0.2-0.6,0.3c-0.3,0.1-0.7-0.2-1-0.6c-0.2-0.4-0.3-1-0.2-1.4
			c0.1-0.5,0.3-0.9,0.4-1.2c0.4-0.7,0.7-1,0.7-1.2c0,0-0.2,0-0.4,0.1c-0.2,0.1-0.5,0.3-0.8,0.7c-0.3,0.3-0.6,0.8-0.7,1.4
			c-0.1,0.6-0.2,1.3,0.2,2c0.2,0.3,0.5,0.6,0.8,0.8c0.3,0.2,0.8,0.3,1.1,0.1c0.4-0.1,0.6-0.3,0.8-0.5c0.2-0.2,0.4-0.3,0.5-0.4
			c0.2-0.1,0.3-0.2,0.5-0.2c0.1,0.1,0.2,0.3,0.3,0.4c0.4,0.4,0.9,0.9,1.6,1.2c0.7,0.4,1.5,0.6,2.4,0.6c0.9,0,1.7-0.3,2.4-0.7
			c0.7-0.4,1.2-0.9,1.5-1.3c0.1-0.1,0.1-0.2,0.2-0.3c0.2,0,0.3,0.1,0.5,0.2c0.1,0.1,0.3,0.2,0.5,0.4c0.2,0.2,0.4,0.3,0.8,0.5
			c0.4,0.1,0.8,0,1.1-0.1c0.3-0.2,0.6-0.5,0.8-0.8C98.8,114.3,98.8,113.6,98.6,113z"/>
		<g>
			<ellipse class="st5" cx="60.1" cy="108.8" rx="9.9" ry="5.1"/>
			<ellipse class="st5" cx="120.9" cy="108.8" rx="9.9" ry="5.1"/>
		</g>
		<g>
			<g>
				<g>
					<defs>
						<path id="SVGID_3_" d="M80.8,98.3c-6.3-7.7-15.2-8.7-22,0.5C68.3,104.3,77.2,100,80.8,98.3z"/>
					</defs>
					<use xlink:href="#SVGID_3_"  style="overflow:visible;fill:#FFFFFF;"/>
					<clipPath id="SVGID_4_">
						<use xlink:href="#SVGID_3_"  style="overflow:visible;"/>
					</clipPath>
					<g class="st6">
						
							<ellipse transform="matrix(0.999 -4.525502e-02 4.525502e-02 0.999 -4.3291 3.2451)" class="st7" cx="69.5" cy="97.2" rx="5.4" ry="5.4"/>
						
							<ellipse transform="matrix(0.999 -4.527608e-02 4.527608e-02 0.999 -4.3311 3.2466)" class="st8" cx="69.5" cy="97.2" rx="3" ry="3"/>
						
							<ellipse transform="matrix(0.999 -4.532173e-02 4.532173e-02 0.999 -4.2713 3.3139)" class="st9" cx="70.9" cy="95.9" rx="0.6" ry="0.6"/>
					</g>
				</g>
				<path class="st10" d="M80.8,98.3c-2.5-5.6-7.3-7.1-11.6-6.9c-3.9,0.2-8.5,2.3-10.5,7.4C66.3,92.1,74.7,92.6,80.8,98.3z"/>
			</g>
			<g>
				<g>
					<defs>
						<path id="SVGID_5_" d="M100.1,98.4c6.3-7.8,15.1-8.8,22,0.4C112.7,104.3,103.8,100,100.1,98.4z"/>
					</defs>
					<use xlink:href="#SVGID_5_"  style="overflow:visible;fill:#FFFFFF;"/>
					<clipPath id="SVGID_6_">
						<use xlink:href="#SVGID_5_"  style="overflow:visible;"/>
					</clipPath>
					<g class="st11">
						
							<ellipse transform="matrix(3.878738e-02 -0.9992 0.9992 3.878738e-02 9.917 204.7749)" class="st7" cx="111.4" cy="97.2" rx="5.4" ry="5.4"/>
						
							<ellipse transform="matrix(3.880424e-02 -0.9992 0.9992 3.880424e-02 9.9151 204.7733)" class="st8" cx="111.4" cy="97.2" rx="3" ry="3"/>
						
							<ellipse transform="matrix(3.890298e-02 -0.9992 0.9992 3.890298e-02 12.4564 205.094)" class="st9" cx="112.8" cy="96.1" rx="0.6" ry="0.6"/>
					</g>
				</g>
				<path class="st10" d="M100.1,98.4c2.5-5.6,7.3-7.1,11.5-6.9c3.9,0.2,8.5,2.2,10.5,7.3C114.6,92.1,106.2,92.6,100.1,98.4z"/>
			</g>
		</g>
		<g>
			<path class="st12" d="M91.2,126.2c1.5-0.6,2.9-1.2,4.3-1.8c3.8,1.1,7.9,2,12.1,2.5c0.1-0.2-4.9,6.7-17,6.9
				c-12.1-0.1-17.4-7-17.3-6.9c4.8-0.4,9.4-1.2,13.8-2.4C88.4,125.1,89.8,125.7,91.2,126.2z"/>
			<path class="st13" d="M91.2,126.2c1.5-0.6,2.9-1.2,4.3-1.8c3.8,1.1,7.9,2,12.1,2.5c-11.3,2.5-23,2.5-34.3,0
				c4.8-0.4,9.4-1.2,13.8-2.4C88.4,125.1,89.8,125.7,91.2,126.2z"/>
		</g>
		<g>
			<path class="st3" d="M126.1,88.4c-0.1,0.1-0.5-0.1-1-0.4c-0.5-0.3-1.3-0.7-2.2-1.1c-0.9-0.4-2.1-0.7-3.3-0.8
				c-1.3-0.1-2.6-0.1-4,0c-1.4,0.1-2.9,0.3-4.3,0.5c-1.4,0.2-2.8,0.3-3.9,0.5c-2.4,0.3-4.1,0.5-4.4,0.5c-1.4,0.1-2.7-1-2.8-2.4
				c-0.1-1.4,1-2.6,2.5-2.7c0.4,0,2.1-0.1,4.5-0.1c1.2,0,2.5,0,4,0c1.4,0,3,0,4.6,0.1c1.6,0.1,3.2,0.4,4.6,0.8
				c1.5,0.5,2.7,1.1,3.7,1.9c1,0.7,1.6,1.5,2,2.1C126.2,87.9,126.2,88.3,126.1,88.4z"/>
			<path class="st3" d="M54.8,88.4c0.1,0.1,0.5-0.1,1-0.4c0.5-0.3,1.3-0.7,2.2-1.1c0.9-0.4,2.1-0.7,3.3-0.8c1.3-0.1,2.6-0.1,4,0
				c1.4,0.1,2.9,0.3,4.3,0.5c1.4,0.2,2.8,0.3,3.9,0.5c2.4,0.3,4.1,0.5,4.4,0.5c1.4,0.1,2.7-1,2.8-2.4c0.1-1.4-1-2.6-2.5-2.7
				c-0.4,0-2.1-0.1-4.5-0.1c-1.2,0-2.5,0-4,0c-1.4,0-3,0-4.6,0.1c-1.6,0.1-3.2,0.4-4.6,0.8c-1.5,0.5-2.7,1.1-3.7,1.9
				c-1,0.7-1.6,1.5-2,2.1C54.8,87.9,54.7,88.3,54.8,88.4z"/>
		</g>
		<path class="st3" d="M43.4,93.3c0,0,2.2-10.9,5.4-17.6C52,69,57.7,63.4,64.6,62.5c-0.4,1.1-0.8,2.1-1.2,3.2
			c9.5-3.4,18.9-6.7,28.4-10.1c-0.6,1-1.3,1.9-1.9,2.9c12.2-0.1,24.3-6,32.6-15.9c2.4,9.4,4.7,19.1,7.1,28.5c0.5-1.3,1-2.6,1.6-3.8
			c1,9.3,5.7,22.5,5.8,25l2.1-3.1c0.9-32.2,2.7-69.3-48.7-69.3c-49.8,0-49.3,39.6-48.6,69.3L43.4,93.3z"/>
	</g>
</g>
</svg>
