<?xml version="1.0" encoding="utf-8"?>
<!-- Generator: Adobe Illustrator 20.1.0, SVG Export Plug-In . SVG Version: 6.00 Build 0)  -->
<svg version="1.1" id="Layer_1" xmlns="http://www.w3.org/2000/svg" xmlns:xlink="http://www.w3.org/1999/xlink" x="0px" y="0px"
	 viewBox="0 0 177 207.7" style="enable-background:new 0 0 177 207.7;" xml:space="preserve">
<style type="text/css">
	.st0{fill:#FCC299;}
	.st1{fill:#F9A66E;}
	.st2{fill:#53738B;}
	.st3{fill:#3E2D23;}
	.st4{fill:#DC7B45;}
	.st5{fill:#F8A793;}
	.st6{clip-path:url(#SVGID_4_);}
	.st7{fill:#010101;}
	.st8{fill:#FFFFFF;}
	.st9{fill:#B18C79;}
	.st10{clip-path:url(#SVGID_6_);}
	.st11{fill:#F37A6E;}
	.st12{fill:#A21D21;}
</style>
<g>
	<defs>
		<path id="SVGID_1_" d="M142.3,45L142.3,45L142.3,45c-7.3-23.5-28.7-41.3-54.1-41.3c-25.3,0-46.8,17.8-54.1,41.2l0,0l0,0
			C33.8,46,4.6,203.1,4.6,203.1c19.6,0,34.5-14.7,34.5-34.3l19.1-7.6c0,0,9.3,0,5.7-18.3c-16.9-9.2-19.4-23.7-19.4-23.7l-1-4.7
			l1.6-43.4h86.4l2.4,43.8l-0.9,4.3c0,0-1.6,14-19.7,23.9c-5.2,16.9,5.4,18.1,5.4,18.1l21.4,8.6c0,19.6,12.3,33.3,31.8,33.3
			C172,203.1,142.7,46.1,142.3,45z"/>
	</defs>
	<clipPath id="SVGID_2_">
		<use xlink:href="#SVGID_1_"  style="overflow:visible;"/>
	</clipPath>
</g>
<g>
	<g>
		<path class="st0" d="M167.9,202.1c-2.8-8.7-5.5-16-8.2-20.8c-0.2-0.4-0.3-0.7-0.5-1.1c-0.4-0.7-1-1.5-1.5-2.2
			c-0.8-1.1-1.6-1.9-2.3-2.5c0,0-0.1,0-0.1-0.1c-12.7-11.5-41-15.3-41-22.3c0-7.9,0-33.6,0-33.6H64.7c0,0,0,25.8,0,33.6
			c0,7-28.1,10.8-40.9,22.2c-0.1,0.1-0.1,0.1-0.2,0.2c-0.9,0.7-1.8,1.7-2.7,3c-0.4,0.5-0.8,1.1-1.1,1.6c-0.1,0.2-0.2,0.5-0.3,0.7
			c-2.8,4.8-5.6,12.2-8.5,21.2H167.9z"/>
		<path class="st1" d="M114.2,144.4c0-10.5,0-24.8,0-24.8H64.7c0,0,0,21.7,0,31.4c1.2-3.6,9.5,0.8,20.4,2.9
			C96.3,156,108.9,152.5,114.2,144.4z"/>
		<path class="st2" d="M159.7,181.3c-0.2-0.4-0.3-0.7-0.5-1.1c-0.4-0.7-1-1.5-1.5-2.2c-0.8-1.1-1.6-1.9-2.3-2.5c0,0-0.1,0-0.1-0.1
			c-9.2-8.3-26.5-12.6-35.4-17c-7.3,8.6-18.2,14-30.3,14c-12.1,0-23-5.4-30.3-14c-8.9,4.4-26.1,8.6-35.3,16.9
			c-0.1,0.1-0.1,0.1-0.2,0.2c-0.9,0.7-1.8,1.7-2.7,3c-0.4,0.5-0.8,1.1-1.1,1.6c-0.1,0.2-0.2,0.5-0.3,0.7c-2.8,4.8-5.6,12.2-8.5,21.2
			h156.9C165.2,193.3,162.4,186.1,159.7,181.3z"/>
	</g>
	<g>
		<path class="st3" d="M114.4,22.5c9-6.7,51.1,25,26.7,92.7c-6.2,6-12.7,9.8-19.4,12C129.2,81.9,121.9,65.6,114.4,22.5z"/>
		<g>
			<g>
				<path class="st0" d="M45.6,89.7c0,0-7-8.7-14.1-4.9c-12,6.5-1.7,33.6,13.1,28.5L45.6,89.7z"/>
				<path class="st1" d="M42.9,91.4c0,0-4.9-5.6-9.7-3.1C25,92.4,35,112,42.4,106.4L42.9,91.4z"/>
			</g>
			<g>
				<path class="st0" d="M129,89.7c0,0,7-8.7,14.1-4.9c12,6.5,1.7,33.6-13.1,28.5L129,89.7z"/>
				<path class="st1" d="M131.7,91.4c0,0,4.9-5.6,9.7-3.1c8.2,4.1-1.9,23.6-9.2,18.1L131.7,91.4z"/>
			</g>
		</g>
		<path class="st0" d="M88,21.4c-26.3,0.3-47.5,15.3-47.5,50c0,15.3,0.4,41.2,6.5,50.8c6.1,9.6,23.1,26.1,41,26.1
			c17.9,0,35-16.5,41-26.1c6.1-9.6,6.5-35.5,6.5-50.8C135.5,36.7,114.3,21.7,88,21.4z"/>
		<path class="st4" d="M96.2,112.9c-0.1-0.6-0.4-1.1-0.7-1.4c-0.3-0.3-0.6-0.6-0.8-0.7c-0.2-0.1-0.4-0.2-0.4-0.1
			c-0.1,0.1,0.3,0.5,0.7,1.2c0.2,0.3,0.4,0.7,0.4,1.2c0.1,0.5,0,1-0.2,1.4c-0.2,0.4-0.6,0.6-1,0.6c-0.2,0-0.4-0.1-0.6-0.3
			c-0.2-0.1-0.4-0.3-0.6-0.3c-0.2-0.1-0.3-0.1-0.5-0.1c0.3-0.5,0.3-0.8,0.3-0.9c-0.1-0.1-0.5,0.5-1.3,1.2c-0.4,0.3-0.9,0.7-1.4,1
			c-0.6,0.3-1.3,0.5-2,0.5c-0.7,0-1.4-0.2-2-0.5c-0.6-0.3-1.1-0.6-1.5-1c-0.8-0.7-1.2-1.2-1.3-1.1c-0.1,0,0,0.3,0.2,0.7
			c-0.1,0-0.3,0-0.4,0.1c-0.2,0.1-0.4,0.2-0.6,0.3c-0.2,0.1-0.4,0.2-0.6,0.3c-0.3,0.1-0.7-0.2-1-0.6c-0.2-0.4-0.3-1-0.2-1.4
			c0.1-0.5,0.3-0.9,0.4-1.2c0.4-0.7,0.7-1,0.7-1.2c0,0-0.2,0-0.4,0.1c-0.2,0.1-0.5,0.3-0.8,0.7c-0.3,0.3-0.6,0.8-0.7,1.4
			c-0.1,0.6-0.2,1.3,0.2,2c0.2,0.3,0.5,0.6,0.8,0.8c0.3,0.2,0.8,0.3,1.1,0.1c0.4-0.1,0.6-0.3,0.8-0.5c0.2-0.2,0.4-0.3,0.5-0.4
			c0.2-0.1,0.3-0.2,0.5-0.2c0.1,0.1,0.2,0.3,0.3,0.4c0.4,0.4,0.9,0.9,1.6,1.2c0.7,0.4,1.5,0.6,2.4,0.6c0.9,0,1.7-0.3,2.4-0.7
			c0.7-0.4,1.2-0.9,1.5-1.3c0.1-0.1,0.1-0.2,0.2-0.3c0.2,0,0.3,0.1,0.5,0.2c0.1,0.1,0.3,0.2,0.5,0.4c0.2,0.2,0.4,0.3,0.8,0.5
			c0.4,0.1,0.8,0,1.1-0.1c0.3-0.2,0.6-0.5,0.8-0.8C96.4,114.3,96.3,113.5,96.2,112.9z"/>
		<g>
			<ellipse class="st5" cx="57.6" cy="108.8" rx="9.9" ry="5.1"/>
			<ellipse class="st5" cx="118.4" cy="108.8" rx="9.9" ry="5.1"/>
		</g>
		<g>
			<g>
				<g>
					<defs>
						<path id="SVGID_3_" d="M99.1,97c0,0,2.9-3.8,11.5-3.8c8.7,0,11.1,3.4,11.1,3.4s-2.3,5-11.2,5C101.7,101.5,99.1,97,99.1,97z"/>
					</defs>
					<use xlink:href="#SVGID_3_"  style="overflow:visible;fill:#FFFFFF;"/>
					<clipPath id="SVGID_4_">
						<use xlink:href="#SVGID_3_"  style="overflow:visible;"/>
					</clipPath>
					<g class="st6">
						<circle class="st2" cx="110.7" cy="95.9" r="5.9"/>
						<circle class="st7" cx="110.7" cy="95.9" r="3.3"/>
						<circle class="st8" cx="112.1" cy="94.4" r="0.7"/>
					</g>
				</g>
				<path class="st9" d="M99.1,97c0,0,1.3-5.9,11.5-5.9s11.1,5.4,11.1,5.4C114.8,91.9,105.4,92.5,99.1,97z"/>
			</g>
			<g>
				<g>
					<defs>
						<path id="SVGID_5_" d="M76.9,97c0,0-2.9-3.8-11.5-3.8s-11.1,3.4-11.1,3.4s2.3,5,11.2,5C74.3,101.5,76.9,97,76.9,97z"/>
					</defs>
					<use xlink:href="#SVGID_5_"  style="overflow:visible;fill:#FFFFFF;"/>
					<clipPath id="SVGID_6_">
						<use xlink:href="#SVGID_5_"  style="overflow:visible;"/>
					</clipPath>
					<g class="st10">
						<circle class="st2" cx="65.4" cy="95.9" r="5.9"/>
						<circle class="st7" cx="65.4" cy="95.9" r="3.3"/>
						<circle class="st8" cx="66.8" cy="94.4" r="0.7"/>
					</g>
				</g>
				<path class="st9" d="M76.9,97c0,0-1.3-5.9-11.5-5.9s-11.1,5.4-11.1,5.4C61.2,91.9,70.6,92.5,76.9,97z"/>
			</g>
		</g>
		<g>
			<path class="st3" d="M123.8,87.8c-0.1,0.1-0.4-0.1-0.9-0.3c-0.5-0.3-1.1-0.6-1.9-0.9c-0.8-0.3-1.8-0.5-2.9-0.7
				c-1.1-0.1-2.3-0.1-3.5,0c-1.2,0.1-2.5,0.3-3.7,0.4c-1.2,0.1-2.4,0.3-3.4,0.4c-2,0.2-3.5,0.4-3.8,0.4c-1.2,0.1-2.3-0.8-2.4-2
				c-0.1-1.2,0.9-2.2,2.1-2.2c0.3,0,1.8,0,3.8-0.1c1,0,2.2,0,3.4,0c1.2,0,2.6,0,3.9,0.1c1.4,0.1,2.7,0.3,4,0.7
				c1.2,0.4,2.3,0.9,3.2,1.5c0.8,0.6,1.4,1.2,1.7,1.7C123.9,87.4,124,87.7,123.8,87.8z"/>
			<path class="st3" d="M52.2,87.8c0.1,0.1,0.4-0.1,0.9-0.3c0.5-0.3,1.1-0.6,1.9-0.9c0.8-0.3,1.8-0.5,2.9-0.7c1.1-0.1,2.3-0.1,3.5,0
				c1.2,0.1,2.5,0.3,3.7,0.4c1.2,0.1,2.4,0.3,3.4,0.4c2,0.2,3.5,0.4,3.8,0.4c1.2,0.1,2.3-0.8,2.4-2c0.1-1.2-0.9-2.2-2.1-2.2
				c-0.3,0-1.8,0-3.8-0.1c-1,0-2.2,0-3.4,0c-1.2,0-2.6,0-3.9,0.1c-1.4,0.1-2.7,0.3-4,0.7c-1.2,0.4-2.3,0.9-3.2,1.5
				c-0.8,0.6-1.4,1.2-1.7,1.7C52.1,87.4,52.1,87.7,52.2,87.8z"/>
		</g>
		<path class="st3" d="M58.6,143.5C30.3,129.5,26,98.8,26,98.8S25.6,54.9,44,35.3c20.4-21.7,52.3-24.3,70.4-12.8
			c30.6,19.7,23.7,57.1,23.7,57.1l-2.7,5.1c-4.3-13.9-13-30.6-23-39.7C112.4,45,36.3,59.5,58.6,143.5z"/>
		<g>
			<g>
				<path class="st11" d="M92,122.4c-1.9,0.1-2.2,0.9-4,1c-1.8,0-2.1-0.8-4-1c-3.9-0.4-6.4,0.4-11.1,2.7c3.2,4.9,8.5,10.1,15.1,10.1
					c6.6,0,11.9-5.2,15.1-10.1C98.4,122.7,95.9,122,92,122.4z"/>
			</g>
			<g>
				<path class="st12" d="M88,124.6c-10.4,0-13.1,1-13.1,1s7.4,3.8,13.1,3.8c5.7,0,13.1-3.8,13.1-3.8S98.4,124.6,88,124.6z"/>
			</g>
			<path class="st8" d="M77.1,125.2c2.6,1.1,7.2,2.8,11,2.8c3.8,0,8.3-1.7,11-2.8c-1.9-0.3-5.3-0.5-11-0.5S79,124.9,77.1,125.2z"/>
		</g>
	</g>
</g>
</svg>
