<?xml version="1.0" encoding="utf-8"?>
<!-- Generator: Adobe Illustrator 20.1.0, SVG Export Plug-In . SVG Version: 6.00 Build 0)  -->
<svg version="1.1" id="Layer_1" xmlns="http://www.w3.org/2000/svg" xmlns:xlink="http://www.w3.org/1999/xlink" x="0px" y="0px"
	 viewBox="0 0 177 207.7" style="enable-background:new 0 0 177 207.7;" xml:space="preserve">
<style type="text/css">
	.st0{fill:#B68461;}
	.st1{fill:#92603E;}
	.st2{fill:#1A1819;}
	.st3{fill:#735542;}
	.st4{fill:#492C17;}
	.st5{clip-path:url(#SVGID_4_);}
	.st6{fill:#5E371C;}
	.st7{fill:#010101;}
	.st8{fill:#FFFFFF;}
	.st9{clip-path:url(#SVGID_6_);}
	.st10{fill:#E87870;}
	.st11{fill:#94332C;}
	.st12{fill:#4F4E56;}
	.st13{fill:#DBDDDD;}
</style>
<g>
	<defs>
		<path id="SVGID_1_" d="M142.3,45L142.3,45L142.3,45c-7.3-23.5-28.7-41.3-54.1-41.3c-25.3,0-46.8,17.8-54.1,41.2l0,0l0,0
			C33.8,46,4.6,203.1,4.6,203.1c19.6,0,34.5-14.7,34.5-34.3l19.1-7.6c0,0,9.3,0,5.7-18.3c-16.9-9.2-19.4-23.7-19.4-23.7l-1-4.7
			l1.6-43.4h86.4l2.4,43.8l-0.9,4.3c0,0-1.6,14-19.7,23.9c-5.2,16.9,5.4,18.1,5.4,18.1l21.4,8.6c0,19.6,12.3,33.3,31.8,33.3
			C172,203.1,142.7,46.1,142.3,45z"/>
	</defs>
	<clipPath id="SVGID_2_">
		<use xlink:href="#SVGID_1_"  style="overflow:visible;"/>
	</clipPath>
</g>
<g>
	<path class="st0" d="M167.1,206.5c-2.8-8.7-5.5-16-8.2-20.8c-0.2-0.4-0.3-0.7-0.5-1.1c-0.4-0.7-1-1.5-1.5-2.2
		c-0.8-1.1-1.6-1.9-2.3-2.5c0,0-0.1,0-0.1-0.1c-12.7-11.5-41-15.3-41-22.3c0-7.9,0-33.6,0-33.6H63.9c0,0,0,25.8,0,33.6
		c0,7-28.1,10.8-40.9,22.2c-0.1,0.1-0.1,0.1-0.2,0.2c-0.9,0.7-1.8,1.7-2.7,3c-0.4,0.5-0.8,1.1-1.1,1.6c-0.1,0.2-0.2,0.5-0.3,0.7
		c-2.8,4.8-5.6,12.2-8.5,21.2H167.1z"/>
	<path class="st1" d="M113.4,148.8c0-10.5,0-24.8,0-24.8H63.9c0,0,0,21.7,0,31.4c1.2-3.6,9.5,0.8,20.4,2.9
		C95.4,160.5,108,156.9,113.4,148.8z"/>
	<path class="st2" d="M158.8,185.7c-0.2-0.4-0.3-0.7-0.5-1.1c-0.4-0.7-1-1.5-1.5-2.2c-0.8-1.1-1.6-1.9-2.3-2.5c0,0-0.1,0-0.1-0.1
		c-9.2-8.3-26.5-12.6-35.4-17c-7.3,8.6-18.2,14-30.3,14c-12.1,0-23-5.4-30.3-14c-8.9,4.4-26.1,8.6-35.3,16.9
		c-0.1,0.1-0.1,0.1-0.2,0.2c-0.9,0.7-1.8,1.7-2.7,3c-0.4,0.5-0.8,1.1-1.1,1.6c-0.1,0.2-0.2,0.5-0.3,0.7c-2.8,4.8-5.6,12.2-8.5,21.2
		h156.9C164.3,197.8,161.5,190.6,158.8,185.7z"/>
</g>
<g>
	<g>
		<path class="st0" d="M47.2,92.4c0,0-7-8.7-14.1-4.9c-12,6.5-1.7,33.6,13.1,28.5L47.2,92.4z"/>
		<path class="st1" d="M44.5,94.2c0,0-4.9-5.6-9.7-3.1c-8.2,4.1,1.9,23.6,9.2,18.1L44.5,94.2z"/>
	</g>
	<g>
		<path class="st0" d="M130.7,92.4c0,0,7-8.7,14.1-4.9c12,6.5,1.7,33.6-13.1,28.5L130.7,92.4z"/>
		<path class="st1" d="M133.3,94.2c0,0,4.9-5.6,9.7-3.1c8.2,4.1-1.9,23.6-9.2,18.1L133.3,94.2z"/>
	</g>
</g>
<path class="st0" d="M89.6,24.2c-26.3,0.3-47.5,15.7-47.5,51.3c0,15.7,0.4,42.2,6.5,52.1c6.1,9.8,14.2,14,20.9,18
	c6.5,3.8,12.3,8.5,20.1,8.7c7.8-0.1,13.6-4.8,20.1-8.7c6.7-3.9,14.9-8.1,20.9-18c6.1-9.8,6.5-36.4,6.5-52.1
	C137.2,39.9,115.9,24.4,89.6,24.2z"/>
<path class="st3" d="M97.8,116.7c-0.1-0.6-0.4-1.1-0.7-1.4c-0.3-0.3-0.6-0.6-0.8-0.7c-0.2-0.1-0.4-0.2-0.4-0.1
	c-0.1,0.1,0.3,0.5,0.7,1.2c0.2,0.3,0.4,0.7,0.4,1.2c0.1,0.5,0,1-0.2,1.4c-0.2,0.4-0.6,0.6-1,0.6c-0.2,0-0.4-0.1-0.6-0.3
	c-0.2-0.1-0.4-0.3-0.6-0.3c-0.2-0.1-0.3-0.1-0.5-0.1c0.3-0.5,0.3-0.8,0.3-0.9c-0.1-0.1-0.5,0.5-1.3,1.2c-0.4,0.3-0.9,0.7-1.4,1
	c-0.6,0.3-1.3,0.5-2,0.5c-0.7,0-1.4-0.2-2-0.5c-0.6-0.3-1.1-0.6-1.5-1c-0.8-0.7-1.2-1.2-1.3-1.1c-0.1,0,0,0.3,0.2,0.7
	c-0.1,0-0.3,0-0.4,0.1c-0.2,0.1-0.4,0.2-0.6,0.3c-0.2,0.1-0.4,0.2-0.6,0.3c-0.3,0.1-0.7-0.2-1-0.6c-0.2-0.4-0.3-1-0.2-1.4
	c0.1-0.5,0.3-0.9,0.4-1.2c0.4-0.7,0.7-1,0.7-1.2c0,0-0.2,0-0.4,0.1c-0.2,0.1-0.5,0.3-0.8,0.7c-0.3,0.3-0.6,0.8-0.7,1.4
	c-0.1,0.6-0.2,1.3,0.2,2c0.2,0.3,0.5,0.6,0.8,0.8c0.3,0.2,0.8,0.3,1.1,0.1c0.4-0.1,0.6-0.3,0.8-0.5c0.2-0.2,0.4-0.3,0.5-0.4
	c0.2-0.1,0.3-0.2,0.5-0.2c0.1,0.1,0.2,0.3,0.3,0.4c0.4,0.4,0.9,0.9,1.6,1.2c0.7,0.4,1.5,0.6,2.4,0.6c0.9,0,1.7-0.3,2.4-0.7
	c0.7-0.4,1.2-0.9,1.5-1.3c0.1-0.1,0.1-0.2,0.2-0.3c0.2,0,0.3,0.1,0.5,0.2c0.1,0.1,0.3,0.2,0.5,0.4c0.2,0.2,0.4,0.3,0.8,0.5
	c0.4,0.1,0.8,0,1.1-0.1c0.3-0.2,0.6-0.5,0.8-0.8C98,118.1,98,117.3,97.8,116.7z"/>
<g>
	<path class="st4" d="M126.7,88.1c-0.1,0.1-0.5-0.1-1-0.4c-0.5-0.3-1.2-0.7-2.1-1c-0.9-0.3-2-0.6-3.1-0.7c-1.2-0.1-2.5-0.1-3.8,0
		c-1.3,0.1-2.7,0.3-4,0.5c-1.3,0.2-2.6,0.3-3.7,0.4c-2.2,0.3-3.8,0.4-4.2,0.4c-1.3,0.1-2.5-0.9-2.6-2.2c-0.1-1.3,1-2.5,2.3-2.5
		c0.3,0,1.9-0.1,4.2-0.1c1.1,0,2.4,0,3.7,0c1.3,0,2.8,0,4.3,0.1c1.5,0.1,3,0.3,4.3,0.8c1.4,0.4,2.6,1,3.5,1.7c0.9,0.7,1.5,1.4,1.9,2
		C126.7,87.6,126.8,88,126.7,88.1z"/>
	<path class="st4" d="M52.6,88.1c0.1,0.1,0.5-0.1,1-0.4c0.5-0.3,1.2-0.7,2.1-1c0.9-0.3,2-0.6,3.1-0.7c1.2-0.1,2.5-0.1,3.8,0
		c1.3,0.1,2.7,0.3,4,0.5c1.3,0.2,2.6,0.3,3.7,0.4c2.2,0.3,3.8,0.4,4.2,0.4c1.3,0.1,2.5-0.9,2.6-2.2c0.1-1.3-1-2.5-2.3-2.5
		c-0.3,0-1.9-0.1-4.2-0.1c-1.1,0-2.4,0-3.7,0c-1.3,0-2.8,0-4.3,0.1c-1.5,0.1-3,0.3-4.3,0.8c-1.4,0.4-2.6,1-3.5,1.7
		c-0.9,0.7-1.5,1.4-1.9,2C52.5,87.6,52.4,88,52.6,88.1z"/>
</g>
<g>
	<g>
		<g>
			<defs>
				<path id="SVGID_3_" d="M102,96.8c-0.1-2.9,6.3-6.3,10-6.2c3.2,0,10,1.9,9.6,5.8c-0.2,2.2-1.9,4.3-9.6,4.3S102,98.6,102,96.8z"/>
			</defs>
			<use xlink:href="#SVGID_3_"  style="overflow:visible;fill:#FFFFFF;"/>
			<clipPath id="SVGID_4_">
				<use xlink:href="#SVGID_3_"  style="overflow:visible;"/>
			</clipPath>
			<g class="st5">
				<circle class="st6" cx="112" cy="95.7" r="5.7"/>
				<circle class="st7" cx="112" cy="95.7" r="3.2"/>
				<circle class="st8" cx="113.9" cy="96.3" r="0.6"/>
			</g>
		</g>
		<path class="st3" d="M102,96.5c-0.3-4.1,6-6.6,10-6.6c3.7,0,10.4,1.9,9.6,6.4C114.5,91.2,106.5,93.5,102,96.5z"/>
	</g>
	<g>
		<g>
			<defs>
				<path id="SVGID_5_" d="M77.3,96.8c0.1-2.9-6.3-6.3-10-6.2c-3.2,0-10,1.9-9.6,5.8c0.2,2.2,1.9,4.3,9.6,4.3S77.2,98.6,77.3,96.8z"
					/>
			</defs>
			<use xlink:href="#SVGID_5_"  style="overflow:visible;fill:#FFFFFF;"/>
			<clipPath id="SVGID_6_">
				<use xlink:href="#SVGID_5_"  style="overflow:visible;"/>
			</clipPath>
			<g class="st9">
				<circle class="st6" cx="67.3" cy="95.7" r="5.7"/>
				<circle class="st7" cx="67.3" cy="95.7" r="3.2"/>
				<circle class="st8" cx="69.2" cy="96.3" r="0.6"/>
			</g>
		</g>
		<path class="st3" d="M77.3,96.5c0.3-4.1-6-6.6-10-6.6c-3.7,0-10.4,1.9-9.6,6.4C64.8,91.2,72.8,93.5,77.3,96.5z"/>
	</g>
</g>
<g>
	<path class="st10" d="M107,126.5c-4.8,4.5-6.7,9.6-17.3,10c-10.5-0.3-13.1-6.1-17.3-10c-0.2-0.2,0-0.5,0.2-0.4
		c5.2,1.8,8.1-1.3,12.3-0.8c1.6,0.1,1.8,1.3,4.8,1.4c2.8-0.1,3-1.5,5.1-1.4c3.5-0.1,6.6,2.9,12,0.9C107,126.1,107.2,126.4,107,126.5
		z"/>
	<path class="st11" d="M99.9,128.5c-1.8,0.1-3.7,0-5.1,0.4c0.6-0.6,0.8-1.1,0.7-1.1c-0.1,0-0.5,0.5-1.4,1c-0.9,0.6-2.4,1.2-4.1,1.2
		c-1.7,0-3.3-0.5-4.2-1c-1-0.5-1.5-0.9-1.6-0.9c-0.1,0,0.1,0.4,0.7,1c-0.1,0-0.2-0.1-0.3-0.1c-1.4-0.4-3.4-0.4-5.3-0.4
		c-4-0.1-6.8-2.4-6.9-2.2c0,0,0.1,0.2,0.4,0.4c0.3,0.3,0.7,0.6,1.3,1c0.6,0.4,1.4,0.8,2.3,1.1c0.9,0.3,2,0.5,3,0.5
		c2.1,0.1,3.8-0.1,5,0.1c0.7,0.1,1.2,0.2,1.5,0.3c1,0.5,2.4,1,4,1c1.6,0,3-0.5,3.9-1.1c0.2-0.1,0.5-0.1,0.8-0.2
		c1.2-0.2,2.9-0.1,5-0.1c1-0.1,2.1-0.2,3-0.5c0.9-0.3,1.7-0.7,2.3-1.1c0.6-0.4,1-0.7,1.3-1c0.3-0.3,0.4-0.4,0.4-0.4
		C106.7,126.1,103.9,128.5,99.9,128.5z"/>
</g>
<g>
	<path class="st8" d="M139.3,76.5c0,19.7,0.7-11.8-49.8-11.8C39,64.8,39,96.2,39,76.5c0-19.7,22.5-35.6,50.2-35.6
		C116.9,40.9,139.3,56.9,139.3,76.5z"/>
	<path class="st12" d="M156.4,167.2c-5.6-4.5-10.8-14-10.8-14c5.7-24.1,5.7-51.9,5.7-73.1C151.4,33,130.5,2,89.1,2
		C47.7,2,26.9,33,26.9,80.1c0,21.2,0,49,5.7,73.1c-1.8,4.9-5.1,9.4-10.8,14c-20.4,16.4,32.4,39.3,67.3,39.3
		C124,206.5,176.8,183.6,156.4,167.2z M43.2,92.4c0-25,22.8-48.8,45.9-48.8c23.1,0,45.9,23.8,45.9,48.8s-17.3,60.5-45.9,60.5
		C60.6,152.9,43.2,117.4,43.2,92.4z"/>
	<path class="st13" d="M88.9,175.7c-26.4,0-44.4-16-44.7-16.3c-0.8-0.7-0.8-1.8,0-2.5c0.8-0.7,2.1-0.7,2.8,0
		c1.5,1.4,38.3,33.9,84.3-0.1c0.9-0.6,2.1-0.5,2.8,0.2c0.7,0.8,0.6,1.9-0.3,2.5C117.6,171.6,102.2,175.7,88.9,175.7z"/>
	<path class="st13" d="M88.9,188.2c-26.4,0-44.4-16-44.7-16.3c-0.8-0.7-0.8-1.8,0-2.5c0.8-0.7,2.1-0.7,2.8,0
		c1.5,1.4,38.3,33.9,84.3-0.1c0.9-0.6,2.1-0.5,2.8,0.2c0.7,0.8,0.6,1.9-0.3,2.5C117.6,184.2,102.2,188.2,88.9,188.2z"/>
</g>
</svg>
