<?xml version="1.0" encoding="utf-8"?>
<!-- Generator: Adobe Illustrator 20.1.0, SVG Export Plug-In . SVG Version: 6.00 Build 0)  -->
<svg version="1.1" id="Layer_1" xmlns="http://www.w3.org/2000/svg" xmlns:xlink="http://www.w3.org/1999/xlink" x="0px" y="0px"
	 viewBox="0 0 177 207.7" style="enable-background:new 0 0 177 207.7;" xml:space="preserve">
<style type="text/css">
	.st0{fill:#FCC299;}
	.st1{fill:#F9A66E;}
	.st2{fill:#F4D798;}
	.st3{fill:#855636;}
	.st4{fill:#DC7B45;}
	.st5{fill:#F8A793;}
	.st6{clip-path:url(#SVGID_4_);}
	.st7{fill:#010101;}
	.st8{fill:#FFFFFF;}
	.st9{fill:#B18C79;}
	.st10{clip-path:url(#SVGID_6_);}
	.st11{fill:#F37A6E;}
	.st12{fill:#94332C;}
	.st13{fill:#E63336;}
</style>
<g>
	<defs>
		<path id="SVGID_1_" d="M142.3,45L142.3,45L142.3,45c-7.3-23.5-28.7-41.3-54.1-41.3c-25.3,0-46.8,17.8-54.1,41.2l0,0l0,0
			C33.8,46,4.6,203.1,4.6,203.1c19.6,0,34.5-14.7,34.5-34.3l19.1-7.6c0,0,9.3,0,5.7-18.3c-16.9-9.2-19.4-23.7-19.4-23.7l-1-4.7
			l1.6-43.4h86.4l2.4,43.8l-0.9,4.3c0,0-1.6,14-19.7,23.9c-5.2,16.9,5.4,18.1,5.4,18.1l21.4,8.6c0,19.6,12.3,33.3,31.8,33.3
			C172,203.1,142.7,46.1,142.3,45z"/>
	</defs>
	<clipPath id="SVGID_2_">
		<use xlink:href="#SVGID_1_"  style="overflow:visible;"/>
	</clipPath>
</g>
<g>
	<g>
		<path class="st0" d="M169,201.2c-2.8-8.7-5.5-16-8.2-20.8c-0.2-0.4-0.3-0.7-0.5-1.1c-0.4-0.7-1-1.5-1.5-2.2
			c-0.8-1.1-1.6-1.9-2.3-2.5c0,0-0.1,0-0.1-0.1c-12.7-11.5-41-15.3-41-22.3c0-7.9,0-33.6,0-33.6H65.8c0,0,0,25.8,0,33.6
			c0,7-28.1,10.8-40.9,22.2c-0.1,0.1-0.1,0.1-0.2,0.2c-0.9,0.7-1.8,1.7-2.7,3c-0.4,0.5-0.8,1.1-1.1,1.6c-0.1,0.2-0.2,0.5-0.3,0.7
			c-2.8,4.8-5.6,12.2-8.5,21.2H169z"/>
		<path class="st1" d="M115.3,143.5c0-10.5,0-24.8,0-24.8H65.8c0,0,0,21.7,0,31.4c1.2-3.6,9.5,0.8,20.4,2.9
			C97.4,155.1,109.9,151.6,115.3,143.5z"/>
		<path class="st2" d="M160.8,180.4c-0.2-0.4-0.3-0.7-0.5-1.1c-0.4-0.7-1-1.5-1.5-2.2c-0.8-1.1-1.6-1.9-2.3-2.5c0,0-0.1,0-0.1-0.1
			c-9.2-8.3-26.5-12.6-35.4-17c-7.3,8.6-18.2,14-30.3,14c-12.1,0-23-5.4-30.3-14c-8.9,4.4-26.1,8.6-35.3,16.9
			c-0.1,0.1-0.1,0.1-0.2,0.2c-0.9,0.7-1.8,1.7-2.7,3c-0.4,0.5-0.8,1.1-1.1,1.6c-0.1,0.2-0.2,0.5-0.3,0.7c-2.8,4.8-5.6,12.2-8.5,21.2
			H169C166.2,192.4,163.5,185.2,160.8,180.4z"/>
	</g>
	<g>
		<g>
			<path class="st3" d="M169.8,128.5c2-4,4.9-7.5,5.2-12c0.8-12.4-13.2-19.9-22.7-24.5c-6-3-12.2-5.9-17.4-9.7
				c-2.5,1.2-5.1,2.4-7.6,3.5c5.8,10.1,11.3,20.2,11.3,32.4c0,9.4-5.3,20.8-3.2,30c0.9,4,4.3,7.9,7.2,10.5c1.7,1.5,9.9,4.3,10.5,5.4
				c-2.7-5.6-2.9-12.2-0.5-18c2.8,1.6,5,4.3,7.5,6.4s6,3.7,9.1,2.6c-2.3-7.2-2.5-15.1-0.9-22.5C168.6,131.2,169.2,129.8,169.8,128.5
				z"/>
			<path class="st3" d="M10.3,129.1c-2.1-4.5-4.2-9.1-4.1-13.7c0.2-10.7,11.6-18,22.7-23.4c6-3,12.2-5.9,17.4-9.7
				c2.5,1.2,5.1,2.4,7.6,3.5c-5.8,10.1-11.3,20.2-11.3,32.4c0,9.9,3.5,20,3.2,29.8c-0.1,3.6,0,7.4-1.6,10.7
				c-0.6,1.3-7.3,6.9-7.3,6.6c0-3.7,0.2-7.4,0.7-11.1c-2.2,1.3-4.4,2.7-6.6,4c-2.4,1.5-4.9,3-7.7,3.6c-4.6,1.1-9.4-0.4-13.9-1.8
				c-1.5-0.5-2.9-0.9-4.4-1.4c3.9-2.1,6.3-6.2,7.3-10.5C13.8,141.3,13.2,135.2,10.3,129.1z"/>
			<path class="st3" d="M121.4,121.4c16.5-8.8,27.7-24.7,29.3-42.6c0-0.4,0.1-0.9,0.1-1.3c3-53.9-35.3-76.1-59-66
				C69.6,2.1,28.1,25.9,33.1,78c0.1,1,0.2,2,0.4,3.1c2.3,17.4,13.2,32.7,29.4,41.1l28.8,15.1L121.4,121.4z"/>
		</g>
		<g>
			<g>
				<path class="st0" d="M48.1,89.9c0,0-7-8.7-14.1-4.9c-12,6.5-1.7,33.6,13.1,28.5L48.1,89.9z"/>
				<path class="st1" d="M45.4,91.7c0,0-4.9-5.6-9.7-3.1c-8.2,4.1,1.9,23.6,9.2,18.1L45.4,91.7z"/>
			</g>
			<g>
				<path class="st0" d="M131.6,89.9c0,0,7-8.7,14.1-4.9c12,6.5,1.7,33.6-13.1,28.5L131.6,89.9z"/>
				<path class="st1" d="M134.3,91.7c0,0,4.9-5.6,9.7-3.1c8.2,4.1-1.9,23.6-9.2,18.1L134.3,91.7z"/>
			</g>
		</g>
		<path class="st0" d="M90.6,21.6C64.3,21.9,43,37.3,43,72.9c0,15.7,0.4,42.2,6.5,52.1c6.1,9.8,14.2,14,20.9,18
			c6.5,3.8,12.3,6.4,20.1,6.6c7.8-0.1,13.6-2.7,20.1-6.6c6.7-3.9,14.9-8.1,20.9-18c6.1-9.8,6.5-36.4,6.5-52.1
			C138.1,37.3,116.9,21.9,90.6,21.6z"/>
		<path class="st4" d="M98.7,113.2c-0.1-0.6-0.4-1.1-0.7-1.4c-0.3-0.3-0.6-0.6-0.8-0.7c-0.2-0.1-0.4-0.2-0.4-0.1
			c-0.1,0.1,0.3,0.5,0.7,1.2c0.2,0.3,0.4,0.7,0.4,1.2c0.1,0.5,0,1-0.2,1.4c-0.2,0.4-0.6,0.6-1,0.6c-0.2,0-0.4-0.1-0.6-0.3
			c-0.2-0.1-0.4-0.3-0.6-0.3c-0.2-0.1-0.3-0.1-0.5-0.1c0.3-0.5,0.3-0.8,0.3-0.9c-0.1-0.1-0.5,0.5-1.3,1.2c-0.4,0.3-0.9,0.7-1.4,1
			c-0.6,0.3-1.3,0.5-2,0.5c-0.7,0-1.4-0.2-2-0.5c-0.6-0.3-1.1-0.6-1.5-1c-0.8-0.7-1.2-1.2-1.3-1.1c-0.1,0,0,0.3,0.2,0.7
			c-0.1,0-0.3,0-0.4,0.1c-0.2,0.1-0.4,0.2-0.6,0.3c-0.2,0.1-0.4,0.2-0.6,0.3c-0.3,0.1-0.7-0.2-1-0.6c-0.2-0.4-0.3-1-0.2-1.4
			c0.1-0.5,0.3-0.9,0.4-1.2c0.4-0.7,0.7-1,0.7-1.2c0,0-0.2,0-0.4,0.1c-0.2,0.1-0.5,0.3-0.8,0.7c-0.3,0.3-0.6,0.8-0.7,1.4
			c-0.1,0.6-0.2,1.3,0.2,2c0.2,0.3,0.5,0.6,0.8,0.8c0.3,0.2,0.8,0.3,1.1,0.1c0.4-0.1,0.6-0.3,0.8-0.5c0.2-0.2,0.4-0.3,0.5-0.4
			c0.2-0.1,0.3-0.2,0.5-0.2c0.1,0.1,0.2,0.3,0.3,0.4c0.4,0.4,0.9,0.9,1.6,1.2c0.7,0.4,1.5,0.6,2.4,0.6c0.9,0,1.7-0.3,2.4-0.7
			c0.7-0.4,1.2-0.9,1.5-1.3c0.1-0.1,0.1-0.2,0.2-0.3c0.2,0,0.3,0.1,0.5,0.2c0.1,0.1,0.3,0.2,0.5,0.4c0.2,0.2,0.4,0.3,0.8,0.5
			c0.4,0.1,0.8,0,1.1-0.1c0.3-0.2,0.6-0.5,0.8-0.8C98.9,114.5,98.9,113.7,98.7,113.2z"/>
		<g>
			<ellipse class="st5" cx="60.2" cy="109" rx="9.9" ry="5.1"/>
			<ellipse class="st5" cx="121" cy="109" rx="9.9" ry="5.1"/>
		</g>
		<g>
			<g>
				<g>
					<defs>
						<path id="SVGID_3_" d="M80.4,96.7c-6.7-8.2-16-9.1-23.2,0.6C67.2,103,76.5,98.5,80.4,96.7z"/>
					</defs>
					<use xlink:href="#SVGID_3_"  style="overflow:visible;fill:#FFFFFF;"/>
					<clipPath id="SVGID_4_">
						<use xlink:href="#SVGID_3_"  style="overflow:visible;"/>
					</clipPath>
					<g class="st6">
						
							<ellipse transform="matrix(0.999 -4.526363e-02 4.526363e-02 0.999 -4.2545 3.1972)" class="st3" cx="68.5" cy="95.5" rx="5.6" ry="5.6"/>
						
							<ellipse transform="matrix(0.999 -4.526657e-02 4.526657e-02 0.999 -4.2548 3.1974)" class="st7" cx="68.5" cy="95.5" rx="3.2" ry="3.2"/>
						
							<ellipse transform="matrix(0.999 -4.531991e-02 4.531991e-02 0.999 -4.1922 3.2687)" class="st8" cx="70" cy="94.1" rx="0.6" ry="0.6"/>
					</g>
				</g>
				<path class="st9" d="M80.4,96.7c-2.6-5.9-7.7-7.5-12.2-7.2c-4.1,0.2-9,2.4-11.1,7.8C65.1,90.2,73.9,90.6,80.4,96.7z"/>
			</g>
			<g>
				<g>
					<defs>
						<path id="SVGID_5_" d="M100.8,96.8c6.6-8.2,15.9-9.3,23.3,0.4C114,103,104.6,98.5,100.8,96.8z"/>
					</defs>
					<use xlink:href="#SVGID_5_"  style="overflow:visible;fill:#FFFFFF;"/>
					<clipPath id="SVGID_6_">
						<use xlink:href="#SVGID_5_"  style="overflow:visible;"/>
					</clipPath>
					<g class="st10">
						
							<ellipse transform="matrix(3.878820e-02 -0.9992 0.9992 3.878820e-02 12.809 204.4028)" class="st3" cx="112.7" cy="95.5" rx="5.6" ry="5.6"/>
						
							<ellipse transform="matrix(3.879574e-02 -0.9992 0.9992 3.879574e-02 12.8082 204.4021)" class="st7" cx="112.7" cy="95.5" rx="3.2" ry="3.2"/>
						
							<ellipse transform="matrix(3.882579e-02 -0.9992 0.9992 3.882579e-02 15.4962 204.7478)" class="st8" cx="114.2" cy="94.3" rx="0.6" ry="0.6"/>
					</g>
				</g>
				<path class="st9" d="M100.8,96.8c2.6-5.9,7.7-7.5,12.1-7.3c4.1,0.2,9,2.3,11.1,7.7C116,90.1,107.2,90.7,100.8,96.8z"/>
			</g>
		</g>
		<g>
			<path class="st3" d="M121.7,86.3c-0.1,0.1-0.4-0.1-0.8-0.3c-0.4-0.2-1-0.6-1.7-0.8c-0.7-0.3-1.6-0.5-2.5-0.6
				c-0.9-0.1-2-0.1-3.1,0c-1.1,0.1-2.2,0.2-3.2,0.4c-1.1,0.1-2.1,0.3-3,0.4c-1.8,0.2-3.1,0.3-3.4,0.4c-1.1,0.1-2-0.7-2.1-1.8
				c-0.1-1.1,0.8-2,1.9-2.1c0.3,0,1.6,0,3.4-0.1c0.9,0,1.9,0,3,0c1.1,0,2.2,0,3.4,0.1c1.2,0.1,2.4,0.3,3.5,0.6
				c1.1,0.3,2.1,0.8,2.8,1.4c0.7,0.5,1.2,1.1,1.5,1.6C121.8,85.9,121.8,86.2,121.7,86.3z"/>
			<path class="st3" d="M59.4,86.3c0.1,0.1,0.4-0.1,0.8-0.3c0.4-0.2,1-0.6,1.7-0.8c0.7-0.3,1.6-0.5,2.5-0.6c0.9-0.1,2-0.1,3.1,0
				c1.1,0.1,2.2,0.2,3.2,0.4c1.1,0.1,2.1,0.3,3,0.4c1.8,0.2,3.1,0.3,3.4,0.4c1.1,0.1,2-0.7,2.1-1.8c0.1-1.1-0.8-2-1.9-2.1
				c-0.3,0-1.6,0-3.4-0.1c-0.9,0-1.9,0-3,0c-1.1,0-2.2,0-3.4,0.1c-1.2,0.1-2.4,0.3-3.5,0.6c-1.1,0.3-2.1,0.8-2.8,1.4
				c-0.7,0.5-1.2,1.1-1.5,1.6C59.4,85.9,59.3,86.2,59.4,86.3z"/>
		</g>
		<path class="st3" d="M91.3,70c4.7-2,9.5-4.8,10.4-9.7c1.1,4.5,5,7.7,8.9,10.1C115,73,139.8,83.8,139,89.7
			c5.9-42.4-8.2-69.6-48-69.6c-39.9,0-55.4,26-48.4,69.2c-0.2-1.5,7.3-6.7,8.5-7.7c4.2-3.2,5.6-3.4,10.7-3.8
			c9.9-0.7,18.9-3.6,28.1-7.2C90.3,70.4,90.8,70.2,91.3,70z"/>
		<g>
			<path class="st11" d="M113.5,118.8c-6.5,1.5-7.5,1.1-13,1.2c-2.6,0.1-8.2,1.9-8.2,1.9s-5.2-1.6-8-1.5c-4.9,0.1-9.3,0.4-14.2,0
				c0,0,5.8,16,21.2,16C106.8,136.4,113.5,118.8,113.5,118.8z"/>
			<path class="st8" d="M71.8,121.4c0,0,5.7,10,19.4,10s21.1-11.6,21.1-11.6C97.4,124.5,84.9,123.7,71.8,121.4z"/>
			<path class="st12" d="M71.8,121.4c0,0,5.7,10,19.4,10s21.1-11.6,21.1-11.6C97.4,124.5,84.9,123.7,71.8,121.4z"/>
			<path class="st8" d="M71.8,121.4c0,0,0,0,0.1,0.1c3.9,2.6,10.4,4.4,19.4,4.4c9.6,0,16.5-2.7,20.9-5.9c0.1-0.1,0.1-0.2,0.1-0.2
				C97.4,124.5,84.9,123.7,71.8,121.4z"/>
			<path class="st13" d="M91.2,131.4c4.4,0,8.2-1.2,11.3-2.9c-1.4-0.7-3.2-1.3-5.3-1.3c-1.7,0-4.4,0.3-5.2,1.3
				c-0.2,0.2-0.3,0.5-0.6,0.7c-0.3,0.2-0.8,0.3-1.1,0.2c-0.5-0.2-0.4-0.6,0-0.9c0.4-0.2,1-0.3,1.5-0.4c-1.9-1.7-9.8-0.9-10.9,0.9
				C83.6,130.4,87,131.4,91.2,131.4z"/>
		</g>
	</g>
</g>
</svg>
