<?xml version="1.0" encoding="utf-8"?>
<!-- Generator: Adobe Illustrator 20.1.0, SVG Export Plug-In . SVG Version: 6.00 Build 0)  -->
<svg version="1.1" id="Layer_1" xmlns="http://www.w3.org/2000/svg" xmlns:xlink="http://www.w3.org/1999/xlink" x="0px" y="0px"
	 viewBox="0 0 177 207.7" style="enable-background:new 0 0 177 207.7;" xml:space="preserve">
<style type="text/css">
	.st0{fill:#492C17;}
	.st1{fill:#B68461;}
	.st2{fill:#92603E;}
	.st3{fill:#F26767;}
	.st4{fill:#735542;}
	.st5{clip-path:url(#SVGID_2_);}
	.st6{fill:#5E371C;}
	.st7{fill:#010101;}
	.st8{fill:#FFFFFF;}
	.st9{clip-path:url(#SVGID_4_);}
	.st10{fill:#E87870;}
	.st11{fill:#94332C;}
</style>
<g>
	<path class="st0" d="M98.1,148.3c-7.6,5.1-17.1,7.7-26.4,7.2c-9.4-0.5-18.5-4.1-25.3-10c-4.8,2.2-10.7,2.3-15.6,0.3
		c-4.9-2-8.8-6-10.3-10.8c-8.5,1-17.2-5.6-17.8-13.5c3.7,2.9,9.9,0.3,11.9-3.9c2-4.1,1.1-8.8,0.5-13.3c-0.6-4.5-0.8-9.4,2.1-13
		c2.5-3.1,6.9-4.6,9-7.9c2.7-4.2,0.8-9.4-0.2-14.1c-2.9-14.2,0.4-32.4,13.4-40.5c3.9-2.4,8.4-4.3,11.3-7.7c2.4-2.8,5.8-5.5,8.7-7.8
		c11.9-9.6,23.1-4.6,26.4-1.3c3.8-6.4,12.8-8.6,20.6-7.1c5.8,1.1,10.7,4.7,15.3,8.2c8,6.1,16.1,12.2,24.1,18.3c4,3,8.2,6.5,8.8,11.2
		c0.6,4.7-2.6,9.7-0.2,13.9c1.4,2.4,4.4,3.6,7,4.9c2.6,1.3,5.4,3.2,5.7,5.9c0.5,4.3-5.2,7.6-4.8,11.8c0.3,3,3.4,4.9,6,6.5
		c2.7,1.6,5.6,4,5.2,6.9c-0.5,4.2-7.2,6.1-7.5,10.4c-0.2,3.3,3.5,5.4,5.5,8c2.1,2.6,2.5,6.3,1.2,9.3c-1.3,3-4.4,5.4-7.8,6
		c-1.8,1.6-2.6,4.5-1.2,6.3c1.5,1.9,4.5,2.5,6.7,1.4c1.7,5-3.2,10.2-8.7,11.3c-5.5,1.1-11.2-0.7-16.3-2.8c-6.1,6.6-15,10.9-24.3,12
		C111.8,155.5,105.8,153.3,98.1,148.3z"/>
	<g>
		<path class="st1" d="M166.6,205.1c-2.8-8.7-5.5-16-8.2-20.8c-0.2-0.4-0.3-0.7-0.5-1.1c-0.4-0.7-1-1.5-1.5-2.2
			c-0.8-1.1-1.6-1.9-2.3-2.5c0,0-0.1,0-0.1-0.1c-12.7-11.5-41-15.3-41-22.3c0-7.9,0-33.6,0-33.6H63.4c0,0,0,25.8,0,33.6
			c0,7-28.1,10.8-40.9,22.2c-0.1,0.1-0.1,0.1-0.2,0.2c-0.9,0.7-1.8,1.7-2.7,3c-0.4,0.5-0.8,1.1-1.1,1.6c-0.1,0.2-0.2,0.5-0.3,0.7
			c-2.8,4.8-5.6,12.2-8.5,21.2H166.6z"/>
		<path class="st2" d="M112.9,147.4c0-10.5,0-24.8,0-24.8H63.4c0,0,0,21.7,0,31.4c1.2-3.6,9.5,0.8,20.4,2.9
			C94.9,159,107.5,155.5,112.9,147.4z"/>
		<path class="st3" d="M158.4,184.3c-0.2-0.4-0.3-0.7-0.5-1.1c-0.4-0.7-1-1.5-1.5-2.2c-0.8-1.1-1.6-1.9-2.3-2.5c0,0-0.1,0-0.1-0.1
			c-9.2-8.3-26.5-12.6-35.4-17c-7.3,8.6-18.2,14-30.3,14c-12.1,0-23-5.4-30.3-14c-8.9,4.4-26.1,8.6-35.3,16.9
			c-0.1,0.1-0.1,0.1-0.2,0.2c-0.9,0.7-1.8,1.7-2.7,3c-0.4,0.5-0.8,1.1-1.1,1.6c-0.1,0.2-0.2,0.5-0.3,0.7c-2.8,4.8-5.6,12.2-8.5,21.2
			h156.9C163.8,196.3,161.1,189.1,158.4,184.3z"/>
	</g>
	<g>
		<g>
			<g>
				<path class="st1" d="M46.7,91c0,0-7-8.7-14.1-4.9c-12,6.5-1.7,33.6,13.1,28.5L46.7,91z"/>
				<path class="st2" d="M44,92.8c0,0-4.9-5.6-9.7-3.1c-8.2,4.1,1.9,23.6,9.2,18.1L44,92.8z"/>
			</g>
			<g>
				<path class="st1" d="M130.2,91c0,0,7-8.7,14.1-4.9c12,6.5,1.7,33.6-13.1,28.5L130.2,91z"/>
				<path class="st2" d="M132.9,92.8c0,0,4.9-5.6,9.7-3.1c8.2,4.1-1.9,23.6-9.2,18.1L132.9,92.8z"/>
			</g>
		</g>
		<path class="st1" d="M89.2,22.7C62.8,23,41.6,38.4,41.6,74c0,15.7,0.4,42.2,6.5,52.1c6.1,9.8,14.2,14,20.9,18
			c6.5,3.8,12.3,8.5,20.1,8.7c7.8-0.1,13.6-4.8,20.1-8.7c6.7-3.9,14.9-8.1,20.9-18c6.1-9.8,6.5-36.4,6.5-52.1
			C136.7,38.4,115.5,23,89.2,22.7z"/>
		<path class="st4" d="M97.3,115.3c-0.1-0.6-0.4-1.1-0.7-1.4c-0.3-0.3-0.6-0.6-0.8-0.7c-0.2-0.1-0.4-0.2-0.4-0.1
			c-0.1,0.1,0.3,0.5,0.7,1.2c0.2,0.3,0.4,0.7,0.4,1.2c0.1,0.5,0,1-0.2,1.4c-0.2,0.4-0.6,0.6-1,0.6c-0.2,0-0.4-0.1-0.6-0.3
			c-0.2-0.1-0.4-0.3-0.6-0.3c-0.2-0.1-0.3-0.1-0.5-0.1c0.3-0.5,0.3-0.8,0.3-0.9c-0.1-0.1-0.5,0.5-1.3,1.2c-0.4,0.3-0.9,0.7-1.4,1
			c-0.6,0.3-1.3,0.5-2,0.5c-0.7,0-1.4-0.2-2-0.5c-0.6-0.3-1.1-0.6-1.5-1c-0.8-0.7-1.2-1.2-1.3-1.1c-0.1,0,0,0.3,0.2,0.7
			c-0.1,0-0.3,0-0.4,0.1c-0.2,0.1-0.4,0.2-0.6,0.3c-0.2,0.1-0.4,0.2-0.6,0.3c-0.3,0.1-0.7-0.2-1-0.6c-0.2-0.4-0.3-1-0.2-1.4
			c0.1-0.5,0.3-0.9,0.4-1.2c0.4-0.7,0.7-1,0.7-1.2c0,0-0.2,0-0.4,0.1c-0.2,0.1-0.5,0.3-0.8,0.7c-0.3,0.3-0.6,0.8-0.7,1.4
			c-0.1,0.6-0.2,1.3,0.2,2c0.2,0.3,0.5,0.6,0.8,0.8c0.3,0.2,0.8,0.3,1.1,0.1c0.4-0.1,0.6-0.3,0.8-0.5c0.2-0.2,0.4-0.3,0.5-0.4
			c0.2-0.1,0.3-0.2,0.5-0.2c0.1,0.1,0.2,0.3,0.3,0.4c0.4,0.4,0.9,0.9,1.6,1.2c0.7,0.4,1.5,0.6,2.4,0.6c0.9,0,1.7-0.3,2.4-0.7
			c0.7-0.4,1.2-0.9,1.5-1.3c0.1-0.1,0.1-0.2,0.2-0.3c0.2,0,0.3,0.1,0.5,0.2c0.1,0.1,0.3,0.2,0.5,0.4c0.2,0.2,0.4,0.3,0.8,0.5
			c0.4,0.1,0.8,0,1.1-0.1c0.3-0.2,0.6-0.5,0.8-0.8C97.5,116.6,97.5,115.9,97.3,115.3z"/>
		<g>
			<path class="st0" d="M126.2,86.6c-0.1,0.1-0.5-0.1-1-0.4c-0.5-0.3-1.2-0.7-2.1-1c-0.9-0.3-2-0.6-3.1-0.7c-1.2-0.1-2.5-0.1-3.8,0
				c-1.3,0.1-2.7,0.3-4,0.5c-1.3,0.2-2.6,0.3-3.7,0.4c-2.2,0.3-3.8,0.4-4.2,0.4c-1.3,0.1-2.5-0.9-2.6-2.2c-0.1-1.3,1-2.5,2.3-2.5
				c0.3,0,1.9-0.1,4.2-0.1c1.1,0,2.4,0,3.7,0c1.3,0,2.8,0,4.3,0.1c1.5,0.1,3,0.3,4.3,0.8c1.4,0.4,2.6,1,3.5,1.7
				c0.9,0.7,1.5,1.4,1.9,2C126.3,86.1,126.3,86.5,126.2,86.6z"/>
			<path class="st0" d="M52.1,86.6c0.1,0.1,0.5-0.1,1-0.4c0.5-0.3,1.2-0.7,2.1-1c0.9-0.3,2-0.6,3.1-0.7c1.2-0.1,2.5-0.1,3.8,0
				c1.3,0.1,2.7,0.3,4,0.5c1.3,0.2,2.6,0.3,3.7,0.4c2.2,0.3,3.8,0.4,4.2,0.4c1.3,0.1,2.5-0.9,2.6-2.2c0.1-1.3-1-2.5-2.3-2.5
				C73.9,81,72.2,81,70,81c-1.1,0-2.4,0-3.7,0c-1.3,0-2.8,0-4.3,0.1c-1.5,0.1-3,0.3-4.3,0.8c-1.4,0.4-2.6,1-3.5,1.7
				c-0.9,0.7-1.5,1.4-1.9,2C52,86.1,52,86.5,52.1,86.6z"/>
		</g>
		<g>
			<g>
				<g>
					<defs>
						<path id="SVGID_1_" d="M101.5,95.4c-0.1-2.9,6.3-6.3,10-6.2c3.2,0,10,1.9,9.6,5.8c-0.2,2.2-1.9,4.3-9.6,4.3
							S101.6,97.2,101.5,95.4z"/>
					</defs>
					<use xlink:href="#SVGID_1_"  style="overflow:visible;fill:#FFFFFF;"/>
					<clipPath id="SVGID_2_">
						<use xlink:href="#SVGID_1_"  style="overflow:visible;"/>
					</clipPath>
					<g class="st5">
						<circle class="st6" cx="111.5" cy="94.2" r="5.7"/>
						<circle class="st7" cx="111.5" cy="94.2" r="3.2"/>
						<circle class="st8" cx="113.4" cy="94.9" r="0.6"/>
					</g>
				</g>
				<path class="st4" d="M101.5,95.1c-0.3-4.1,6-6.6,10-6.6c3.7,0,10.4,1.9,9.6,6.4C114,89.8,106,92.1,101.5,95.1z"/>
			</g>
			<g>
				<g>
					<defs>
						<path id="SVGID_3_" d="M76.8,95.4c0.1-2.9-6.3-6.3-10-6.2c-3.2,0-10,1.9-9.6,5.8c0.2,2.2,1.9,4.3,9.6,4.3S76.7,97.2,76.8,95.4
							z"/>
					</defs>
					<use xlink:href="#SVGID_3_"  style="overflow:visible;fill:#FFFFFF;"/>
					<clipPath id="SVGID_4_">
						<use xlink:href="#SVGID_3_"  style="overflow:visible;"/>
					</clipPath>
					<g class="st9">
						<circle class="st6" cx="66.8" cy="94.2" r="5.7"/>
						<circle class="st7" cx="66.8" cy="94.2" r="3.2"/>
						<circle class="st8" cx="68.7" cy="94.9" r="0.6"/>
					</g>
				</g>
				<path class="st4" d="M76.8,95.1c0.3-4.1-6-6.6-10-6.6c-3.7,0-10.4,1.9-9.6,6.4C64.3,89.8,72.3,92.1,76.8,95.1z"/>
			</g>
		</g>
		<path class="st0" d="M28.9,119.9c-7.6-8.5-3.6-18.8,2.4-41.4C38.4,51.5,51,12.3,85.3,13.6l0-0.1c47.1-9,59.9,28.2,63.6,33.7
			c17.5,26-8,47.7,15.4,55c-12.3,7.9-24.4,4-29.7-17.5c-5.3-21.5-49.3-21.2-68.2-49.1c-6.7,3.4-11.2,9.6-11.7,16.1
			c-0.5,6.4,2.6,13-0.3,18.9c-2.6,5.5-10,9.4-10,15.3c0.1,3.4,2.7,6.4,3.8,9.7c1.4,4.4,3.9,14.2,3.7,18.9
			C51.3,130.6,35,128.6,28.9,119.9z"/>
		<g>
			<path class="st10" d="M106.5,125.1c-4.8,4.5-6.7,9.6-17.3,10c-10.5-0.3-13.1-6.1-17.3-10c-0.2-0.2,0-0.5,0.2-0.4
				c5.2,1.8,8.1-1.3,12.3-0.8c1.6,0.1,1.8,1.3,4.8,1.4c2.8-0.1,3-1.5,5.1-1.4c3.5-0.1,6.6,2.9,12,0.9
				C106.5,124.6,106.7,124.9,106.5,125.1z"/>
			<path class="st11" d="M99.4,127.1c-1.8,0.1-3.7,0-5.1,0.4c0.6-0.6,0.8-1.1,0.7-1.1c-0.1,0-0.5,0.5-1.4,1
				c-0.9,0.6-2.4,1.2-4.1,1.2c-1.7,0-3.3-0.5-4.2-1c-1-0.5-1.5-0.9-1.6-0.9c-0.1,0,0.1,0.4,0.7,1c-0.1,0-0.2-0.1-0.3-0.1
				c-1.4-0.4-3.4-0.4-5.3-0.4c-4-0.1-6.8-2.4-6.9-2.2c0,0,0.1,0.2,0.4,0.4c0.3,0.3,0.7,0.6,1.3,1c0.6,0.4,1.4,0.8,2.3,1.1
				c0.9,0.3,2,0.5,3,0.5c2.1,0.1,3.8-0.1,5,0.1c0.7,0.1,1.2,0.2,1.5,0.3c1,0.5,2.4,1,4,1c1.6,0,3-0.5,3.9-1.1
				c0.2-0.1,0.5-0.1,0.8-0.2c1.2-0.2,2.9-0.1,5-0.1c1-0.1,2.1-0.2,3-0.5c0.9-0.3,1.7-0.7,2.3-1.1c0.6-0.4,1-0.7,1.3-1
				c0.3-0.3,0.4-0.4,0.4-0.4C106.2,124.7,103.4,127,99.4,127.1z"/>
		</g>
	</g>
</g>
</svg>
