<?xml version="1.0" encoding="utf-8"?>
<!-- Generator: Adobe Illustrator 20.1.0, SVG Export Plug-In . SVG Version: 6.00 Build 0)  -->
<svg version="1.1" id="Layer_1" xmlns="http://www.w3.org/2000/svg" xmlns:xlink="http://www.w3.org/1999/xlink" x="0px" y="0px"
	 viewBox="0 0 177 207.7" style="enable-background:new 0 0 177 207.7;" xml:space="preserve">
<style type="text/css">
	.st0{fill:#B77E58;}
	.st1{fill:#734F37;}
	.st2{fill:#8866AC;}
	.st3{fill:#16100C;}
	.st4{fill:#CE8655;}
	.st5{clip-path:url(#SVGID_4_);}
	.st6{fill:#855636;}
	.st7{fill:#010101;}
	.st8{fill:#FFFFFF;}
	.st9{fill:#996A49;}
	.st10{clip-path:url(#SVGID_6_);}
	.st11{fill:#EA5F43;}
	.st12{fill:#94332C;}
	.st13{fill:#E63336;}
</style>
<g>
	<defs>
		<path id="SVGID_1_" d="M142.3,45L142.3,45L142.3,45c-7.3-23.5-28.7-41.3-54.1-41.3c-25.3,0-46.8,17.8-54.1,41.2l0,0l0,0
			C33.8,46,4.6,203.1,4.6,203.1c19.6,0,34.5-14.7,34.5-34.3l19.1-7.6c0,0,9.3,0,5.7-18.3c-16.9-9.2-19.4-23.7-19.4-23.7l-1-4.7
			l1.6-43.4h86.4l2.4,43.8l-0.9,4.3c0,0-1.6,14-19.7,23.9c-5.2,16.9,5.4,18.1,5.4,18.1l21.4,8.6c0,19.6,12.3,33.3,31.8,33.3
			C172,203.1,142.7,46.1,142.3,45z"/>
	</defs>
	<clipPath id="SVGID_2_">
		<use xlink:href="#SVGID_1_"  style="overflow:visible;"/>
	</clipPath>
</g>
<g>
	<g>
		<path class="st0" d="M163.8,202.8c-2.8-8.7-5.5-16-8.2-20.8c-0.2-0.4-0.3-0.7-0.5-1.1c-0.4-0.7-1-1.5-1.5-2.2
			c-0.8-1.1-1.6-1.9-2.3-2.5c0,0-0.1,0-0.1-0.1c-12.7-11.5-41-15.3-41-22.3c0-7.9,0-33.6,0-33.6H60.7c0,0,0,25.8,0,33.6
			c0,7-28.1,10.8-40.9,22.2c-0.1,0.1-0.1,0.1-0.2,0.2c-0.9,0.7-1.8,1.7-2.7,3c-0.4,0.5-0.8,1.1-1.1,1.6c-0.1,0.2-0.2,0.5-0.3,0.7
			c-2.8,4.8-5.6,12.2-8.5,21.2H163.8z"/>
		<path class="st1" d="M110.2,145.1c0-10.5,0-24.8,0-24.8H60.7c0,0,0,21.7,0,31.4c1.2-3.6,9.5,0.8,20.4,2.9
			C92.2,156.7,104.8,153.2,110.2,145.1z"/>
		<path class="st2" d="M155.6,182c-0.2-0.4-0.3-0.7-0.5-1.1c-0.4-0.7-1-1.5-1.5-2.2c-0.8-1.1-1.6-1.9-2.3-2.5c0,0-0.1,0-0.1-0.1
			c-9.2-8.3-26.5-12.6-35.4-17c-7.3,8.6-18.2,14-30.3,14c-12.1,0-23-5.4-30.3-14c-8.9,4.4-26.1,8.6-35.3,16.9
			c-0.1,0.1-0.1,0.1-0.2,0.2c-0.9,0.7-1.8,1.7-2.7,3c-0.4,0.5-0.8,1.1-1.1,1.6c-0.1,0.2-0.2,0.5-0.3,0.7c-2.8,4.8-5.6,12.2-8.5,21.2
			h156.9C161.1,194.1,158.3,186.8,155.6,182z"/>
	</g>
	<g>
		<g>
			<path class="st3" d="M159.8,131.7c-0.6-3.4-1.6-6.7-3.1-9.8c-4.4-9.6-9.6-20.1-14.9-29.2c-5.1-8.8-10.6-9.4-19.6-5.4
				c3.7,7.6,5.6,12.1,1.5,20.4c-4,8.1-9.9,15.3-12.7,24c-6.7,20.8,1.5,49.5,24.5,55.9c-1.1-4.7,0.8-9.7,3.9-13.5
				c6.5-7.8,14.2-9.8,18.2-20C160.4,147,161.1,139.2,159.8,131.7z"/>
			<path class="st3" d="M10.4,131.7c0.6-3.4,1.6-6.7,3.1-9.8c4.4-9.6,9.6-20.1,14.9-29.2c5.1-8.8,10.6-9.4,19.6-5.4
				c-3.7,7.6-5.6,12.1-1.5,20.4c4,8.1,9.9,15.3,12.7,24c6.7,20.8-1.5,49.5-24.5,55.9c1.1-4.7-0.8-9.7-3.9-13.5
				c-6.5-7.8-14.2-9.8-18.2-20C9.8,147,9.1,139.2,10.4,131.7z"/>
			<path class="st3" d="M116.3,123c16.5-8.8,27.7-24.7,29.3-42.6c0-0.4,0.1-0.9,0.1-1.3c3-53.9-35.3-76.1-59-66
				C64.4,3.7,22.9,27.5,27.9,79.6c0.1,1,0.2,2,0.4,3.1c2.3,17.4,13.2,32.7,29.4,41.1l28.8,15.1L116.3,123z"/>
		</g>
		<g>
			<g>
				<path class="st0" d="M43,91.5c0,0-7-8.7-14.1-4.9c-12,6.5-1.7,33.6,13.1,28.5L43,91.5z"/>
				<path class="st1" d="M40.3,93.3c0,0-4.9-5.6-9.7-3.1c-8.2,4.1,1.9,23.6,9.2,18.1L40.3,93.3z"/>
			</g>
			<g>
				<path class="st0" d="M126.4,91.5c0,0,7-8.7,14.1-4.9c12,6.5,1.7,33.6-13.1,28.5L126.4,91.5z"/>
				<path class="st1" d="M129.1,93.3c0,0,4.9-5.6,9.7-3.1c8.2,4.1-1.9,23.6-9.2,18.1L129.1,93.3z"/>
			</g>
		</g>
		<path class="st0" d="M85.4,23.2C59.1,23.5,37.9,39,37.9,74.5c0,15.7,0.4,42.2,6.5,52.1c6.1,9.8,14.2,14,20.9,18
			c6.5,3.8,12.3,6.4,20.1,6.6c7.8-0.1,13.6-2.7,20.1-6.6c6.7-3.9,14.9-8.1,20.9-18c6.1-9.8,6.5-36.4,6.5-52.1
			C132.9,39,111.7,23.5,85.4,23.2z"/>
		<path class="st1" d="M93.6,114.8c-0.1-0.6-0.4-1.1-0.7-1.4c-0.3-0.3-0.6-0.6-0.8-0.7c-0.2-0.1-0.4-0.2-0.4-0.1
			c-0.1,0.1,0.3,0.5,0.7,1.2c0.2,0.3,0.4,0.7,0.4,1.2c0.1,0.5,0,1-0.2,1.4c-0.2,0.4-0.6,0.6-1,0.6c-0.2,0-0.4-0.1-0.6-0.3
			c-0.2-0.1-0.4-0.3-0.6-0.3c-0.2-0.1-0.3-0.1-0.5-0.1c0.3-0.5,0.3-0.8,0.3-0.9c-0.1-0.1-0.5,0.5-1.3,1.2c-0.4,0.3-0.9,0.7-1.4,1
			c-0.6,0.3-1.3,0.5-2,0.5c-0.7,0-1.4-0.2-2-0.5c-0.6-0.3-1.1-0.6-1.5-1c-0.8-0.7-1.2-1.2-1.3-1.1c-0.1,0,0,0.3,0.2,0.7
			c-0.1,0-0.3,0-0.4,0.1c-0.2,0.1-0.4,0.2-0.6,0.3c-0.2,0.1-0.4,0.2-0.6,0.3c-0.3,0.1-0.7-0.2-1-0.6c-0.2-0.4-0.3-1-0.2-1.4
			c0.1-0.5,0.3-0.9,0.4-1.2c0.4-0.7,0.7-1,0.7-1.2c0,0-0.2,0-0.4,0.1c-0.2,0.1-0.5,0.3-0.8,0.7c-0.3,0.3-0.6,0.8-0.7,1.4
			c-0.1,0.6-0.2,1.3,0.2,2c0.2,0.3,0.5,0.6,0.8,0.8c0.3,0.2,0.8,0.3,1.1,0.1c0.4-0.1,0.6-0.3,0.8-0.5c0.2-0.2,0.4-0.3,0.5-0.4
			c0.2-0.1,0.3-0.2,0.5-0.2c0.1,0.1,0.2,0.3,0.3,0.4c0.4,0.4,0.9,0.9,1.6,1.2c0.7,0.4,1.5,0.6,2.4,0.6c0.9,0,1.7-0.3,2.4-0.7
			c0.7-0.4,1.2-0.9,1.5-1.3c0.1-0.1,0.1-0.2,0.2-0.3c0.2,0,0.3,0.1,0.5,0.2c0.1,0.1,0.3,0.2,0.5,0.4c0.2,0.2,0.4,0.3,0.8,0.5
			c0.4,0.1,0.8,0,1.1-0.1c0.3-0.2,0.6-0.5,0.8-0.8C93.8,116.1,93.7,115.4,93.6,114.8z"/>
		<g>
			<ellipse class="st4" cx="55" cy="110.6" rx="9.9" ry="5.1"/>
			<ellipse class="st4" cx="115.8" cy="110.6" rx="9.9" ry="5.1"/>
		</g>
		<g>
			<g>
				<g>
					<defs>
						<path id="SVGID_3_" d="M75.2,98.3c-6.7-8.2-16-9.1-23.2,0.6C62,104.7,71.4,100.1,75.2,98.3z"/>
					</defs>
					<use xlink:href="#SVGID_3_"  style="overflow:visible;fill:#FFFFFF;"/>
					<clipPath id="SVGID_4_">
						<use xlink:href="#SVGID_3_"  style="overflow:visible;"/>
					</clipPath>
					<g class="st5">
						
							<ellipse transform="matrix(0.999 -4.526363e-02 4.526363e-02 0.999 -4.3332 2.9656)" class="st6" cx="63.3" cy="97.2" rx="5.6" ry="5.6"/>
						
							<ellipse transform="matrix(0.999 -4.526657e-02 4.526657e-02 0.999 -4.3335 2.9658)" class="st7" cx="63.3" cy="97.2" rx="3.2" ry="3.2"/>
						
							<ellipse transform="matrix(0.999 -4.531991e-02 4.531991e-02 0.999 -4.2709 3.0368)" class="st8" cx="64.8" cy="95.7" rx="0.6" ry="0.6"/>
					</g>
				</g>
				<path class="st9" d="M75.2,98.3c-2.6-5.9-7.7-7.5-12.2-7.2c-4.1,0.2-9,2.4-11.1,7.8C59.9,91.8,68.8,92.3,75.2,98.3z"/>
			</g>
			<g>
				<g>
					<defs>
						<path id="SVGID_5_" d="M95.6,98.4c6.6-8.2,15.9-9.3,23.3,0.4C108.8,104.6,99.5,100.1,95.6,98.4z"/>
					</defs>
					<use xlink:href="#SVGID_5_"  style="overflow:visible;fill:#FFFFFF;"/>
					<clipPath id="SVGID_6_">
						<use xlink:href="#SVGID_5_"  style="overflow:visible;"/>
					</clipPath>
					<g class="st10">
						
							<ellipse transform="matrix(3.878820e-02 -0.9992 0.9992 3.878820e-02 6.2347 200.8118)" class="st6" cx="107.5" cy="97.2" rx="5.6" ry="5.6"/>
						
							<ellipse transform="matrix(3.879574e-02 -0.9992 0.9992 3.879574e-02 6.234 200.8111)" class="st7" cx="107.5" cy="97.2" rx="3.2" ry="3.2"/>
						
							<ellipse transform="matrix(3.882579e-02 -0.9992 0.9992 3.882579e-02 8.9222 201.1568)" class="st8" cx="109" cy="95.9" rx="0.6" ry="0.6"/>
					</g>
				</g>
				<path class="st9" d="M95.6,98.4c2.6-5.9,7.7-7.5,12.1-7.3c4.1,0.2,9,2.3,11.1,7.7C110.9,91.8,102,92.3,95.6,98.4z"/>
			</g>
		</g>
		<g>
			<path class="st3" d="M116.6,87.9c-0.1,0.1-0.4-0.1-0.8-0.3c-0.4-0.2-1-0.6-1.7-0.8c-0.7-0.3-1.6-0.5-2.5-0.6
				c-0.9-0.1-2-0.1-3.1,0c-1.1,0.1-2.2,0.2-3.2,0.4c-1.1,0.1-2.1,0.3-3,0.4c-1.8,0.2-3.1,0.3-3.4,0.4c-1.1,0.1-2-0.7-2.1-1.8
				c-0.1-1.1,0.8-2,1.9-2.1c0.3,0,1.6,0,3.4-0.1c0.9,0,1.9,0,3,0c1.1,0,2.2,0,3.4,0.1c1.2,0.1,2.4,0.3,3.5,0.6
				c1.1,0.3,2.1,0.8,2.8,1.4c0.7,0.5,1.2,1.1,1.5,1.6C116.6,87.5,116.7,87.8,116.6,87.9z"/>
			<path class="st3" d="M54.2,87.9c0.1,0.1,0.4-0.1,0.8-0.3c0.4-0.2,1-0.6,1.7-0.8c0.7-0.3,1.6-0.5,2.5-0.6c0.9-0.1,2-0.1,3.1,0
				c1.1,0.1,2.2,0.2,3.2,0.4c1.1,0.1,2.1,0.3,3,0.4c1.8,0.2,3.1,0.3,3.4,0.4c1.1,0.1,2-0.7,2.1-1.8c0.1-1.1-0.8-2-1.9-2.1
				c-0.3,0-1.6,0-3.4-0.1c-0.9,0-1.9,0-3,0c-1.1,0-2.2,0-3.4,0.1c-1.2,0.1-2.4,0.3-3.5,0.6c-1.1,0.3-2.1,0.8-2.8,1.4
				c-0.7,0.5-1.2,1.1-1.5,1.6C54.2,87.5,54.1,87.8,54.2,87.9z"/>
		</g>
		<path class="st3" d="M85.8,70.7c6,0,11.5,0.6,16.4,1.8c0.4,0.1,1.6-16.1,2-16c0.8,0.2,0.7,16.7,1.4,16.9c2.6,0.8,5,1.6,7.3,2.7
			c0.3,0.1,1-12.3,1.3-12.2c0.3,0.1,0.2,12.9,0.5,13c8,3.9,14.1,9.1,19,14.4c5.9-42.4-8.2-69.6-48-69.6c-39.9,0-55.4,26-48.4,69.2
			c5.7-6,12.9-11.7,22.5-15.5c0.5-0.2,1.2-9.1,1.7-9.3c0.3-0.1,0.5,8.5,0.8,8.4C69,72.1,76.7,70.7,85.8,70.7z"/>
		<g>
			<path class="st11" d="M108.3,120.4c-6.5,1.5-7.5,1.1-13,1.2c-2.6,0.1-8.2,1.9-8.2,1.9s-5.2-1.6-8-1.5c-4.9,0.1-9.3,0.4-14.2,0
				c0,0,5.8,16,21.2,16C101.7,138,108.3,120.4,108.3,120.4z"/>
			<path class="st8" d="M66.7,123c0,0,5.7,10,19.4,10s21.1-11.6,21.1-11.6C92.3,126.1,79.7,125.3,66.7,123z"/>
			<path class="st12" d="M66.7,123c0,0,5.7,10,19.4,10s21.1-11.6,21.1-11.6C92.3,126.1,79.7,125.3,66.7,123z"/>
			<path class="st8" d="M66.7,123c0,0,0,0,0.1,0.1c3.9,2.6,10.4,4.4,19.4,4.4c9.6,0,16.5-2.7,20.9-5.9c0.1-0.1,0.1-0.2,0.1-0.2
				C92.3,126.1,79.7,125.3,66.7,123z"/>
			<path class="st13" d="M86.1,133c4.4,0,8.2-1.2,11.3-2.9c-1.4-0.7-3.2-1.3-5.3-1.3c-1.7,0-4.4,0.3-5.2,1.3
				c-0.2,0.2-0.3,0.5-0.6,0.7c-0.3,0.2-0.8,0.3-1.1,0.2c-0.5-0.2-0.4-0.6,0-0.9c0.4-0.2,1-0.3,1.5-0.4c-1.9-1.7-9.8-0.9-10.9,0.9
				C78.5,132.1,81.9,133,86.1,133z"/>
		</g>
	</g>
</g>
</svg>
