<?xml version="1.0" encoding="utf-8"?>
<!-- Generator: Adobe Illustrator 20.1.0, SVG Export Plug-In . SVG Version: 6.00 Build 0)  -->
<svg version="1.1" id="Layer_1" xmlns="http://www.w3.org/2000/svg" xmlns:xlink="http://www.w3.org/1999/xlink" x="0px" y="0px"
	 viewBox="0 0 177 207.7" style="enable-background:new 0 0 177 207.7;" xml:space="preserve">
<style type="text/css">
	.st0{fill:#C84327;}
	.st1{fill:#FCC299;}
	.st2{fill:#F9A66E;}
	.st3{fill:#77B142;}
	.st4{fill:#DC7B45;}
	.st5{clip-path:url(#SVGID_4_);}
	.st6{fill:#417147;}
	.st7{fill:#010101;}
	.st8{fill:#FFFFFF;}
	.st9{fill:#B18C79;}
	.st10{clip-path:url(#SVGID_6_);}
	.st11{fill:#F8A793;}
	.st12{fill:#F37A6E;}
	.st13{fill:#EB6934;}
</style>
<g>
	<defs>
		<path id="SVGID_1_" d="M142.3,45L142.3,45L142.3,45c-7.3-23.5-28.7-41.3-54.1-41.3c-25.3,0-46.8,17.8-54.1,41.2l0,0l0,0
			C33.8,46,4.6,203.1,4.6,203.1c19.6,0,34.5-14.7,34.5-34.3l19.1-7.6c0,0,9.3,0,5.7-18.3c-16.9-9.2-19.4-23.7-19.4-23.7l-1-4.7
			l1.6-43.4h86.4l2.4,43.8l-0.9,4.3c0,0-1.6,14-19.7,23.9c-5.2,16.9,5.4,18.1,5.4,18.1l21.4,8.6c0,19.6,12.3,33.3,31.8,33.3
			C172,203.1,142.7,46.1,142.3,45z"/>
	</defs>
	<clipPath id="SVGID_2_">
		<use xlink:href="#SVGID_1_"  style="overflow:visible;"/>
	</clipPath>
</g>
<g>
	<path class="st0" d="M99.8,184.5c-8.2,6.2-18.6,9.5-29,9.3c-12.5-0.3-21.6-7.6-32.3-11.1c-5.3-1.7-5.1,1.8-10.3-4.6
		c-3.5-4.2-5.9-9.8-7.5-15c-1.3-4.2-2.1-8.6-2.6-13c-2.2-18,2.9-37.5-1-54.7c-3.7-16.4,0.2-30.5,13.8-40.8
		c8.8-6.6,9.4-17.7,12.5-21.7C45.9,29.5,56,7.1,89.5,17.6c14.3-7.3,25-2.8,34.8,2.9c10,5.8,14.7,19.7,23.8,26.4
		c15,11.1,7.2,24.6,7.2,40.8c0,21.5-0.1,43.1-0.2,64.6c-0.1,21.6-7,34.9-29.7,38.4C115.2,192.3,108.4,190,99.8,184.5z"/>
	<g>
		<path class="st1" d="M170.5,196.5c-2.8-8.7-5.5-16-8.2-20.8c-0.2-0.4-0.3-0.7-0.5-1.1c-0.4-0.7-1-1.5-1.5-2.2
			c-0.8-1.1-1.6-1.9-2.3-2.5c0,0-0.1,0-0.1-0.1c-12.7-11.5-41-15.3-41-22.3c0-7.9,0-33.6,0-33.6H67.3c0,0,0,25.8,0,33.6
			c0,7-28.1,10.8-40.9,22.2c-0.1,0.1-0.1,0.1-0.2,0.2c-0.9,0.7-1.8,1.7-2.7,3c-0.4,0.5-0.8,1.1-1.1,1.6c-0.1,0.2-0.2,0.5-0.3,0.7
			c-2.8,4.8-5.6,12.2-8.5,21.2H170.5z"/>
		<path class="st2" d="M116.8,138.8c0-10.5,0-24.8,0-24.8H67.3c0,0,0,21.7,0,31.4c1.2-3.6,9.5,0.8,20.4,2.9
			C98.8,150.5,111.4,146.9,116.8,138.8z"/>
		<path class="st3" d="M162.3,175.7c-0.2-0.4-0.3-0.7-0.5-1.1c-0.4-0.7-1-1.5-1.5-2.2c-0.8-1.1-1.6-1.9-2.3-2.5c0,0-0.1,0-0.1-0.1
			c-9.2-8.3-26.5-12.6-35.4-17c-7.3,8.6-18.2,14-30.3,14c-12.1,0-23-5.4-30.3-14c-8.9,4.4-26.1,8.6-35.3,16.9
			c-0.1,0.1-0.1,0.1-0.2,0.2c-0.9,0.7-1.8,1.7-2.7,3c-0.4,0.5-0.8,1.1-1.1,1.6c-0.1,0.2-0.2,0.5-0.3,0.7c-2.8,4.8-5.6,12.2-8.5,21.2
			h156.9C167.7,187.8,165,180.6,162.3,175.7z"/>
	</g>
	<g>
		<path class="st1" d="M92.6,15c-26.3,0.3-47.5,15.7-47.5,51.3c0,15.7,0.4,42.2,6.5,52.1c6.1,9.9,14.2,14,20.9,18
			c6.5,3.8,12.3,6.4,20.1,6.6c7.8-0.1,13.6-2.7,20.1-6.6c6.7-3.9,14.9-8.1,20.9-18c6.1-9.8,6.5-36.4,6.5-52.1
			C140.2,30.8,118.9,15.3,92.6,15z"/>
		<g>
			<g>
				<path class="st1" d="M50.2,83.3c0,0-7-8.7-14.1-4.9c-12,6.5-1.7,33.6,13.1,28.5L50.2,83.3z"/>
				<path class="st2" d="M47.5,85.1c0,0-4.9-5.6-9.7-3.1c-8.2,4.1,1.9,23.6,9.2,18.1L47.5,85.1z"/>
			</g>
			<g>
				<path class="st1" d="M133.7,83.3c0,0,7-8.7,14.1-4.9c12,6.5,1.7,33.6-13.1,28.5L133.7,83.3z"/>
				<path class="st2" d="M136.3,85.1c0,0,4.9-5.6,9.7-3.1c8.2,4.1-1.9,23.6-9.2,18.1L136.3,85.1z"/>
			</g>
		</g>
		<path class="st4" d="M100.8,103.4c-0.1-0.6-0.4-1.1-0.7-1.4c-0.3-0.3-0.6-0.6-0.8-0.7c-0.2-0.1-0.4-0.2-0.4-0.1
			c-0.1,0.1,0.3,0.5,0.7,1.2c0.2,0.3,0.4,0.7,0.4,1.2c0.1,0.5,0,1-0.2,1.4c-0.2,0.4-0.6,0.6-1,0.6c-0.2,0-0.4-0.1-0.6-0.3
			c-0.2-0.1-0.4-0.3-0.6-0.3c-0.2-0.1-0.3-0.1-0.5-0.1c0.3-0.5,0.3-0.8,0.3-0.9c-0.1-0.1-0.5,0.5-1.3,1.2c-0.4,0.3-0.9,0.7-1.4,1
			c-0.6,0.3-1.3,0.5-2,0.5c-0.7,0-1.4-0.2-2-0.5c-0.6-0.3-1.1-0.6-1.5-1c-0.8-0.7-1.2-1.2-1.3-1.1c-0.1,0,0,0.3,0.2,0.7
			c-0.1,0-0.3,0-0.4,0.1c-0.2,0.1-0.4,0.2-0.6,0.3c-0.2,0.1-0.4,0.2-0.6,0.3c-0.3,0.1-0.7-0.2-1-0.6c-0.2-0.4-0.3-1-0.2-1.4
			c0.1-0.5,0.3-0.9,0.4-1.2c0.4-0.7,0.7-1,0.7-1.2c0,0-0.2,0-0.4,0.1c-0.2,0.1-0.5,0.3-0.8,0.7c-0.3,0.3-0.6,0.8-0.7,1.4
			c-0.1,0.6-0.2,1.3,0.2,2c0.2,0.3,0.5,0.6,0.8,0.8c0.3,0.2,0.8,0.3,1.1,0.1c0.4-0.1,0.6-0.3,0.8-0.5c0.2-0.2,0.4-0.3,0.5-0.4
			c0.2-0.1,0.3-0.2,0.5-0.2c0.1,0.1,0.2,0.3,0.3,0.4c0.4,0.4,0.9,0.9,1.6,1.2c0.7,0.4,1.5,0.6,2.4,0.6c0.9,0,1.7-0.3,2.4-0.7
			c0.7-0.4,1.2-0.9,1.5-1.3c0.1-0.1,0.1-0.2,0.2-0.3c0.2,0,0.3,0.1,0.5,0.2c0.1,0.1,0.3,0.2,0.5,0.4c0.2,0.2,0.4,0.3,0.8,0.5
			c0.4,0.1,0.8,0,1.1-0.1c0.3-0.2,0.6-0.5,0.8-0.8C101,104.7,100.9,103.9,100.8,103.4z"/>
		<g>
			<g>
				<g>
					<defs>
						<path id="SVGID_3_" d="M104.4,88.2c0,0,2.5-4.1,11.1-4.9c8.6-0.8,11.4,2.3,11.4,2.3s-1.8,5.2-10.7,6
							C107.4,92.5,104.4,88.2,104.4,88.2z"/>
					</defs>
					<use xlink:href="#SVGID_3_"  style="overflow:visible;fill:#FFFFFF;"/>
					<clipPath id="SVGID_4_">
						<use xlink:href="#SVGID_3_"  style="overflow:visible;"/>
					</clipPath>
					<g class="st5">
						
							<ellipse transform="matrix(0.9958 -9.116226e-02 9.116226e-02 0.9958 -7.372 10.9248)" class="st6" cx="115.9" cy="86.2" rx="5.9" ry="5.9"/>
						
							<ellipse transform="matrix(0.9958 -9.113171e-02 9.113171e-02 0.9958 -7.3697 10.921)" class="st7" cx="115.9" cy="86.2" rx="3.3" ry="3.3"/>
						
							<ellipse transform="matrix(0.9958 -9.114314e-02 9.114314e-02 0.9958 -7.2216 11.0339)" class="st8" cx="117.2" cy="84.6" rx="0.7" ry="0.7"/>
					</g>
				</g>
				<path class="st9" d="M104.4,88.2c0,0,0.7-6,11-6.9c10.2-0.9,11.6,4.3,11.6,4.3C119.6,81.7,110.3,83.2,104.4,88.2z"/>
			</g>
			<g>
				<g>
					<defs>
						<path id="SVGID_5_" d="M80.8,88.2c0,0-2.5-4.1-11.1-4.9s-11.4,2.3-11.4,2.3s1.8,5.2,10.7,6C77.9,92.5,80.8,88.2,80.8,88.2z"/>
					</defs>
					<use xlink:href="#SVGID_5_"  style="overflow:visible;fill:#FFFFFF;"/>
					<clipPath id="SVGID_6_">
						<use xlink:href="#SVGID_5_"  style="overflow:visible;"/>
					</clipPath>
					<g class="st10">
						
							<ellipse transform="matrix(9.116222e-02 -0.9958 0.9958 9.116222e-02 -22.7725 147.3693)" class="st6" cx="69.4" cy="86.2" rx="5.9" ry="5.9"/>
						
							<ellipse transform="matrix(9.113170e-02 -0.9958 0.9958 9.113170e-02 -22.7706 147.3721)" class="st7" cx="69.4" cy="86.2" rx="3.3" ry="3.3"/>
						
							<ellipse transform="matrix(9.114313e-02 -0.9958 0.9958 9.114313e-02 -19.8518 148.1876)" class="st8" cx="71.3" cy="85" rx="0.7" ry="0.7"/>
					</g>
				</g>
				<path class="st9" d="M80.8,88.2c0,0-0.7-6-11-6.9c-10.2-0.9-11.6,4.3-11.6,4.3C65.6,81.7,74.9,83.2,80.8,88.2z"/>
			</g>
		</g>
		<g>
			<ellipse class="st11" cx="62.2" cy="102.4" rx="9.9" ry="5.1"/>
			<ellipse class="st11" cx="123" cy="102.4" rx="9.9" ry="5.1"/>
		</g>
		<g>
			<path class="st0" d="M128.3,79.1c-0.1,0.1-0.4-0.1-0.9-0.3c-0.5-0.3-1.1-0.6-2-0.9c-0.8-0.3-1.8-0.6-2.9-0.7
				c-1.1-0.1-2.3-0.1-3.5,0c-1.2,0.1-2.5,0.3-3.7,0.4c-1.2,0.1-2.4,0.3-3.4,0.4c-2.1,0.2-3.6,0.4-3.9,0.4c-1.3,0.1-2.3-0.8-2.4-2.1
				c-0.1-1.2,0.9-2.3,2.1-2.3c0.3,0,1.8,0,3.9-0.1c1,0,2.2,0,3.5,0c1.2,0,2.6,0,4,0.1c1.4,0.1,2.8,0.3,4,0.7c1.3,0.4,2.4,1,3.2,1.6
				c0.8,0.6,1.4,1.3,1.7,1.8C128.4,78.7,128.5,79,128.3,79.1z"/>
			<path class="st0" d="M56.9,79.1c0.1,0.1,0.4-0.1,0.9-0.3c0.5-0.3,1.1-0.6,2-0.9c0.8-0.3,1.8-0.6,2.9-0.7c1.1-0.1,2.3-0.1,3.5,0
				c1.2,0.1,2.5,0.3,3.7,0.4c1.2,0.1,2.4,0.3,3.4,0.4c2.1,0.2,3.6,0.4,3.9,0.4c1.3,0.1,2.3-0.8,2.4-2.1c0.1-1.2-0.9-2.3-2.1-2.3
				c-0.3,0-1.8,0-3.9-0.1c-1,0-2.2,0-3.5,0c-1.2,0-2.6,0-4,0.1c-1.4,0.1-2.8,0.3-4,0.7c-1.3,0.4-2.4,1-3.2,1.6
				c-0.8,0.6-1.4,1.3-1.7,1.8C56.9,78.7,56.8,79,56.9,79.1z"/>
		</g>
		<g>
			<path class="st12" d="M100.9,113.9c-2.3,0.2-6.3,0.9-8,1.1c-1.7-0.3-5.7-1-8-1.1c-5.2-0.3-9.8-0.6-14.8-2.3
				c2.4,2.4,10.4,15.9,22.2,16c0.2,0,0.9,0,1.1,0c11.8-0.1,19.8-13.6,22.2-16C110.7,113.3,106.1,113.6,100.9,113.9z"/>
			<path class="st8" d="M92.9,117.5c-10.3,0-18.2-3.5-18.2-3.5c1.9,1.1,8.3,7,17.7,7.1c0.1,0,0.7,0,0.9,0c9.4-0.1,15.8-6,17.7-7.1
				C111.1,113.9,103.2,117.5,92.9,117.5z"/>
		</g>
		<g>
			<path class="st13" d="M168.4,162.1c0.5-3.1,0.7-6.4,0.7-9.5c0.1-18.3-4.4-35.3-3.2-53.8c0.6-8.7,1.8-17.4,0.1-25.9
				c-2.5-12.3-10.7-22.1-18.3-31.6c-6.6-8.3-11.1-17.7-17.4-26c-4.7-6.3-12.1-10.6-19.9-11.6c-6.8-0.9-14.6,0.9-20.6,4.6
				C83.5,6.1,72,3.3,64.2,6.9c-14.9,6.9-29,16.5-32.3,32.7C28.7,55.2,19.3,67.8,13,82.2c-5.3,12.1-2.3,24.3-1.6,36.8
				c1.3,23.1-8.1,53.9,17.1,67.3c10,5.3,21.7,6.2,33,6.2c-5.1-4.8-5.3-12.6-5.2-19.5c0.2-11.8,10.4-23.3,6.1-35
				c-2.5-6.8-9.1-10.9-14.3-15.8c-5.2-4.9-9.5-12.8-6-19.1c3.9-6.8,11.3-8,14.9-15c3.3-6.5,3.4-15.7,5.2-22.8
				c6.8-26.1,26.1-32.8,31-34.1c6,0.6,11.8,2.4,14.6,7.5c2.1,3.9,1.7,8.7,3.2,12.9c2,5.4,7.1,9,11.6,12.6c4.5,3.6,9,8.4,8.9,14.2
				c0,7.7-8,13.8-7.3,21.5c0.6,6.4,6.4,7.9,9.1,12.8c2.6,4.6,1.8,12.3,2.4,17.5c0.2,2.1,0.5,4.2,0.1,6.2c-1.2,7.2-9.3,12.2-9.6,19.5
				c-0.1,2.4,0.6,4.7,1,7c1.3,8.2-6.6,18.7-11.9,24.2c1-1,13.6,1.8,15.7,1.9c4.4,0.3,9.7,1.2,14.1-0.2c6.9-2.1,15.3-9,19.1-15
				C166.4,170.3,167.7,166.3,168.4,162.1z"/>
		</g>
	</g>
</g>
</svg>
