<?xml version="1.0" encoding="utf-8"?>
<!-- Generator: Adobe Illustrator 20.1.0, SVG Export Plug-In . SVG Version: 6.00 Build 0)  -->
<svg version="1.1" id="Layer_1" xmlns="http://www.w3.org/2000/svg" xmlns:xlink="http://www.w3.org/1999/xlink" x="0px" y="0px"
	 viewBox="0 0 177 207.7" style="enable-background:new 0 0 177 207.7;" xml:space="preserve">
<style type="text/css">
	.st0{fill:#1F100C;}
	.st1{fill:#AF7954;}
	.st2{fill:#8A5C3E;}
	.st3{fill:#A13A92;}
	.st4{fill:#936545;}
	.st5{fill:#FCC299;}
	.st6{fill:#F9A66E;}
	.st7{fill:#542C18;}
	.st8{clip-path:url(#SVGID_4_);}
	.st9{fill:#417147;}
	.st10{fill:#010101;}
	.st11{fill:#FFFFFF;}
	.st12{fill:#674437;}
	.st13{clip-path:url(#SVGID_6_);}
	.st14{fill:#BF7566;}
	.st15{fill:#37180F;}
	.st16{fill:#E06961;}
</style>
<g>
	<defs>
		<path id="SVGID_1_" d="M142.3,45L142.3,45L142.3,45c-7.3-23.5-28.7-41.3-54.1-41.3c-25.3,0-46.8,17.8-54.1,41.2l0,0l0,0
			C33.8,46,4.6,203.1,4.6,203.1c19.6,0,34.5-14.7,34.5-34.3l19.1-7.6c0,0,9.3,0,5.7-18.3c-16.9-9.2-19.4-23.7-19.4-23.7l-1-4.7
			l1.6-43.4h86.4l2.4,43.8l-0.9,4.3c0,0-1.6,14-19.7,23.9c-5.2,16.9,5.4,18.1,5.4,18.1l21.4,8.6c0,19.6,12.3,33.3,31.8,33.3
			C172,203.1,142.7,46.1,142.3,45z"/>
	</defs>
	<clipPath id="SVGID_2_">
		<use xlink:href="#SVGID_1_"  style="overflow:visible;"/>
	</clipPath>
</g>
<g>
	<path class="st0" d="M99.6,187.4c-8.2,6.2-18.6,9.5-29,9.3c-10.4-0.2-20.6-4.1-28.4-10.7c-8.6,4.4-16.2-3.7-19.5-11.1
		c-10.8-24.3-0.2-51.8-5.9-76.6C13.1,81.9,17,67.7,30.7,57.5c8.8-6.6,9.4-17.7,12.5-21.7c2.5-3.3,12.6-25.7,46.1-15.2
		c14.3-7.3,25-2.8,34.8,2.9c10,5.8,14.7,19.7,23.8,26.4c4.5,3.3,9.3,7.2,10.2,12.6c0.6,4.1-1.5,8.3-0.8,12.4
		c0.7,4.1,2.7,6.1,3.2,10.3c0.8,6.6,0.8,13.3,2.1,19.8c1,5.2,4.1,9.4,4.6,14.5c1.4,12.5-2.8,28.5-9.3,39c-1.5,2.4-3.2,4.7-4.1,7.3
		c-2.6,7.3-0.9,13-7.3,18.4c-6,5-13.4,8.3-21.1,9.5C115.1,195.2,108.3,192.9,99.6,187.4z"/>
	<g>
		<path class="st1" d="M170.3,199.5c-2.8-8.7-5.5-16-8.2-20.8c-0.2-0.4-0.3-0.7-0.5-1.1c-0.4-0.7-1-1.5-1.5-2.2
			c-0.8-1.1-1.6-1.9-2.3-2.5c0,0-0.1,0-0.1-0.1c-12.7-11.5-41-15.3-41-22.3c0-7.9,0-33.6,0-33.6H67.2c0,0,0,25.8,0,33.6
			c0,7-28.1,10.8-40.9,22.2c-0.1,0.1-0.1,0.1-0.2,0.2c-0.9,0.7-1.8,1.7-2.7,3c-0.4,0.5-0.8,1.1-1.1,1.6c-0.1,0.2-0.2,0.5-0.3,0.7
			c-2.8,4.8-5.6,12.2-8.5,21.2H170.3z"/>
		<path class="st2" d="M116.7,141.8c0-10.5,0-24.8,0-24.8H67.2c0,0,0,21.7,0,31.4c1.2-3.6,9.5,0.8,20.4,2.9
			C98.7,153.4,111.3,149.9,116.7,141.8z"/>
		<path class="st3" d="M162.1,178.7c-0.2-0.4-0.3-0.7-0.5-1.1c-0.4-0.7-1-1.5-1.5-2.2c-0.8-1.1-1.6-1.9-2.3-2.5c0,0-0.1,0-0.1-0.1
			c-9.2-8.3-26.5-12.6-35.4-17c-7.3,8.6-18.2,14-30.3,14c-12.1,0-23-5.4-30.3-14c-8.9,4.4-26.1,8.6-35.3,16.9
			c-0.1,0.1-0.1,0.1-0.2,0.2c-0.9,0.7-1.8,1.7-2.7,3c-0.4,0.5-0.8,1.1-1.1,1.6c-0.1,0.2-0.2,0.5-0.3,0.7c-2.8,4.8-5.6,12.2-8.5,21.2
			h156.9C167.6,190.7,164.8,183.5,162.1,178.7z"/>
	</g>
	<g>
		<path class="st1" d="M92.5,18C66.2,18.2,45,33.7,45,69.2c0,15.7,0.4,42.2,6.5,52.1c6.1,9.9,14.2,14,20.9,18
			c6.5,3.8,12.3,6.4,20.1,6.6c7.8-0.1,13.6-2.7,20.1-6.6c6.7-3.9,14.9-8.1,20.9-18c6.1-9.8,6.5-36.4,6.5-52.1
			C140,33.7,118.8,18.2,92.5,18z"/>
		<g>
			<g>
				<path class="st1" d="M50,86.3c0,0-7-8.7-14.1-4.9c-12,6.5-1.7,33.6,13.1,28.5L50,86.3z"/>
				<path class="st4" d="M47.4,88c0,0-4.9-5.6-9.7-3.1c-8.2,4.1,1.9,23.6,9.2,18.1L47.4,88z"/>
			</g>
			<g>
				<path class="st5" d="M133.5,86.3c0,0,7-8.7,14.1-4.9c12,6.5,1.7,33.6-13.1,28.5L133.5,86.3z"/>
				<path class="st6" d="M136.2,88c0,0,4.9-5.6,9.7-3.1c8.2,4.1-1.9,23.6-9.2,18.1L136.2,88z"/>
			</g>
		</g>
		<path class="st7" d="M100.7,106.3c-0.1-0.6-0.4-1.1-0.7-1.4c-0.3-0.3-0.6-0.6-0.8-0.7c-0.2-0.1-0.4-0.2-0.4-0.1
			c-0.1,0.1,0.3,0.5,0.7,1.2c0.2,0.3,0.4,0.7,0.4,1.2c0.1,0.5,0,1-0.2,1.4c-0.2,0.4-0.6,0.6-1,0.6c-0.2,0-0.4-0.1-0.6-0.3
			c-0.2-0.1-0.4-0.3-0.6-0.3c-0.2-0.1-0.3-0.1-0.5-0.1c0.3-0.5,0.3-0.8,0.3-0.9c-0.1-0.1-0.5,0.5-1.3,1.2c-0.4,0.3-0.9,0.7-1.4,1
			c-0.6,0.3-1.3,0.5-2,0.5c-0.7,0-1.4-0.2-2-0.5c-0.6-0.3-1.1-0.6-1.5-1c-0.8-0.7-1.2-1.2-1.3-1.1c-0.1,0,0,0.3,0.2,0.7
			c-0.1,0-0.3,0-0.4,0.1c-0.2,0.1-0.4,0.2-0.6,0.3c-0.2,0.1-0.4,0.2-0.6,0.3c-0.3,0.1-0.7-0.2-1-0.6c-0.2-0.4-0.3-1-0.2-1.4
			c0.1-0.5,0.3-0.9,0.4-1.2c0.4-0.7,0.7-1,0.7-1.2c0,0-0.2,0-0.4,0.1c-0.2,0.1-0.5,0.3-0.8,0.7c-0.3,0.3-0.6,0.8-0.7,1.4
			c-0.1,0.6-0.2,1.3,0.2,2c0.2,0.3,0.5,0.6,0.8,0.8c0.3,0.2,0.8,0.3,1.1,0.1c0.4-0.1,0.6-0.3,0.8-0.5c0.2-0.2,0.4-0.3,0.5-0.4
			c0.2-0.1,0.3-0.2,0.5-0.2c0.1,0.1,0.2,0.3,0.3,0.4c0.4,0.4,0.9,0.9,1.6,1.2c0.7,0.4,1.5,0.6,2.4,0.6c0.9,0,1.7-0.3,2.4-0.7
			c0.7-0.4,1.2-0.9,1.5-1.3c0.1-0.1,0.1-0.2,0.2-0.3c0.2,0,0.3,0.1,0.5,0.2c0.1,0.1,0.3,0.2,0.5,0.4c0.2,0.2,0.4,0.3,0.8,0.5
			c0.4,0.1,0.8,0,1.1-0.1c0.3-0.2,0.6-0.5,0.8-0.8C100.8,107.6,100.8,106.9,100.7,106.3z"/>
		<g>
			<g>
				<g>
					<defs>
						<path id="SVGID_3_" d="M104.3,91.2c0,0,2.5-4.1,11.1-4.9c8.6-0.8,11.4,2.3,11.4,2.3s-1.8,5.2-10.7,6
							C107.3,95.4,104.3,91.2,104.3,91.2z"/>
					</defs>
					<use xlink:href="#SVGID_3_"  style="overflow:visible;fill:#FFFFFF;"/>
					<clipPath id="SVGID_4_">
						<use xlink:href="#SVGID_3_"  style="overflow:visible;"/>
					</clipPath>
					<g class="st8">
						
							<ellipse transform="matrix(0.9958 -9.116226e-02 9.116226e-02 0.9958 -7.6401 10.9244)" class="st9" cx="115.8" cy="89.1" rx="5.9" ry="5.9"/>
						
							<ellipse transform="matrix(0.9958 -9.113171e-02 9.113171e-02 0.9958 -7.6377 10.9206)" class="st10" cx="115.8" cy="89.1" rx="3.3" ry="3.3"/>
						
							<ellipse transform="matrix(0.9958 -9.114314e-02 9.114314e-02 0.9958 -7.4897 11.0336)" class="st11" cx="117.1" cy="87.5" rx="0.7" ry="0.7"/>
					</g>
				</g>
				<path class="st12" d="M104.3,91.2c0,0,0.7-6,11-6.9c10.2-0.9,11.6,4.3,11.6,4.3C119.5,84.6,110.2,86.1,104.3,91.2z"/>
			</g>
			<g>
				<g>
					<defs>
						<path id="SVGID_5_" d="M80.7,91.2c0,0-2.5-4.1-11.1-4.9s-11.4,2.3-11.4,2.3s1.8,5.2,10.7,6C77.7,95.4,80.7,91.2,80.7,91.2z"/>
					</defs>
					<use xlink:href="#SVGID_5_"  style="overflow:visible;fill:#FFFFFF;"/>
					<clipPath id="SVGID_6_">
						<use xlink:href="#SVGID_5_"  style="overflow:visible;"/>
					</clipPath>
					<g class="st13">
						
							<ellipse transform="matrix(9.116222e-02 -0.9958 0.9958 9.116222e-02 -25.8204 149.8993)" class="st9" cx="69.2" cy="89.1" rx="5.9" ry="5.9"/>
						
							<ellipse transform="matrix(9.113170e-02 -0.9958 0.9958 9.113170e-02 -25.8186 149.9022)" class="st10" cx="69.2" cy="89.1" rx="3.3" ry="3.3"/>
						
							<ellipse transform="matrix(9.114313e-02 -0.9958 0.9958 9.114313e-02 -22.8997 150.7177)" class="st11" cx="71.1" cy="87.9" rx="0.7" ry="0.7"/>
					</g>
				</g>
				<path class="st12" d="M80.7,91.2c0,0-0.7-6-11-6.9c-10.2-0.9-11.6,4.3-11.6,4.3C65.5,84.6,74.8,86.1,80.7,91.2z"/>
			</g>
		</g>
		<g>
			<ellipse class="st14" cx="62.1" cy="105.4" rx="9.9" ry="5.1"/>
			<ellipse class="st14" cx="122.9" cy="105.4" rx="9.9" ry="5.1"/>
		</g>
		<g>
			<path class="st15" d="M128.2,82c-0.1,0.1-0.4-0.1-0.9-0.3c-0.5-0.3-1.1-0.6-2-0.9c-0.8-0.3-1.8-0.6-2.9-0.7
				c-1.1-0.1-2.3-0.1-3.5,0c-1.2,0.1-2.5,0.3-3.7,0.4c-1.2,0.1-2.4,0.3-3.4,0.4c-2.1,0.2-3.6,0.4-3.9,0.4c-1.3,0.1-2.3-0.8-2.4-2.1
				c-0.1-1.2,0.9-2.3,2.1-2.3c0.3,0,1.8,0,3.9-0.1c1,0,2.2,0,3.5,0c1.2,0,2.6,0,4,0.1c1.4,0.1,2.8,0.3,4,0.7c1.3,0.4,2.4,1,3.2,1.6
				c0.8,0.6,1.4,1.3,1.7,1.8C128.2,81.6,128.3,82,128.2,82z"/>
			<path class="st15" d="M56.8,82c0.1,0.1,0.4-0.1,0.9-0.3c0.5-0.3,1.1-0.6,2-0.9c0.8-0.3,1.8-0.6,2.9-0.7c1.1-0.1,2.3-0.1,3.5,0
				c1.2,0.1,2.5,0.3,3.7,0.4c1.2,0.1,2.4,0.3,3.4,0.4c2.1,0.2,3.6,0.4,3.9,0.4c1.3,0.1,2.3-0.8,2.4-2.1c0.1-1.2-0.9-2.3-2.1-2.3
				c-0.3,0-1.8,0-3.9-0.1c-1,0-2.2,0-3.5,0c-1.2,0-2.6,0-4,0.1c-1.4,0.1-2.8,0.3-4,0.7c-1.3,0.4-2.4,1-3.2,1.6
				c-0.8,0.6-1.4,1.3-1.7,1.8C56.7,81.6,56.7,82,56.8,82z"/>
		</g>
		<g>
			<path class="st16" d="M100.8,116.8c-2.3,0.2-6.3,0.9-8,1.1c-1.7-0.3-5.7-1-8-1.1c-5.2-0.3-9.8-0.6-14.8-2.3
				c2.4,2.4,10.4,15.9,22.2,16c0.2,0,0.9,0,1.1,0c11.8-0.1,19.8-13.6,22.2-16C110.5,116.2,105.9,116.5,100.8,116.8z"/>
			<path class="st11" d="M92.8,120.4c-10.3,0-18.2-3.5-18.2-3.5c1.9,1.1,8.3,7,17.7,7.1c0.1,0,0.7,0,0.9,0c9.4-0.1,15.8-6,17.7-7.1
				C111,116.9,103.1,120.4,92.8,120.4z"/>
		</g>
		<g>
			<path class="st15" d="M174.2,173.8c2.1-7.7,1.8-16.1-0.3-23.8c-1.3-4.7-3.2-9.3-3.2-14.1c0-4,1.4-7.9,2.4-11.9
				c4-15.8,1.3-33.2-7.4-47.1c-5.4-8.6-0.3-15.7-3.6-24.3c-2.7-7.1-12-8.7-18-13.4c-6.7-5.3-8.9-14.3-14.1-21.1
				c-4.7-6.3-12.1-10.6-19.9-11.6c-6.8-0.9-14.6,0.9-20.6,4.6c-6.3-2.1-17.9-4.9-25.6-1.3C55.6,13.8,34,28.5,30.3,37.1
				c-2.6,6.1-1.9,13.3-4.5,19.5c-2.3,5.5-7,9.6-11,14s-7.9,9.6-7.9,15.6c0,4.9,2.7,9.3,4.5,13.9c1.9,4.5,2.8,10.1-0.1,14
				c-12.1,16.3-13.2,40.3-6.3,59c3.6,9.8,9.9,19.1,19.2,24c9.8,5.1,21.4,4.7,32.5,4.2c-3.2,0.2-5.5-14.4-5.6-16.9
				c-0.2-7.3,3.9-14.2,7.1-20.5c3.7-7.2,7-15.5,4.2-23.1c-2.5-6.8-9.1-10.9-14.3-15.8c-5.2-4.9-9.5-12.8-6-19.1
				c3.9-6.8,11.3-8,14.9-15c3.3-6.5,3.4-15.7,5.2-22.8c6.8-26.1,26.1-32.8,31-34.1c6,0.6,11.8,2.4,14.6,7.5
				c2.1,3.9,1.7,8.7,3.2,12.9c2,5.4,7.1,9,11.6,12.6c4.5,3.6,9,8.4,8.9,14.2c0,7.7-8,13.8-7.3,21.5c0.9,8.9,12.7,12.8,15.4,21.4
				c3.4,10.9-9.8,21.2-8,32.4c1.3,8.3,8.4,13.7,3.9,22.3c-3.8,7.3-9.6,15.2-15.4,21.2c10.5-0.6,21.3,1.6,31.3-1.4
				c9.4-2.9,17.2-10.5,21.1-19.5C173.1,177.3,173.7,175.6,174.2,173.8z"/>
		</g>
	</g>
</g>
</svg>
