<?xml version="1.0" encoding="utf-8"?>
<!-- Generator: Adobe Illustrator 20.1.0, SVG Export Plug-In . SVG Version: 6.00 Build 0)  -->
<svg version="1.1" id="Layer_1" xmlns="http://www.w3.org/2000/svg" xmlns:xlink="http://www.w3.org/1999/xlink" x="0px" y="0px"
	 viewBox="0 0 177 207.7" style="enable-background:new 0 0 177 207.7;" xml:space="preserve">
<style type="text/css">
	.st0{fill:#613F2E;}
	.st1{fill:#3F271C;}
	.st2{fill:#E69C6A;}
	.st3{fill:#B27951;}
	.st4{fill:#F38499;}
	.st5{clip-path:url(#SVGID_4_);}
	.st6{fill:#4F899B;}
	.st7{fill:#010101;}
	.st8{fill:#FFFFFF;}
	.st9{fill:#C17C56;}
	.st10{clip-path:url(#SVGID_6_);}
	.st11{fill:#F8A793;}
	.st12{fill:#77503F;}
	.st13{fill:#F37A6E;}
</style>
<g>
	<defs>
		<path id="SVGID_1_" d="M142.3,45L142.3,45L142.3,45c-7.3-23.5-28.7-41.3-54.1-41.3c-25.3,0-46.8,17.8-54.1,41.2l0,0l0,0
			C33.8,46,4.6,203.1,4.6,203.1c19.6,0,34.5-14.7,34.5-34.3l19.1-7.6c0,0,9.3,0,5.7-18.3c-16.9-9.2-19.4-23.7-19.4-23.7l-1-4.7
			l1.6-43.4h86.4l2.4,43.8l-0.9,4.3c0,0-1.6,14-19.7,23.9c-5.2,16.9,5.4,18.1,5.4,18.1l21.4,8.6c0,19.6,12.3,33.3,31.8,33.3
			C172,203.1,142.7,46.1,142.3,45z"/>
	</defs>
	<clipPath id="SVGID_2_">
		<use xlink:href="#SVGID_1_"  style="overflow:visible;"/>
	</clipPath>
</g>
<g>
	<g>
		<path class="st0" d="M157.4,94c1.5,16,0.2,32.5-6,47.3c-2.6,6.2-6,12-8.6,18.3c-2.6,6.2-4.3,13-3.3,19.6c1,6.6,5.3,13.1,11.6,15.3
			c-9.6,4.4-21.3,2.8-30.3-2.7c-9-5.6-15.4-14.7-19.2-24.5c-3.8-9.9-5.3-20.5-6-31c-3-41.8,9.7-87.9,27.5-125.8
			C143.7,3,155.9,78,157.4,94z"/>
		<path class="st1" d="M134,88.1c-0.6-2.4,7.9-49.1-16.4-65.2C93.3,6.9,56.3,36.2,47,58.9c-9.3,22.7-30.5,57.6-25.8,70.6
			c7.1,19.7,20.2,42.6,29.4,61.4l64-2.6c0,0,0.9-17.2,6.7-31.8c5.8-14.7,12.8-29.2,14.3-45.1C136.4,103.6,135.8,95.7,134,88.1z"/>
	</g>
	<g>
		<path class="st2" d="M167.4,197c-2.8-8.7-5.5-16-8.2-20.8c-0.2-0.4-0.3-0.7-0.5-1.1c-0.4-0.7-1-1.5-1.5-2.2
			c-0.8-1.1-1.6-1.9-2.3-2.5c0,0-0.1,0-0.1-0.1c-12.7-11.5-41-15.3-41-22.3c0-7.9,0-33.6,0-33.6H64.2c0,0,0,25.8,0,33.6
			c0,7-28.1,10.8-40.9,22.2c-0.1,0.1-0.1,0.1-0.2,0.2c-0.9,0.7-1.8,1.7-2.7,3c-0.4,0.5-0.8,1.1-1.1,1.6c-0.1,0.2-0.2,0.5-0.3,0.7
			c-2.8,4.8-5.6,12.2-8.5,21.2H167.4z"/>
		<path class="st3" d="M113.7,139.3c0-10.5,0-24.8,0-24.8H64.2c0,0,0,21.7,0,31.4c1.2-3.6,9.5,0.8,20.4,2.9
			C95.7,150.9,108.3,147.4,113.7,139.3z"/>
		<path class="st4" d="M159.2,176.2c-0.2-0.4-0.3-0.7-0.5-1.1c-0.4-0.7-1-1.5-1.5-2.2c-0.8-1.1-1.6-1.9-2.3-2.5c0,0-0.1,0-0.1-0.1
			c-9.2-8.3-26.5-12.6-35.4-17c-7.3,8.6-18.2,14-30.3,14c-12.1,0-23-5.4-30.3-14c-8.9,4.4-26.1,8.6-35.3,16.9
			c-0.1,0.1-0.1,0.1-0.2,0.2c-0.9,0.7-1.8,1.7-2.7,3c-0.4,0.5-0.8,1.1-1.1,1.6c-0.1,0.2-0.2,0.5-0.3,0.7c-2.8,4.8-5.6,12.2-8.5,21.2
			h156.9C164.6,188.3,161.9,181,159.2,176.2z"/>
	</g>
	<g>
		<g>
			<g>
				<path class="st2" d="M46.4,85.1c0,0-7-8.7-14.1-4.9c-12,6.5-1.7,33.6,13.1,28.5L46.4,85.1z"/>
				<path class="st3" d="M43.7,86.9c0,0-4.9-5.6-9.7-3.1c-8.2,4.1,1.9,23.6,9.2,18.1L43.7,86.9z"/>
			</g>
			<g>
				<path class="st2" d="M129.9,85.1c0,0,7-8.7,14.1-4.9c12,6.5,1.7,33.6-13.1,28.5L129.9,85.1z"/>
				<path class="st3" d="M132.5,86.9c0,0,4.9-5.6,9.7-3.1c8.2,4.1-1.9,23.6-9.2,18.1L132.5,86.9z"/>
			</g>
		</g>
		<path class="st2" d="M88.8,16.9c-26.3,0.3-47.5,15.7-47.5,51.3c0,15.7,0.4,42.2,6.5,52.1s14.2,14,20.9,18
			c6.5,3.8,12.3,6.4,20.1,6.6c7.8-0.1,13.6-2.7,20.1-6.6c6.7-3.9,14.9-8.1,20.9-18c6.1-9.8,6.5-36.4,6.5-52.1
			C136.4,32.6,115.2,17.1,88.8,16.9z"/>
		<path class="st1" d="M97,106.2c-0.1-0.6-0.4-1.1-0.7-1.4c-0.3-0.3-0.6-0.6-0.8-0.7c-0.2-0.1-0.4-0.2-0.4-0.1
			c-0.1,0.1,0.3,0.5,0.7,1.2c0.2,0.3,0.4,0.7,0.4,1.2c0.1,0.5,0,1-0.2,1.4c-0.2,0.4-0.6,0.6-1,0.6c-0.2,0-0.4-0.1-0.6-0.3
			c-0.2-0.1-0.4-0.3-0.6-0.3c-0.2-0.1-0.3-0.1-0.5-0.1c0.3-0.5,0.3-0.8,0.3-0.9c-0.1-0.1-0.5,0.5-1.3,1.2c-0.4,0.3-0.9,0.7-1.4,1
			c-0.6,0.3-1.3,0.5-2,0.5c-0.7,0-1.4-0.2-2-0.5c-0.6-0.3-1.1-0.6-1.5-1c-0.8-0.7-1.2-1.2-1.3-1.1c-0.1,0,0,0.3,0.2,0.7
			c-0.1,0-0.3,0-0.4,0.1c-0.2,0.1-0.4,0.2-0.6,0.3c-0.2,0.1-0.4,0.2-0.6,0.3c-0.3,0.1-0.7-0.2-1-0.6c-0.2-0.4-0.3-1-0.2-1.4
			c0.1-0.5,0.3-0.9,0.4-1.2c0.4-0.7,0.7-1,0.7-1.2c0,0-0.2,0-0.4,0.1c-0.2,0.1-0.5,0.3-0.8,0.7c-0.3,0.3-0.6,0.8-0.7,1.4
			c-0.1,0.6-0.2,1.3,0.2,2c0.2,0.3,0.5,0.6,0.8,0.8c0.3,0.2,0.8,0.3,1.1,0.1c0.4-0.1,0.6-0.3,0.8-0.5c0.2-0.2,0.4-0.3,0.5-0.4
			c0.2-0.1,0.3-0.2,0.5-0.2c0.1,0.1,0.2,0.3,0.3,0.4c0.4,0.4,0.9,0.9,1.6,1.2c0.7,0.4,1.5,0.6,2.4,0.6c0.9,0,1.7-0.3,2.4-0.7
			c0.7-0.4,1.2-0.9,1.5-1.3c0.1-0.1,0.1-0.2,0.2-0.3c0.2,0,0.3,0.1,0.5,0.2c0.1,0.1,0.3,0.2,0.5,0.4c0.2,0.2,0.4,0.3,0.8,0.5
			c0.4,0.1,0.8,0,1.1-0.1c0.3-0.2,0.6-0.5,0.8-0.8C97.2,107.6,97.2,106.8,97,106.2z"/>
		<g>
			<g>
				<g>
					<defs>
						<path id="SVGID_3_" d="M100.5,89.1c0,0,3.1-4.1,12.4-4.1s12,3.6,12,3.6s-2.5,5.4-12.1,5.4C103.2,93.9,100.5,89.1,100.5,89.1z"
							/>
					</defs>
					<use xlink:href="#SVGID_3_"  style="overflow:visible;fill:#FFFFFF;"/>
					<clipPath id="SVGID_4_">
						<use xlink:href="#SVGID_3_"  style="overflow:visible;"/>
					</clipPath>
					<g class="st5">
						<circle class="st6" cx="112.9" cy="88.4" r="6.4"/>
						<circle class="st7" cx="112.9" cy="88.4" r="3.6"/>
						<circle class="st8" cx="114.4" cy="86.8" r="0.7"/>
					</g>
				</g>
				<path class="st9" d="M100.5,89.1c0,0,1.4-6.3,12.4-6.3c11,0,12,5.8,12,5.8C117.4,83.6,107.3,84.2,100.5,89.1z"/>
			</g>
			<g>
				<g>
					<defs>
						<path id="SVGID_5_" d="M77.2,89.1c0,0-3.1-4.1-12.4-4.1s-12,3.6-12,3.6s2.5,5.4,12.1,5.4C74.5,93.9,77.2,89.1,77.2,89.1z"/>
					</defs>
					<use xlink:href="#SVGID_5_"  style="overflow:visible;fill:#FFFFFF;"/>
					<clipPath id="SVGID_6_">
						<use xlink:href="#SVGID_5_"  style="overflow:visible;"/>
					</clipPath>
					<g class="st10">
						<circle class="st6" cx="64.8" cy="88.4" r="6.4"/>
						<circle class="st7" cx="64.8" cy="88.4" r="3.6"/>
						<circle class="st8" cx="66.3" cy="86.8" r="0.7"/>
					</g>
				</g>
				<path class="st9" d="M77.2,89.1c0,0-1.4-6.3-12.4-6.3c-11,0-12,5.8-12,5.8C60.3,83.6,70.4,84.2,77.2,89.1z"/>
			</g>
		</g>
		<g>
			<path class="st0" d="M126.5,77.9c-0.1,0.1-0.4-0.1-0.9-0.4c-0.5-0.3-1.2-0.7-2.1-1c-0.9-0.3-1.9-0.6-3.1-0.7
				c-1.2-0.1-2.4-0.1-3.7,0c-1.3,0.1-2.6,0.3-3.9,0.4c-1.3,0.2-2.5,0.3-3.6,0.4c-2.2,0.2-3.7,0.4-4.1,0.4c-1.3,0.1-2.5-0.9-2.5-2.2
				c-0.1-1.3,0.9-2.4,2.3-2.5c0.3,0,1.9-0.1,4.1-0.1c1.1,0,2.3,0,3.7,0c1.3,0,2.7,0,4.2,0.1c1.4,0.1,2.9,0.3,4.3,0.8
				c1.3,0.4,2.5,1,3.4,1.7c0.9,0.7,1.5,1.4,1.8,1.9C126.6,77.4,126.6,77.8,126.5,77.9z"/>
			<path class="st0" d="M51.2,77.9c0.1,0.1,0.4-0.1,0.9-0.4c0.5-0.3,1.2-0.7,2.1-1c0.9-0.3,1.9-0.6,3.1-0.7c1.2-0.1,2.4-0.1,3.7,0
				c1.3,0.1,2.6,0.3,3.9,0.4c1.3,0.2,2.5,0.3,3.6,0.4c2.2,0.2,3.7,0.4,4.1,0.4c1.3,0.1,2.5-0.9,2.5-2.2c0.1-1.3-0.9-2.4-2.3-2.5
				c-0.3,0-1.9-0.1-4.1-0.1c-1.1,0-2.3,0-3.7,0c-1.3,0-2.7,0-4.2,0.1c-1.4,0.1-2.9,0.3-4.3,0.8c-1.3,0.4-2.5,1-3.4,1.7
				c-0.9,0.7-1.5,1.4-1.8,1.9C51.1,77.4,51,77.8,51.2,77.9z"/>
		</g>
		<g>
			<ellipse class="st11" cx="58.4" cy="104.2" rx="9.9" ry="5.1"/>
			<ellipse class="st11" cx="119.2" cy="104.2" rx="9.9" ry="5.1"/>
		</g>
		<g>
			<path class="st0" d="M136.4,80.1c5.6-8.6,5.9-37.3,3.2-47.1c-2.7-9.9-9.8-18.4-19-22.9c0.2,0.1-2.7,6.8-2.9,7.4
				c-0.4,2-0.2,3.5,0,5.5c0.5,5,1.1,9.7,2.6,14.5C123,46.8,129.5,73.2,136.4,80.1z"/>
			<path class="st0" d="M24.1,98c17-37,38.1-47.2,56.3-53.1c12.8-4.2,25.4-10.3,35.5-19.4c4.2-3.9,9.4-8.8,7.3-15.1
				C66.7-18,9.5,27.9,24.1,98z"/>
			<path class="st12" d="M60.2,206c1.3-1.5,5.2-12.4,5.4-13.5c0.8-5.6,0.2-11.5-1.9-16.7c-4.4-10.6-17.2-15.9-22.7-26.3
				c-5.6-10.6-9.9-23.2-9.5-35.8c0.4-12.6,4.8-24.5,11.8-32.7c7.9-9.1,18.6-13.2,29.1-16.6s21.3-6.3,30.3-13.7s19.7-19.4,18.3-33.5
				c-5.6,12.6-21.3,17.7-32.3,21.5c-11,3.8-22.7,5.4-33.2,10.8c-29.4,14.8-39.6,40.4-41,70.1c0.1,12.3,1.4,24.8,5.3,36.6
				c3.3,9.7,9.9,12.6,17.7,17.7c8.8,5.8,20.7,16.5,21.2,27.7c0.1,1.6,0,3.4,1.2,4.6C60,206.2,60.1,206.2,60.2,206z"/>
		</g>
		<g>
			<path class="st13" d="M93.8,115.4c-2.3,0.4-2.7,0.6-5,0.6c-2.2,0-2.6-0.3-5-0.6c-4.9-1-7.9,0.3-14.1,0.5
				c3.3,6,10.6,12.7,19.1,12.7c8.5,0,15.8-6.8,19.1-12.7C101.7,115.7,98.7,114.4,93.8,115.4z"/>
			<path class="st8" d="M88.8,123.5c-8.1,0-14.6-5.4-14.6-5.4s12.2,0,15.1,0c1.4,0,14.1,0.2,14.1,0.2S97,123.5,88.8,123.5z"/>
		</g>
	</g>
</g>
</svg>
