<?xml version="1.0" encoding="utf-8"?>
<!-- Generator: Adobe Illustrator 20.1.0, SVG Export Plug-In . SVG Version: 6.00 Build 0)  -->
<svg version="1.1" id="Layer_1" xmlns="http://www.w3.org/2000/svg" xmlns:xlink="http://www.w3.org/1999/xlink" x="0px" y="0px"
	 viewBox="0 0 177 207.7" style="enable-background:new 0 0 177 207.7;" xml:space="preserve">
<style type="text/css">
	.st0{fill:#FCC299;}
	.st1{fill:#F9A66E;}
	.st2{fill:#010101;}
	.st3{fill:#B68461;}
	.st4{fill:#DC7B45;}
	.st5{clip-path:url(#SVGID_4_);}
	.st6{fill:#83553E;}
	.st7{fill:#FFFFFF;}
	.st8{fill:#B18C79;}
	.st9{clip-path:url(#SVGID_6_);}
	.st10{fill:#F8A793;}
	.st11{fill:#F16257;}
	.st12{fill:#CB9978;}
</style>
<g>
	<defs>
		<path id="SVGID_1_" d="M142.3,45L142.3,45L142.3,45c-7.3-23.5-28.7-41.3-54.1-41.3c-25.3,0-46.8,17.8-54.1,41.2l0,0l0,0
			C33.8,46,4.6,203.1,4.6,203.1c19.6,0,34.5-14.7,34.5-34.3l19.1-7.6c0,0,9.3,0,5.7-18.3c-16.9-9.2-19.4-23.7-19.4-23.7l-1-4.7
			l1.6-43.4h86.4l2.4,43.8l-0.9,4.3c0,0-1.6,14-19.7,23.9c-5.2,16.9,5.4,18.1,5.4,18.1l21.4,8.6c0,19.6,12.3,33.3,31.8,33.3
			C172,203.1,142.7,46.1,142.3,45z"/>
	</defs>
	<clipPath id="SVGID_2_">
		<use xlink:href="#SVGID_1_"  style="overflow:visible;"/>
	</clipPath>
</g>
<g>
	<g>
		<path class="st0" d="M168.6,199.8c-2.8-8.7-5.5-16-8.2-20.8c-0.2-0.4-0.3-0.7-0.5-1.1c-0.4-0.7-1-1.5-1.5-2.2
			c-0.8-1.1-1.6-1.9-2.3-2.5c0,0-0.1,0-0.1-0.1c-12.7-11.5-41-15.3-41-22.3c0-7.9,0-33.6,0-33.6H65.4c0,0,0,25.8,0,33.6
			c0,7-28.1,10.8-40.9,22.2c-0.1,0.1-0.1,0.1-0.2,0.2c-0.9,0.7-1.8,1.7-2.7,3c-0.4,0.5-0.8,1.1-1.1,1.6c-0.1,0.2-0.2,0.5-0.3,0.7
			c-2.8,4.8-5.6,12.2-8.5,21.2H168.6z"/>
		<path class="st1" d="M114.9,142.1c0-10.5,0-24.8,0-24.8H65.4c0,0,0,21.7,0,31.4c1.2-3.6,9.5,0.8,20.4,2.9
			C97,153.7,109.6,150.2,114.9,142.1z"/>
		<path class="st2" d="M160.4,179c-0.2-0.4-0.3-0.7-0.5-1.1c-0.4-0.7-1-1.5-1.5-2.2c-0.8-1.1-1.6-1.9-2.3-2.5c0,0-0.1,0-0.1-0.1
			c-9.2-8.3-26.5-12.6-35.4-17c-7.3,8.6-18.2,14-30.3,14c-12.1,0-23-5.4-30.3-14c-8.9,4.4-26.1,8.6-35.3,16.9
			c-0.1,0.1-0.1,0.1-0.2,0.2c-0.9,0.7-1.8,1.7-2.7,3c-0.4,0.5-0.8,1.1-1.1,1.6c-0.1,0.2-0.2,0.5-0.3,0.7c-2.8,4.8-5.6,12.2-8.5,21.2
			h156.9C165.9,191,163.1,183.8,160.4,179z"/>
	</g>
	<g>
		<path class="st3" d="M89,139.5c0,0-74.7-18.6-65.3-55.1c1.2-4.8,0.8-9.4-0.2-14.1c-2.9-14.2,0.4-32.4,13.4-40.5
			c3.9-2.4,8.4-4.3,11.3-7.7c2.4-2.8,5.8-5.5,8.7-7.8C68.8,4.6,80,9.7,83.3,13c3.8-6.4,12.8-8.6,20.6-7.1c5.8,1.1,10.7,4.7,15.3,8.2
			c8,6.1,16.1,12.2,24.1,18.3c4,3,8.2,6.5,8.8,11.2c0.6,4.7-4,10.9-0.2,13.9c11.1,8.5,3.1,22.4,4.3,26.5
			C167.5,124.4,89,139.5,89,139.5z"/>
		<path class="st3" d="M155.6,181.2c4.4-6.4,3.7-11.3,3.2-19.1c-0.2-3.4-0.5-6.9-1.8-10c-5.4-13.1-17.9-19.9-26.9-30
			c-3.2,0.8-6.4,1.6-9.6,2.3c2.1-0.5,4.1,14.2,4.3,15.6c1.4,8.7-1.2,16.9-4.6,24.9c-2,4.6-4.4,9.7-2.9,14.5
			c5,15.8,27.1,24.9,42.2,25.2c-5.7-4-9-7.6-7.8-14.4C152.4,186.4,153.9,183.7,155.6,181.2z"/>
		<g>
			<g>
				<path class="st0" d="M48.4,86.7c0,0-7-8.7-14.1-4.9c-12,6.5-1.7,33.6,13.1,28.5L48.4,86.7z"/>
				<path class="st1" d="M45.8,88.4c0,0-4.9-5.6-9.7-3.1c-8.2,4.1,1.9,23.6,9.2,18.1L45.8,88.4z"/>
			</g>
			<g>
				<path class="st0" d="M131.9,86.7c0,0,7-8.7,14.1-4.9c12,6.5,1.7,33.6-13.1,28.5L131.9,86.7z"/>
				<path class="st1" d="M134.6,88.4c0,0,4.9-5.6,9.7-3.1c8.2,4.1-1.9,23.6-9.2,18.1L134.6,88.4z"/>
			</g>
		</g>
		<path class="st0" d="M90.9,18.4c-26.3,0.3-47.5,15.7-47.5,51.3c0,15.7,0.4,42.2,6.5,52.1c6.1,9.8,14.2,14,20.9,18
			c6.5,3.8,12.3,6.4,20.1,6.6c7.8-0.1,13.6-2.7,20.1-6.6c6.7-3.9,14.9-8.1,20.9-18c6.1-9.8,6.5-36.4,6.5-52.1
			C138.4,34.1,117.2,18.6,90.9,18.4z"/>
		<path class="st4" d="M99.1,106.7c-0.1-0.6-0.4-1.1-0.7-1.4c-0.3-0.3-0.6-0.6-0.8-0.7c-0.2-0.1-0.4-0.2-0.4-0.1
			c-0.1,0.1,0.3,0.5,0.7,1.2c0.2,0.3,0.4,0.7,0.4,1.2c0.1,0.5,0,1-0.2,1.4c-0.2,0.4-0.6,0.6-1,0.6c-0.2,0-0.4-0.1-0.6-0.3
			c-0.2-0.1-0.4-0.3-0.6-0.3c-0.2-0.1-0.3-0.1-0.5-0.1c0.3-0.5,0.3-0.8,0.3-0.9c-0.1-0.1-0.5,0.5-1.3,1.2c-0.4,0.3-0.9,0.7-1.4,1
			c-0.6,0.3-1.3,0.5-2,0.5c-0.7,0-1.4-0.2-2-0.5c-0.6-0.3-1.1-0.6-1.5-1c-0.8-0.7-1.2-1.2-1.3-1.1c-0.1,0,0,0.3,0.2,0.7
			c-0.1,0-0.3,0-0.4,0.1c-0.2,0.1-0.4,0.2-0.6,0.3c-0.2,0.1-0.4,0.2-0.6,0.3c-0.3,0.1-0.7-0.2-1-0.6c-0.2-0.4-0.3-1-0.2-1.4
			c0.1-0.5,0.3-0.9,0.4-1.2c0.4-0.7,0.7-1,0.7-1.2c0,0-0.2,0-0.4,0.1c-0.2,0.1-0.5,0.3-0.8,0.7c-0.3,0.3-0.6,0.8-0.7,1.4
			c-0.1,0.6-0.2,1.3,0.2,2c0.2,0.3,0.5,0.6,0.8,0.8c0.3,0.2,0.8,0.3,1.1,0.1c0.4-0.1,0.6-0.3,0.8-0.5c0.2-0.2,0.4-0.3,0.5-0.4
			c0.2-0.1,0.3-0.2,0.5-0.2c0.1,0.1,0.2,0.3,0.3,0.4c0.4,0.4,0.9,0.9,1.6,1.2c0.7,0.4,1.5,0.6,2.4,0.6c0.9,0,1.7-0.3,2.4-0.7
			c0.7-0.4,1.2-0.9,1.5-1.3c0.1-0.1,0.1-0.2,0.2-0.3c0.2,0,0.3,0.1,0.5,0.2c0.1,0.1,0.3,0.2,0.5,0.4c0.2,0.2,0.4,0.3,0.8,0.5
			c0.4,0.1,0.8,0,1.1-0.1c0.3-0.2,0.6-0.5,0.8-0.8C99.2,108,99.2,107.3,99.1,106.7z"/>
		<g>
			<path class="st3" d="M126.6,80.7c-0.1,0.1-0.4-0.1-0.9-0.3c-0.5-0.3-1.1-0.6-2-0.9c-0.8-0.3-1.8-0.6-2.9-0.7
				c-1.1-0.1-2.3-0.1-3.5,0c-1.2,0.1-2.5,0.3-3.7,0.4c-1.2,0.1-2.4,0.3-3.4,0.4c-2.1,0.2-3.6,0.4-3.9,0.4c-1.3,0.1-2.3-0.8-2.4-2.1
				c-0.1-1.2,0.9-2.3,2.1-2.3c0.3,0,1.8,0,3.9-0.1c1,0,2.2,0,3.5,0c1.2,0,2.6,0,4,0.1c1.4,0.1,2.8,0.3,4,0.7c1.3,0.4,2.4,1,3.2,1.6
				c0.8,0.6,1.4,1.3,1.7,1.8C126.6,80.3,126.7,80.6,126.6,80.7z"/>
			<path class="st3" d="M55.2,80.7c0.1,0.1,0.4-0.1,0.9-0.3c0.5-0.3,1.1-0.6,2-0.9c0.8-0.3,1.8-0.6,2.9-0.7c1.1-0.1,2.3-0.1,3.5,0
				c1.2,0.1,2.5,0.3,3.7,0.4c1.2,0.1,2.4,0.3,3.4,0.4c2.1,0.2,3.6,0.4,3.9,0.4c1.3,0.1,2.3-0.8,2.4-2.1c0.1-1.2-0.9-2.3-2.1-2.3
				c-0.3,0-1.8,0-3.9-0.1c-1,0-2.2,0-3.5,0c-1.2,0-2.6,0-4,0.1c-1.4,0.1-2.8,0.3-4,0.7c-1.3,0.4-2.4,1-3.2,1.6
				c-0.8,0.6-1.4,1.3-1.7,1.8C55.1,80.3,55.1,80.6,55.2,80.7z"/>
		</g>
		<g>
			<g>
				<g>
					<defs>
						<path id="SVGID_3_" d="M102.7,91.5c0,0,2.5-4.1,11.1-4.9c8.6-0.8,11.4,2.3,11.4,2.3s-1.8,5.2-10.7,6
							C105.7,95.8,102.7,91.5,102.7,91.5z"/>
					</defs>
					<use xlink:href="#SVGID_3_"  style="overflow:visible;fill:#FFFFFF;"/>
					<clipPath id="SVGID_4_">
						<use xlink:href="#SVGID_3_"  style="overflow:visible;"/>
					</clipPath>
					<g class="st5">
						
							<ellipse transform="matrix(0.9958 -9.114747e-02 9.114747e-02 0.9958 -7.6798 10.778)" class="st6" cx="114.2" cy="89.5" rx="5.9" ry="5.9"/>
						
							<ellipse transform="matrix(0.9958 -9.115803e-02 9.115803e-02 0.9958 -7.6806 10.7793)" class="st2" cx="114.2" cy="89.5" rx="3.3" ry="3.3"/>
						
							<ellipse transform="matrix(0.9958 -9.113115e-02 9.113115e-02 0.9958 -7.5296 10.8875)" class="st7" cx="115.5" cy="87.9" rx="0.7" ry="0.7"/>
					</g>
				</g>
				<path class="st8" d="M102.7,91.5c0,0,0.7-6,11-6.9s11.6,4.3,11.6,4.3C117.9,85,108.6,86.5,102.7,91.5z"/>
			</g>
			<g>
				<g>
					<defs>
						<path id="SVGID_5_" d="M79.1,91.5c0,0-2.5-4.1-11.1-4.9C59.3,85.9,56.6,89,56.6,89s1.8,5.2,10.7,6
							C76.1,95.8,79.1,91.5,79.1,91.5z"/>
					</defs>
					<use xlink:href="#SVGID_5_"  style="overflow:visible;fill:#FFFFFF;"/>
					<clipPath id="SVGID_6_">
						<use xlink:href="#SVGID_5_"  style="overflow:visible;"/>
					</clipPath>
					<g class="st9">
						
							<ellipse transform="matrix(9.114747e-02 -0.9958 0.9958 9.114747e-02 -27.6498 148.644)" class="st6" cx="67.6" cy="89.5" rx="5.9" ry="5.9"/>
						
							<ellipse transform="matrix(9.115803e-02 -0.9958 0.9958 9.115803e-02 -27.6505 148.643)" class="st2" cx="67.6" cy="89.5" rx="3.3" ry="3.3"/>
						
							<ellipse transform="matrix(9.113114e-02 -0.9958 0.9958 9.113114e-02 -24.7292 149.4621)" class="st7" cx="69.5" cy="88.3" rx="0.7" ry="0.7"/>
					</g>
				</g>
				<path class="st8" d="M79.1,91.5c0,0-0.7-6-11-6.9C57.9,83.7,56.6,89,56.6,89C63.9,85,73.2,86.5,79.1,91.5z"/>
			</g>
		</g>
		<g>
			<ellipse class="st10" cx="60.5" cy="105.7" rx="9.9" ry="5.1"/>
			<ellipse class="st10" cx="121.3" cy="105.7" rx="9.9" ry="5.1"/>
		</g>
		<g>
			<path class="st11" d="M112.8,117.9c-6.3,1.7-14.8-0.4-21.6-0.4c-6.8,0-15.7,1.9-21.6,0.4c5.8,5,10.4,13.8,21.6,13.9
				C102.3,131.8,106.2,124.3,112.8,117.9z"/>
			<path class="st7" d="M107.4,119.9c-4.7,1.2-11.2,0.4-16.3,0.4c-5.1,0-11.8,0.7-16.3-0.4c0,0,7.9,4.9,16.3,5
				C99.6,124.9,107.4,119.9,107.4,119.9z"/>
		</g>
		<path class="st3" d="M34.1,80.2C36.8,51.1,49.7,6.3,84,17.5c36-22.2,57.5,27.5,61.3,33c9.7,13.7,8.8,26.3,7.6,37.1
			c-1.2,11,1.5,15.6,7.6,12.7c-7.6,8.7-23,11.7-25.8-14.5c-2.3-22-49.5-21.4-69.3-49.2c-7,3.4-11.6,9.6-12.3,16.1
			c-1.8,19.1-7.6,24-11.3,28.8C39.6,80.1,36.9,79.5,34.1,80.2z"/>
		<g>
			<path class="st12" d="M161.6,100.3c-1,3-3.7,9.7-13.6,9.2c-1.7-0.3-3.5-1-5.2-1.9c-3.4-1.8-6.3-4.8-8.4-8.3
				c-2.1-3.5-3.4-7.5-4.5-11.2c-1.1-3.8-2.1-7.5-3.7-10.6c-0.8-1.6-1.7-2.9-2.9-4.2c-1.2-1.3-2.5-2.5-4.1-3.6
				c-3.2-2.2-6.9-3.9-10.7-5.2c-3.8-1.3-7.8-2.4-11.7-3.5c-3.9-1.1-7.8-2.2-11.4-3.6c-3.6-1.4-6.9-3-9.7-4.9
				c-5.6-3.7-8.9-8.3-10.2-11.7c-1.3-3.4-0.9-5.5-0.3-5.7c0.8-0.2,1.8,1.4,4,3.6c2.1,2.2,5.5,5.1,10.6,7.4c5,2.4,11.5,3.9,19.5,5.4
				c4,0.8,8.3,1.7,12.8,3.1c4.5,1.4,9.3,3.4,13.7,6.5c2.2,1.5,4.3,3.3,6,5.4c1.8,2,3.2,4.4,4.3,6.7c2.1,4.6,2.9,8.9,3.7,12.6
				c0.8,3.7,1.6,6.9,2.8,9.6c1.1,2.6,2.8,4.7,4.5,6.1C155.1,109.5,163.1,96,161.6,100.3z"/>
		</g>
	</g>
</g>
</svg>
