<?xml version="1.0" encoding="utf-8"?>
<!-- Generator: Adobe Illustrator 20.1.0, SVG Export Plug-In . SVG Version: 6.00 Build 0)  -->
<svg version="1.1" id="Layer_1" xmlns="http://www.w3.org/2000/svg" xmlns:xlink="http://www.w3.org/1999/xlink" x="0px" y="0px"
	 viewBox="0 0 177 207.7" style="enable-background:new 0 0 177 207.7;" xml:space="preserve">
<style type="text/css">
	.st0{fill:#FCC299;}
	.st1{fill:#F9A66E;}
	.st2{fill:#5A849E;}
	.st3{fill:#EFB58E;}
	.st4{fill:#855636;}
	.st5{fill:#F7C4A0;}
	.st6{clip-path:url(#SVGID_2_);}
	.st7{fill:#010101;}
	.st8{fill:#FFFFFF;}
	.st9{fill:#C6906C;}
	.st10{clip-path:url(#SVGID_4_);}
	.st11{fill:#F37A6E;}
	.st12{fill:#94332C;}
	.st13{fill:#E63336;}
	.st14{fill:#8CB5D0;}
	.st15{fill:#DBDDDD;}
</style>
<g>
	<path class="st0" d="M166,206.4c-2.8-8.7-5.5-16-8.2-20.8c-0.2-0.4-0.3-0.7-0.5-1.1c-0.4-0.7-1-1.5-1.5-2.2
		c-0.8-1.1-1.6-1.9-2.3-2.5c0,0-0.1,0-0.1-0.1c-12.7-11.5-41-15.3-41-22.3c0-7.9,0-33.6,0-33.6H62.8c0,0,0,25.8,0,33.6
		c0,7-28.1,10.8-40.9,22.2c-0.1,0.1-0.1,0.1-0.2,0.2c-0.9,0.7-1.8,1.7-2.7,3c-0.4,0.5-0.8,1.1-1.1,1.6c-0.1,0.2-0.2,0.5-0.3,0.7
		c-2.8,4.8-5.6,12.2-8.5,21.2H166z"/>
	<path class="st1" d="M112.3,148.7c0-10.5,0-24.8,0-24.8H62.8c0,0,0,21.7,0,31.4c1.2-3.6,9.5,0.8,20.4,2.9
		C94.3,160.4,106.9,156.8,112.3,148.7z"/>
	<path class="st2" d="M157.7,185.6c-0.2-0.4-0.3-0.7-0.5-1.1c-0.4-0.7-1-1.5-1.5-2.2c-0.8-1.1-1.6-1.9-2.3-2.5c0,0-0.1,0-0.1-0.1
		c-9.2-8.3-26.5-12.6-35.4-17c-7.3,8.6-18.2,14-30.3,14c-12.1,0-23-5.4-30.3-14c-8.9,4.4-26.1,8.6-35.3,16.9
		c-0.1,0.1-0.1,0.1-0.2,0.2c-0.9,0.7-1.8,1.7-2.7,3c-0.4,0.5-0.8,1.1-1.1,1.6c-0.1,0.2-0.2,0.5-0.3,0.7c-2.8,4.8-5.6,12.2-8.5,21.2
		H166C163.2,197.7,160.4,190.5,157.7,185.6z"/>
</g>
<g>
	<g>
		<path class="st0" d="M45.1,95.2c0,0-7-8.7-14.1-4.9c-12,6.5-1.7,33.6,13.1,28.5L45.1,95.2z"/>
		<path class="st1" d="M42.4,96.9c0,0-4.9-5.6-9.7-3.1c-8.2,4.1,1.9,23.6,9.2,18.1L42.4,96.9z"/>
	</g>
	<g>
		<path class="st0" d="M128.6,95.2c0,0,7-8.7,14.1-4.9c12,6.5,1.7,33.6-13.1,28.5L128.6,95.2z"/>
		<path class="st1" d="M131.2,96.9c0,0,4.9-5.6,9.7-3.1c8.2,4.1-1.9,23.6-9.2,18.1L131.2,96.9z"/>
	</g>
</g>
<path class="st3" d="M87.5,26.9C61.2,27.1,40,42.6,40,78.1c0,15.7,0.4,42.2,6.5,52.1c6.1,9.8,14.2,14,20.9,18
	c6.5,3.8,12.3,6.4,20.1,6.6c7.8-0.1,13.6-2.7,20.1-6.6c6.7-3.9,14.9-8.1,20.9-18c6.1-9.8,6.5-36.4,6.5-52.1
	C135.1,42.6,113.8,27.1,87.5,26.9z"/>
<path class="st4" d="M95.7,118.4c-0.1-0.6-0.4-1.1-0.7-1.4c-0.3-0.3-0.6-0.6-0.8-0.7c-0.2-0.1-0.4-0.2-0.4-0.1
	c-0.1,0.1,0.3,0.5,0.7,1.2c0.2,0.3,0.4,0.7,0.4,1.2c0.1,0.5,0,1-0.2,1.4c-0.2,0.4-0.6,0.6-1,0.6c-0.2,0-0.4-0.1-0.6-0.3
	c-0.2-0.1-0.4-0.3-0.6-0.3c-0.2-0.1-0.3-0.1-0.5-0.1c0.3-0.5,0.3-0.8,0.3-0.9c-0.1-0.1-0.5,0.5-1.3,1.2c-0.4,0.3-0.9,0.7-1.4,1
	c-0.6,0.3-1.3,0.5-2,0.5c-0.7,0-1.4-0.2-2-0.5c-0.6-0.3-1.1-0.6-1.5-1c-0.8-0.7-1.2-1.2-1.3-1.1c-0.1,0,0,0.3,0.2,0.7
	c-0.1,0-0.3,0-0.4,0.1c-0.2,0.1-0.4,0.2-0.6,0.3c-0.2,0.1-0.4,0.2-0.6,0.3c-0.3,0.1-0.7-0.2-1-0.6c-0.2-0.4-0.3-1-0.2-1.4
	c0.1-0.5,0.3-0.9,0.4-1.2c0.4-0.7,0.7-1,0.7-1.2c0,0-0.2,0-0.4,0.1c-0.2,0.1-0.5,0.3-0.8,0.7c-0.3,0.3-0.6,0.8-0.7,1.4
	c-0.1,0.6-0.2,1.3,0.2,2c0.2,0.3,0.5,0.6,0.8,0.8c0.3,0.2,0.8,0.3,1.1,0.1c0.4-0.1,0.6-0.3,0.8-0.5c0.2-0.2,0.4-0.3,0.5-0.4
	c0.2-0.1,0.3-0.2,0.5-0.2c0.1,0.1,0.2,0.3,0.3,0.4c0.4,0.4,0.9,0.9,1.6,1.2c0.7,0.4,1.5,0.6,2.4,0.6c0.9,0,1.7-0.3,2.4-0.7
	c0.7-0.4,1.2-0.9,1.5-1.3c0.1-0.1,0.1-0.2,0.2-0.3c0.2,0,0.3,0.1,0.5,0.2c0.1,0.1,0.3,0.2,0.5,0.4c0.2,0.2,0.4,0.3,0.8,0.5
	c0.4,0.1,0.8,0,1.1-0.1c0.3-0.2,0.6-0.5,0.8-0.8C95.9,119.7,95.9,119,95.7,118.4z"/>
<g>
	<ellipse class="st5" cx="57.1" cy="114.3" rx="9.9" ry="5.1"/>
	<ellipse class="st5" cx="117.9" cy="114.3" rx="9.9" ry="5.1"/>
</g>
<g>
	<g>
		<g>
			<defs>
				<path id="SVGID_1_" d="M77.3,101.9c-6.7-8.2-16-9.1-23.2,0.6C64.2,108.3,73.5,103.7,77.3,101.9z"/>
			</defs>
			<use xlink:href="#SVGID_1_"  style="overflow:visible;fill:#FFFFFF;"/>
			<clipPath id="SVGID_2_">
				<use xlink:href="#SVGID_1_"  style="overflow:visible;"/>
			</clipPath>
			<g class="st6">
				
					<ellipse transform="matrix(0.999 -4.526363e-02 4.526363e-02 0.999 -4.4948 3.0655)" class="st4" cx="65.4" cy="100.8" rx="5.6" ry="5.6"/>
				
					<ellipse transform="matrix(0.999 -4.526657e-02 4.526657e-02 0.999 -4.4951 3.0657)" class="st7" cx="65.4" cy="100.8" rx="3.2" ry="3.2"/>
				
					<ellipse transform="matrix(0.999 -4.531991e-02 4.531991e-02 0.999 -4.4327 3.1368)" class="st8" cx="67" cy="99.3" rx="0.6" ry="0.6"/>
			</g>
		</g>
		<path class="st9" d="M77.3,101.9c-2.6-5.9-7.7-7.5-12.2-7.2c-4.1,0.2-9,2.4-11.1,7.8C62,95.4,70.9,95.9,77.3,101.9z"/>
	</g>
	<g>
		<g>
			<defs>
				<path id="SVGID_3_" d="M97.7,102c6.6-8.2,15.9-9.3,23.3,0.4C110.9,108.3,101.6,103.7,97.7,102z"/>
			</defs>
			<use xlink:href="#SVGID_3_"  style="overflow:visible;fill:#FFFFFF;"/>
			<clipPath id="SVGID_4_">
				<use xlink:href="#SVGID_3_"  style="overflow:visible;"/>
			</clipPath>
			<g class="st10">
				
					<ellipse transform="matrix(3.878820e-02 -0.9992 0.9992 3.878820e-02 4.6623 206.4123)" class="st4" cx="109.6" cy="100.8" rx="5.6" ry="5.6"/>
				
					<ellipse transform="matrix(3.879574e-02 -0.9992 0.9992 3.879574e-02 4.6615 206.4116)" class="st7" cx="109.6" cy="100.8" rx="3.2" ry="3.2"/>
				
					<ellipse transform="matrix(3.882579e-02 -0.9992 0.9992 3.882579e-02 7.3497 206.7571)" class="st8" cx="111.1" cy="99.6" rx="0.6" ry="0.6"/>
			</g>
		</g>
		<path class="st9" d="M97.7,102c2.6-5.9,7.7-7.5,12.1-7.3c4.1,0.2,9,2.3,11.1,7.7C113,95.4,104.2,95.9,97.7,102z"/>
	</g>
</g>
<g>
	<path class="st4" d="M118.7,91.5c-0.1,0.1-0.4-0.1-0.8-0.3c-0.4-0.2-1-0.6-1.7-0.8c-0.7-0.3-1.6-0.5-2.5-0.6c-0.9-0.1-2-0.1-3.1,0
		c-1.1,0.1-2.2,0.2-3.2,0.4c-1.1,0.1-2.1,0.3-3,0.4c-1.8,0.2-3.1,0.3-3.4,0.4c-1.1,0.1-2-0.7-2.1-1.8c-0.1-1.1,0.8-2,1.9-2.1
		c0.3,0,1.6,0,3.4-0.1c0.9,0,1.9,0,3,0c1.1,0,2.2,0,3.4,0.1c1.2,0.1,2.4,0.3,3.5,0.6c1.1,0.3,2.1,0.8,2.8,1.4
		c0.7,0.5,1.2,1.1,1.5,1.6C118.7,91.2,118.8,91.5,118.7,91.5z"/>
	<path class="st4" d="M56.4,91.5c0.1,0.1,0.4-0.1,0.8-0.3c0.4-0.2,1-0.6,1.7-0.8c0.7-0.3,1.6-0.5,2.5-0.6c0.9-0.1,2-0.1,3.1,0
		c1.1,0.1,2.2,0.2,3.2,0.4c1.1,0.1,2.1,0.3,3,0.4c1.8,0.2,3.1,0.3,3.4,0.4c1.1,0.1,2-0.7,2.1-1.8c0.1-1.1-0.8-2-1.9-2.1
		c-0.3,0-1.6,0-3.4-0.1c-0.9,0-1.9,0-3,0c-1.1,0-2.2,0-3.4,0.1c-1.2,0.1-2.4,0.3-3.5,0.6c-1.1,0.3-2.1,0.8-2.8,1.4
		c-0.7,0.5-1.2,1.1-1.5,1.6C56.3,91.2,56.3,91.5,56.4,91.5z"/>
</g>
<g>
	<path class="st11" d="M110.4,124c-6.5,1.5-7.5,1.1-13,1.2c-2.6,0.1-8.2,1.9-8.2,1.9s-5.2-1.6-8-1.5c-4.9,0.1-9.3,0.4-14.2,0
		c0,0,5.8,16,21.2,16C103.8,141.6,110.4,124,110.4,124z"/>
	<path class="st8" d="M68.8,126.6c0,0,5.7,10,19.4,10s21.1-11.6,21.1-11.6C94.4,129.7,81.9,128.9,68.8,126.6z"/>
	<path class="st12" d="M68.8,126.6c0,0,5.7,10,19.4,10s21.1-11.6,21.1-11.6C94.4,129.7,81.9,128.9,68.8,126.6z"/>
	<path class="st8" d="M68.8,126.6c0,0,0,0,0.1,0.1c3.9,2.6,10.4,4.4,19.4,4.4c9.6,0,16.5-2.7,20.9-5.9c0.1-0.1,0.1-0.2,0.1-0.2
		C94.4,129.7,81.9,128.9,68.8,126.6z"/>
	<path class="st13" d="M88.2,136.6c4.4,0,8.2-1.2,11.3-2.9c-1.4-0.7-3.2-1.3-5.3-1.3c-1.7,0-4.4,0.3-5.2,1.3
		c-0.2,0.2-0.3,0.5-0.6,0.7c-0.3,0.2-0.8,0.3-1.1,0.2c-0.5-0.2-0.4-0.6,0-0.9c0.4-0.2,1-0.3,1.5-0.4c-1.9-1.7-9.8-0.9-10.9,0.9
		C80.6,135.7,84,136.6,88.2,136.6z"/>
</g>
<g>
	<path class="st8" d="M137,78.2c0,19.7,0.7-11.8-49.8-11.8c-50.5,0-50.5,31.4-50.5,11.8c0-19.7,22.5-35.6,50.2-35.6
		C114.5,42.6,137,58.5,137,78.2z"/>
	<path class="st14" d="M154.1,168.9c-5.6-4.5-10.8-14-10.8-14c5.7-24.1,5.7-51.9,5.7-73.1c0-47.1-20.8-78.1-62.2-78.1
		c-41.4,0-62.2,31-62.2,78.1c0,21.2,0,49,5.7,73.1c-1.8,4.9-5.1,9.4-10.8,14c-20.4,16.4,32.4,39.3,67.3,39.3
		C121.6,208.2,174.4,185.2,154.1,168.9z M40.9,94.1c0-25,22.8-48.8,45.9-48.8c23.1,0,45.9,23.8,45.9,48.8s-17.3,60.5-45.9,60.5
		C58.2,154.6,40.9,119.1,40.9,94.1z"/>
	<path class="st15" d="M86.6,177.3c-26.4,0-44.4-16-44.7-16.3c-0.8-0.7-0.8-1.8,0-2.5c0.8-0.7,2.1-0.7,2.8,0
		c1.5,1.4,38.3,33.9,84.3-0.1c0.9-0.6,2.1-0.5,2.8,0.2c0.7,0.8,0.6,1.9-0.3,2.5C115.2,173.3,99.8,177.3,86.6,177.3z"/>
	<path class="st15" d="M86.6,189.9c-26.4,0-44.4-16-44.7-16.3c-0.8-0.7-0.8-1.8,0-2.5c0.8-0.7,2.1-0.7,2.8,0
		C46.3,172.5,83,205,129,171c0.9-0.6,2.1-0.5,2.8,0.2c0.7,0.8,0.6,1.9-0.3,2.5C115.2,185.8,99.8,189.9,86.6,189.9z"/>
</g>
</svg>
